{
.appVersion = "3302";
.formatVersion = 3;
DisplayStrings = (
"ﬁle aufißt raufjagen fıne",
"/Nj.ss01",
"/ij.ss01",
"Ѝ",
"Ќ",
"Ǌ",
"Ѓ",
"!",
"?",
"/Germandbls.swsh",
"__Letter:
HHOHnAnnnoi
HHOHn/A.ss01 nnnoi
HHOHn/A.swsh nnnoi
HHOHnÆnnnoi
HHOHn/AE.ss01 nnnoi
HHOHn/AE.swsh nnnoi
HHOnBnnnoi
HHOHn/B.ss01 nnnoi
HHOHn/B.swsh nnnoi
HHOHnCnnnoi
HHOHn/C.ss01 nnnoi
HHOHn/C.swsh nnnoi
HHOHnDnnnoi
HHOHn/D.ss01 nnnoi
HHOHn/D.swsh nnnoi
HHOHnEnnnoi
HHOHn/E.ss01 nnnoi
HHOHn/E.swsh nnnoi
HHOHnƏnnnoi
HHOHnFnnnoi
HHOHn/F.ss01 nnnoi
HHOHn/F.swsh nnnoi
HHOHnGnnnoi
HHOHn/G.ss01 nnnoi
HHOHn/G.swsh nnnoi
HHOHnHnnnoi
HHOHn/H.ss01 nnnoi
HHOHn/H.swsh nnnoi
HHOHnInnnoi
HHOHn/I.swsh nnnoi
HHOHnĲnnnoi
HHOHn/IJ.ss01 nnnoi
HHOHnJnnnoi
HHOHn/J.ss01 nnnoi
HHOHn/J.swsh nnnoi
HHOHnKnnnoi
HHOHn/K.ss01 nnnoi
HHOHn/K.swsh nnnoi
HHOHnLnnnoi
HHOHn/L.swsh nnnoi
HHOHnMnnnoi
HHOHn/M.ss01 nnnoi
HHOHn/M.swsh nnnoi
HHOHnNnnnoi
HHOHn/N.ss01 nnnoi
HHOHn/N.swsh nnnoi
HHOHnOnnnoi
HHOHnŒnnnoi
HHOHnPnnnoi
HHOHn/P.ss01 nnnoi
HHOHn/P.swsh nnnoi
HHOHnÞnnnoi
HHOHn/Thorn.ss01 nnnoi
HHOHnQnnnoi
HHOHn/Q.swsh nnnoi
HHOHnRnnnoi
HHOHn/R.ss01 nnnoi
HHOHn/R.swsh nnnoi
HHOHnSnnnoi
HHOHn/S.ss01 nnnoi
HHOHn/S.swsh nnnoi
HHOHnẞnnnoi
HHOHn/Germandbls.swsh nnnoi
HHOHnTnnnoi
HHOHn/T.ss01 nnnoi
HHOHn/T.swsh nnnoi
HHOHnUnnnoi
HHOHn/U.ss01 nnnoi
HHOHn/U.swsh nnnoi
HHOHnVnnnoi
HHOHn/V.ss01 nnnoi
HHOHn/V.swsh nnnoi
HHOHnWnnnoi
HHOHn/W.ss01 nnnoi
HHOHn/W.swsh nnnoi
HHOHnXnnnoi
HHOHn/X.ss01 nnnoi
HHOHn/X.swsh nnnoi
HHOHnYnnnoi
HHOHn/Y.ss01 nnnoi
HHOHn/Y.swsh nnnoi
HHOHnZnnnoi
HHOHn/Z.ss01 nnnoi
HHOHn/Z.swsh nnnoi
HHOHnꞋnnnoi
HHOHn/X.ss03 nnnoi
HHOHƝnnnoi
HHOHnannnoi
HHOHn/a.ital nnnoi
HHOHn/a.ss01 nnnoi
HHOHnænnnoi
HHOHnbnnnoi
HHOHncnnnoi
HHOHn/c.ss01 nnnoi
HHOHndnnnoi
HHOHn/d.ss01 nnnoi
HHOHnðnnnoi
HHOHnennnoi
HHOHn/e.ss01 nnnoi
HHOHnfnnnoi
HHOHn/f.ss01 nnnoi
HHOHngnnnoi
HHOHn/g.ss01 nnnoi
HHOHnhnnnoi
HHOHn/h.ss01 nnnoi
HHOHnınnnoi
HHOHn/idotless.ss01 nnnoi
HHOHnĳnnnoi
HHOHnȷnnnoi
HHOHn/jdotless.ss01 nnnoi
HHOHn/jdotless.swsh nnnoi

glyphs = (
{
glyphname = A;
kernLeft = A;
kernRight = A;
layers = (
{
anchors = (
{
name = bottom;
pos = (390,0);
},
{
name = ogonek;
pos = (695,0);
},
{
name = top;
pos = (388,687);
}
);
hints = (
{
name = _corner.caps_diag;
options = 1;
origin = (0,4);
scale = (-1,1);
type = Corner;
}
);
layerId = "0CAF3BED-C4AC-4024-B3E1-4C69D1EF7EC0";
shapes = (
{
closed = 1;
nodes = (
(695,0,l,{
"Letterink-NibData" = {
AngleInDegrees = 336.96218;
};
}),
(407,690,l,{
"Letterink-NibData" = {
AngleInDegrees = 270;
};
}),
(373,690,l,{
"Letterink-NibData" = {
AngleInDegrees = 202.82503;
};
}),
(126,83,l,{
"Letterink-NibData" = {
AngleInDegrees = 202.38014;
};
}),
(198,53,l,{
"Letterink-NibData" = {
AngleInDegrees = 22.71999;
};
}),
(279,253,l,{
"Letterink-NibData" = {
AngleInDegrees = 236.57519;
};
}),
(224,205,l,{
"Letterink-NibData" = {
AngleInDegrees = 90;
};
}),
(556,205,l,{
"Letterink-NibData" = {
AngleInDegrees = 303.42481;
};
}),
(506,253,l,{
"Letterink-NibData" = {
AngleInDegrees = 157.34811;
};
}),
(612,0,l,{
"Letterink-NibData" = {
AngleInDegrees = 90;
};
})
);
},
{
closed = 1;
nodes = (
(388,542,l,{
"Letterink-NibData" = {
AngleInDegrees = 8.1301;
};
}),
(391,565,l,{
"Letterink-NibData" = {
AngleInDegrees = 171.8699;
};
}),
(395,542,l,{
"Letterink-NibData" = {
AngleInDegrees = 159.79358;
};
}),
(500,260,l,{
"Letterink-NibData" = {
AngleInDegrees = 35.21759;
};
}),
(522,279,l,{
"Letterink-NibData" = {
AngleInDegrees = 270;
};
}),
(254,279,l,{
"Letterink-NibData" = {
AngleInDegrees = 145.92281;
};
}),
(282,260,l,{
"Letterink-NibData" = {
AngleInDegrees = 20.73026;
};
})
);
}
);
width = 706;
},
{
anchors = (
{
name = bottom;
pos = (399,0);
},
{
name = ogonek;
pos = (691,0);
},
{
name = top;
pos = (401,684);
}
);
hints = (
{
name = _corner.caps_diag;
options = 1;
origin = (0,4);
scale = (-1,1);
type = Corner;
}
);
layerId = "49C16FD3-6177-408B-A733-AEB3898BB77C";
shapes = (
{
closed = 1;
nodes = (
(691,0,l,{
"Letterink-NibData" = {
AngleInDegrees = 337.30364;
};
}),
(404,692,l,{
"Letterink-NibData" = {
AngleInDegrees = 270;
};
}),
(398,692,l,{
"Letterink-NibData" = {
AngleInDegrees = 202.68401;
};
}),
(137,60,l,{
"Letterink-NibData" = {
AngleInDegrees = 202.61986;
};
}),
(172,45,l,{
"Letterink-NibData" = {
AngleInDegrees = 22.1315;
};
}),
(257,251,l,{
"Letterink-NibData" = {
AngleInDegrees = 235.7843;
};
}),
(228,234,l,{
"Letterink-NibData" = {
AngleInDegrees = 90;
};
}),
(569,234,l,{
"Letterink-NibData" = {
AngleInDegrees = 304.2157;
};
}),
(546,251,l,{
"Letterink-NibData" = {
AngleInDegrees = 157.41269;
};
}),
(650,0,l,{
"Letterink-NibData" = {
AngleInDegrees = 90;
};
})
);
},
{
closed = 1;
nodes = (
(392,584,l,{
"Letterink-NibData" = {
AngleInDegrees = 16.29405;
};
}),
(401,617,l,{
"Letterink-NibData" = {
AngleInDegrees = 163.21735;
};
}),
(410,584,l,{
"Letterink-NibData" = {
AngleInDegrees = 158.19859;
};
}),
(543,257,l,{
"Letterink-NibData" = {
AngleInDegrees = 32.90524;
};
}),
(552,270,l,{
"Letterink-NibData" = {
AngleInDegrees = 270;
};
}),
(243,270,l,{
"Letterink-NibData" = {
AngleInDegrees = 147.09476;
};
}),
(259,257,l,{
"Letterink-NibData" = {
AngleInDegrees = 22.09423;
};
})
);
}
);
width = 710;
},
{
anchors = (
{
name = bottom;
pos = (387,-8);
},
{
name = ogonek;
pos = (680,1);
},
{
name = top;
pos = (387,684);
}
);
associatedMasterId = "49C16FD3-6177-408B-A733-AEB3898BB77C";
layerId = "E63F2094-54D6-44F3-A00F-83DE5DFBC8F4";
name = "6 Jan 22, 16:48";
shapes = (
{
closed = 1;
nodes = (
(114,-9,o),
(142,8,o),
(156,42,cs,{
"Letterink-NibData" = {
AngleInDegrees = 22.1315;
};
}),
(241,251,l,{
"Letterink-NibData" = {
AngleInDegrees = 235.7843;
};
}),
(216,234,l,{
"Letterink-NibData" = {
AngleInDegrees = 90;
};
}),
(556,234,l,{
"Letterink-NibData" = {
AngleInDegrees = 304.2157;
};
}),
(531,251,l,{
"Letterink-NibData" = {
AngleInDegrees = 157.41269;
};
}),
(635,1,l,{
"Letterink-NibData" = {
AngleInDegrees = 90;
};
}),
(680,1,l,{
"Letterink-NibData" = {
AngleInDegrees = 337.30364;
};
}),
(391,692,l,{
"Letterink-NibData" = {
AngleInDegrees = 270;
};
}),
(383,692,l,{
"Letterink-NibData" = {
AngleInDegrees = 202.68401;
};
}),
(118,58,ls,{
"Letterink-NibData" = {
AngleInDegrees = 202.61986;
};
}),
(113,46,o),
(98,31,o),
(81,31,cs,{
"Letterink-NibData" = {
AngleInDegrees = 270;
};
}),
(62,31,o),
(46,45,o),
(41,59,c,{
"Letterink-NibData" = {
AngleInDegrees = 261.25384;
};
}),
(2,53,l,{
"Letterink-NibData" = {
AngleInDegrees = 163.85566;
};
}),
(13,15,o),
(42,-9,o),
(80,-9,cs,{
"Letterink-NibData" = {
AngleInDegrees = 90;
};
})
);
},
{
closed = 1;
nodes = (
(367,560,l,{
"Letterink-NibData" = {
AngleInDegrees = 16.29405;
};
}),
(386,625,l,{
"Letterink-NibData" = {
AngleInDegrees = 163.21735;
};
}),
(405,562,l,{
"Letterink-NibData" = {
AngleInDegrees = 158.19859;
};
}),
(527,257,l,{
"Letterink-NibData" = {
AngleInDegrees = 32.90524;
};
}),
(538,274,l,{
"Letterink-NibData" = {
AngleInDegrees = 270;
};
}),
(233,274,l,{
"Letterink-NibData" = {
AngleInDegrees = 147.09476;
};
}),
(244,257,l,{
"Letterink-NibData" = {
AngleInDegrees = 22.09423;
};
})
);
}
);
width = 718;
},
{
anchors = (
{
name = bottom;
pos = (439,0);
},
{
name = ogonek;
pos = (774,0);
},
{
name = top;
pos = (438,693);
}
);
hints = (
{
name = _corner.caps_diag;
options = 1;
origin = (0,4);
scale = (-1,1);
type = Corner;
}
);
layerId = m004;
shapes = (
{
closed = 1;
nodes = (
(774,0,l,{
"Letterink-NibData" = {
AngleInDegrees = "337.32254";
};
}),
(490,699,l,{
"Letterink-NibData" = {
AngleInDegrees = "270";
};
}),
(393,699,l,{
"Letterink-NibData" = {
AngleInDegrees = "202.53914";
};
}),
(161,140,l,{
"Letterink-NibData" = {
AngleInDegrees = "90";
};
}),
(301,62,l,{
"Letterink-NibData" = {
AngleInDegrees = "22.65189";
};
}),
(381,257,l,{
"Letterink-NibData" = {
AngleInDegrees = "236.57519";
};
}),
(285,141,l,{
"Letterink-NibData" = {
AngleInDegrees = "90";
};
}),
(595,141,l,{
"Letterink-NibData" = {
AngleInDegrees = "303.42481";
};
}),
(495,257,l,{
"Letterink-NibData" = {
AngleInDegrees = "156.96496";
};
}),
(596,0,l,{
"Letterink-NibData" = {
AngleInDegrees = "90";
};
})
);
},
{
closed = 1;
nodes = (
(463,490,l,{
"Letterink-NibData" = {
AngleInDegrees = "19.98311";
};
}),
(439,504,l,{
"Letterink-NibData" = {
AngleInDegrees = "161.56505";
};
}),
(417,490,l,{
"Letterink-NibData" = {
AngleInDegrees = "158.35875";
};
}),
(491,272,l,{
"Letterink-NibData" = {
AngleInDegrees = "34.87533";
};
}),
(533,279,l,{
"Letterink-NibData" = {
AngleInDegrees = "270";
};
}),
(342,279,l,{
"Letterink-NibData" = {
AngleInDegrees = "145.92281";
};
}),
(388,268,l,{
"Letterink-NibData" = {
AngleInDegrees = "21.36191";
};
})
);
}
);
width = 779;
}
);
unicode = 65;
userData = {
position = 666;
width = 20;
};
},
{
glyphname = A.ss01;
kernLeft = Atext;
kernRight = A;
layers = (
{
anchors = (
{
name = bottom;
pos = (321,0);
},
{
name = ogonek;
pos = (632,-1);
},
{
name = top;
pos = (321,690);
}
);
layerId = "0CAF3BED-C4AC-4024-B3E1-4C69D1EF7EC0";
shapes = (
{
closed = 1;
nodes = (
(100,0,l,{
"Letterink-NibData" = {
AngleInDegrees = 22.65189;
};
}),
(205,253,l,{
"Letterink-NibData" = {
AngleInDegrees = 236.57519;
};
}),
(154,210,l,{
"Letterink-NibData" = {
AngleInDegrees = 90;
};
}),
(487,210,l,{
"Letterink-NibData" = {
AngleInDegrees = 303.42481;
};
}),
(437,253,l,{
"Letterink-NibData" = {
AngleInDegrees = 156.96496;
};
}),
(543,0,l,{
"Letterink-NibData" = {
AngleInDegrees = 90;
};
}),
(632,0,l,{
"Letterink-NibData" = {
AngleInDegrees = 337.32254;
};
}),
(337,702,l,{
"Letterink-NibData" = {
AngleInDegrees = 270;
};
}),
(304,702,l,{
"Letterink-NibData" = {
AngleInDegrees = 202.53914;
};
}),
(11,0,l,{
"Letterink-NibData" = {
AngleInDegrees = 90;
};
})
);
},
{
closed = 1;
nodes = (
(310,511,l,{
"Letterink-NibData" = {
AngleInDegrees = 19.98311;
};
}),
(320,548,l,{
"Letterink-NibData" = {
AngleInDegrees = 161.56505;
};
}),
(331,511,l,{
"Letterink-NibData" = {
AngleInDegrees = 158.35875;
};
}),
(430,260,l,{
"Letterink-NibData" = {
AngleInDegrees = 34.87533;
};
}),
(455,284,l,{
"Letterink-NibData" = {
AngleInDegrees = 270;
};
}),
(185,284,l,{
"Letterink-NibData" = {
AngleInDegrees = 145.92281;
};
}),
(210,260,l,{
"Letterink-NibData" = {
AngleInDegrees = 21.36191;
};
})
);
}
);
width = 643;
},
{
anchors = (
{
name = bottom;
pos = (320,-2);
},
{
name = ogonek;
pos = (622,0);
},
{
name = top;
pos = (319,684);
}
);
layerId = "49C16FD3-6177-408B-A733-AEB3898BB77C";
shapes = (
{
closed = 1;
nodes = (
(60,0,l,{
"Letterink-NibData" = {
AngleInDegrees = 22.78241;
};
}),
(164,251,l,{
"Letterink-NibData" = {
AngleInDegrees = 235.7843;
};
}),
(143,236,l,{
"Letterink-NibData" = {
AngleInDegrees = 90;
};
}),
(496,236,l,{
"Letterink-NibData" = {
AngleInDegrees = 304.2157;
};
}),
(475,251,l,{
"Letterink-NibData" = {
AngleInDegrees = 157.02305;
};
}),
(581,0,l,{
"Letterink-NibData" = {
AngleInDegrees = 90;
};
}),
(622,0,l,{
"Letterink-NibData" = {
AngleInDegrees = 336.95898;
};
}),
(324,699,l,{
"Letterink-NibData" = {
AngleInDegrees = 270;
};
}),
(315,699,l,{
"Letterink-NibData" = {
AngleInDegrees = 202.90284;
};
}),
(19,0,l,{
"Letterink-NibData" = {
AngleInDegrees = 90;
};
})
);
},
{
closed = 1;
nodes = (
(306,585,l,{
"Letterink-NibData" = {
AngleInDegrees = 22.61986;
};
}),
(320,627,l,{
"Letterink-NibData" = {
AngleInDegrees = 160.34617;
};
}),
(333,587,l,{
"Letterink-NibData" = {
AngleInDegrees = 157.39526;
};
}),
(472,257,l,{
"Letterink-NibData" = {
AngleInDegrees = 32.90524;
};
}),
(482,272,l,{
"Letterink-NibData" = {
AngleInDegrees = 270;
};
}),
(157,272,l,{
"Letterink-NibData" = {
AngleInDegrees = 147.09476;
};
}),
(167,257,l,{
"Letterink-NibData" = {
AngleInDegrees = 22.96683;
};
})
);
}
);
width = 641;
},
{
anchors = (
{
name = bottom;
pos = (346,0);
},
{
name = ogonek;
pos = (686,0);
},
{
name = top;
pos = (345,694);
}
);
layerId = m004;
shapes = (
{
closed = 1;
nodes = (
(186,0,l,{
"Letterink-NibData" = {
AngleInDegrees = 22.65189;
};
}),
(291,257,l,{
"Letterink-NibData" = {
AngleInDegrees = 236.57519;
};
}),
(190,136,l,{
"Letterink-NibData" = {
AngleInDegrees = 90;
};
}),
(500,136,l,{
"Letterink-NibData" = {
AngleInDegrees = 303.42481;
};
}),
(400,257,l,{
"Letterink-NibData" = {
AngleInDegrees = 156.96496;
};
}),
(508,0,l,{
"Letterink-NibData" = {
AngleInDegrees = 90;
};
}),
(686,0,l,{
"Letterink-NibData" = {
AngleInDegrees = 337.32254;
};
}),
(392,694,l,{
"Letterink-NibData" = {
AngleInDegrees = 270;
};
}),
(306,694,l,{
"Letterink-NibData" = {
AngleInDegrees = 202.53914;
};
}),
(5,0,l,{
"Letterink-NibData" = {
AngleInDegrees = 90;
};
})
);
},
{
closed = 1;
nodes = (
(358,475,l,{
"Letterink-NibData" = {
AngleInDegrees = 19.98311;
};
}),
(344,484,l,{
"Letterink-NibData" = {
AngleInDegrees = 161.56505;
};
}),
(326,475,l,{
"Letterink-NibData" = {
AngleInDegrees = 158.35875;
};
}),
(392,272,l,{
"Letterink-NibData" = {
AngleInDegrees = 34.87533;
};
}),
(438,274,l,{
"Letterink-NibData" = {
AngleInDegrees = 270;
};
}),
(247,274,l,{
"Letterink-NibData" = {
AngleInDegrees = 145.92281;
};
}),
(297,268,l,{
"Letterink-NibData" = {
AngleInDegrees = 21.36191;
};
})
);
}
);
width = 691;
}
);
metricLeft = "=|A";
metricRight = A;
userData = {
position = 10;
width = 615;
};
},
{
glyphname = A.swsh;
kernLeft = A;
kernRight = A;
layers = (
{
anchors = (
{
name = bottom;
pos = (442,0);
},
{
name = ogonek;
pos = (751,0);
},
{
name = top;
pos = (440,684);
}
);
hints = (
{
name = _corner.caps_swash_diag;
options = 1;
origin = (0,4);
scale = (-1,1);
type = Corner;
},
{
name = _corner.caps_swash.big;
origin = (2,2);
type = Corner;
}
);
layerId = "0CAF3BED-C4AC-4024-B3E1-4C69D1EF7EC0";
shapes = (
{
closed = 1;
nodes = (
(751,0,l,{
"Letterink-NibData" = {
AngleInDegrees = "336.96218";
};
}),
(465,684,l,{
"Letterink-NibData" = {
AngleInDegrees = "270";
};
}),
(418,684,l,{
"Letterink-NibData" = {
AngleInDegrees = "202.82503";
};
}),
(169,84,l,{
"Letterink-NibData" = {
AngleInDegrees = "202.38014";
};
}),
(245,53,l,{
"Letterink-NibData" = {
AngleInDegrees = "22.71999";
};
}),
(326,253,l,{
"Letterink-NibData" = {
AngleInDegrees = "236.57519";
};
}),
(276,210,l,{
"Letterink-NibData" = {
AngleInDegrees = "90";
};
}),
(608,210,l,{
"Letterink-NibData" = {
AngleInDegrees = "303.42481";
};
}),
(558,253,l,{
"Letterink-NibData" = {
AngleInDegrees = "157.34811";
};
}),
(664,0,l,{
"Letterink-NibData" = {
AngleInDegrees = "90";
};
})
);
},
{
closed = 1;
nodes = (
(435,541,l,{
"Letterink-NibData" = {
AngleInDegrees = 8.1301;
};
}),
(441,571,l,{
"Letterink-NibData" = {
AngleInDegrees = "171.8699";
};
}),
(448,541,l,{
"Letterink-NibData" = {
AngleInDegrees = "159.79358";
};
}),
(552,260,l,{
"Letterink-NibData" = {
AngleInDegrees = "35.21759";
};
}),
(574,284,l,{
"Letterink-NibData" = {
AngleInDegrees = "270";
};
}),
(306,284,l,{
"Letterink-NibData" = {
AngleInDegrees = "145.92281";
};
}),
(329,260,l,{
"Letterink-NibData" = {
AngleInDegrees = "20.73026";
};
})
);
},
{
closed = 1;
nodes = (
(452,608,l),
(452,684,l,{
"Letterink-NibData" = {
AngleInDegrees = "270";
};
}),
(299,684,l,{
"Letterink-NibData" = {
AngleInDegrees = "180";
};
}),
(299,608,l,{
"Letterink-NibData" = {
AngleInDegrees = "90";
};
})
);
}
);
width = 762;
},
{
anchors = (
{
name = bottom;
pos = (443,0);
},
{
name = ogonek;
pos = (735,1);
},
{
name = top;
pos = (444,684);
}
);
hints = (
{
name = _corner.caps_swash_diag;
options = 1;
origin = (0,4);
scale = (-1,1);
type = Corner;
},
{
name = _corner.caps_swash.big;
origin = (2,2);
type = Corner;
}
);
layerId = "49C16FD3-6177-408B-A733-AEB3898BB77C";
shapes = (
{
closed = 1;
nodes = (
(735,0,l,{
"Letterink-NibData" = {
AngleInDegrees = "337.30364";
};
}),
(448,684,l,{
"Letterink-NibData" = {
AngleInDegrees = "270";
};
}),
(439,684,l,{
"Letterink-NibData" = {
AngleInDegrees = "202.68401";
};
}),
(177,70,l,{
"Letterink-NibData" = {
AngleInDegrees = "202.61986";
};
}),
(211,54,l,{
"Letterink-NibData" = {
AngleInDegrees = "22.1315";
};
}),
(294,251,l,{
"Letterink-NibData" = {
AngleInDegrees = "235.7843";
};
}),
(272,234,l,{
"Letterink-NibData" = {
AngleInDegrees = "90";
};
}),
(613,234,l,{
"Letterink-NibData" = {
AngleInDegrees = "304.2157";
};
}),
(591,251,l,{
"Letterink-NibData" = {
AngleInDegrees = "157.41269";
};
}),
(694,0,l,{
"Letterink-NibData" = {
AngleInDegrees = "90";
};
})
);
},
{
closed = 1;
nodes = (
(430,576,l,{
"Letterink-NibData" = {
AngleInDegrees = "16.29405";
};
}),
(443,619,l,{
"Letterink-NibData" = {
AngleInDegrees = "163.21735";
};
}),
(457,576,l,{
"Letterink-NibData" = {
AngleInDegrees = "158.19859";
};
}),
(587,257,l,{
"Letterink-NibData" = {
AngleInDegrees = "32.90524";
};
}),
(596,270,l,{
"Letterink-NibData" = {
AngleInDegrees = "270";
};
}),
(287,270,l,{
"Letterink-NibData" = {
AngleInDegrees = "147.09476";
};
}),
(297,257,l,{
"Letterink-NibData" = {
AngleInDegrees = "22.09423";
};
})
);
},
{
closed = 1;
nodes = (
(442,648,l),
(442,684,l,{
"Letterink-NibData" = {
AngleInDegrees = "270";
};
}),
(299,684,l,{
"Letterink-NibData" = {
AngleInDegrees = "180";
};
}),
(299,648,l,{
"Letterink-NibData" = {
AngleInDegrees = "90";
};
})
);
}
);
width = 754;
},
{
anchors = (
{
name = bottom;
pos = (386,-6);
},
{
name = ogonek;
pos = (682,0);
},
{
name = top;
pos = (386,684);
}
);
associatedMasterId = "49C16FD3-6177-408B-A733-AEB3898BB77C";
layerId = "58617E73-3A60-467D-AD5A-D66EDA6AE7B6";
name = "6 Jan 22, 16:52";
shapes = (
{
closed = 1;
nodes = (
(124,-11,o),
(150,10,o),
(166,49,cs,{
"Letterink-NibData" = {
AngleInDegrees = 21.9487;
};
}),
(247,250,l,{
"Letterink-NibData" = {
AngleInDegrees = 235.7843;
};
}),
(222,233,l,{
"Letterink-NibData" = {
AngleInDegrees = 90;
};
}),
(549,233,l,{
"Letterink-NibData" = {
AngleInDegrees = 304.2157;
};
}),
(524,250,l,{
"Letterink-NibData" = {
AngleInDegrees = 157.41269;
};
}),
(628,0,l,{
"Letterink-NibData" = {
AngleInDegrees = 90;
};
}),
(677,0,l,{
"Letterink-NibData" = {
AngleInDegrees = 337.54495;
};
}),
(391,692,l,{
"Letterink-NibData" = {
AngleInDegrees = 270;
};
}),
(381,692,l,{
"Letterink-NibData" = {
AngleInDegrees = 202.29205;
};
}),
(126,70,ls,{
"Letterink-NibData" = {
AngleInDegrees = 202.47943;
};
}),
(114,41,o),
(103,30,o),
(83,30,cs,{
"Letterink-NibData" = {
AngleInDegrees = 270;
};
}),
(63,30,o),
(46,48,o),
(46,67,cs),
(46,72,o),
(47,77,o),
(49,82,c,{
"Letterink-NibData" = {
AngleInDegrees = 304.43899;
};
}),
(14,106,l,{
"Letterink-NibData" = {
AngleInDegrees = 213.69007;
};
}),
(6,94,o),
(2,76,o),
(2,66,cs,{
"Letterink-NibData" = {
AngleInDegrees = 180;
};
}),
(2,21,o),
(43,-11,o),
(85,-11,cs,{
"Letterink-NibData" = {
AngleInDegrees = 90;
};
})
);
},
{
closed = 1;
nodes = (
(372,569,l,{
"Letterink-NibData" = {
AngleInDegrees = 15.64224;
};
}),
(386,619,l,{
"Letterink-NibData" = {
AngleInDegrees = 165.42579;
};
}),
(399,569,l,{
"Letterink-NibData" = {
AngleInDegrees = 158.93765;
};
}),
(518,260,l,{
"Letterink-NibData" = {
AngleInDegrees = 35.21759;
};
}),
(530,277,l,{
"Letterink-NibData" = {
AngleInDegrees = 270;
};
}),
(241,277,l,{
"Letterink-NibData" = {
AngleInDegrees = 144.78241;
};
}),
(253,260,l,{
"Letterink-NibData" = {
AngleInDegrees = 21.06235;
};
})
);
}
);
width = 707;
},
{
anchors = (
{
name = bottom;
pos = (520,0);
},
{
name = ogonek;
pos = (862,0);
},
{
name = top;
pos = (519,694);
}
);
hints = (
{
name = _corner.caps_swash_diag;
options = 1;
origin = (0,4);
scale = (-1,1);
type = Corner;
},
{
name = _corner.caps_swash.big;
origin = (2,2);
type = Corner;
}
);
layerId = m004;
shapes = (
{
closed = 1;
nodes = (
(862,0,l,{
"Letterink-NibData" = {
AngleInDegrees = "337.32254";
};
}),
(594,684,l,{
"Letterink-NibData" = {
AngleInDegrees = "270";
};
}),
(448,684,l,{
"Letterink-NibData" = {
AngleInDegrees = "202.53914";
};
}),
(229,142,l,{
"Letterink-NibData" = {
AngleInDegrees = "90";
};
}),
(370,66,l,{
"Letterink-NibData" = {
AngleInDegrees = "22.65189";
};
}),
(458,257,l,{
"Letterink-NibData" = {
AngleInDegrees = "236.57519";
};
}),
(366,146,l,{
"Letterink-NibData" = {
AngleInDegrees = "90";
};
}),
(676,146,l,{
"Letterink-NibData" = {
AngleInDegrees = "303.42481";
};
}),
(581,257,l,{
"Letterink-NibData" = {
AngleInDegrees = "156.96496";
};
}),
(689,0,l,{
"Letterink-NibData" = {
AngleInDegrees = "90";
};
})
);
},
{
closed = 1;
nodes = (
(537,480,l,{
"Letterink-NibData" = {
AngleInDegrees = "19.98311";
};
}),
(520,484,l,{
"Letterink-NibData" = {
AngleInDegrees = "161.56505";
};
}),
(501,480,l,{
"Letterink-NibData" = {
AngleInDegrees = "158.35875";
};
}),
(568,272,l,{
"Letterink-NibData" = {
AngleInDegrees = "34.87533";
};
}),
(614,284,l,{
"Letterink-NibData" = {
AngleInDegrees = "270";
};
}),
(423,284,l,{
"Letterink-NibData" = {
AngleInDegrees = "145.92281";
};
}),
(469,268,l,{
"Letterink-NibData" = {
AngleInDegrees = "21.36191";
};
})
);
},
{
closed = 1;
nodes = (
(556,536,l),
(556,684,l,{
"Letterink-NibData" = {
AngleInDegrees = "270";
};
}),
(334,684,l,{
"Letterink-NibData" = {
AngleInDegrees = "180";
};
}),
(334,535,l)
);
}
);
width = 867;
}
);
metricRight = A;
userData = {
position = 666;
width = 20;
};
},
{
glyphname = AE;
kernLeft = A;
kernRight = E;
layers = (
{
anchors = (
{
name = bottom;
pos = (529,0);
},
{
name = top;
pos = (540,673);
}
);
hints = (
{
name = _corner.caps_diag;
options = 1;
origin = (0,12);
scale = (-1,1);
type = Corner;
}
);
layerId = "0CAF3BED-C4AC-4024-B3E1-4C69D1EF7EC0";
shapes = (
{
closed = 1;
nodes = (
(906,-1,l),
(906,75,l,{
"Letterink-NibData" = {
AngleInDegrees = 270;
};
}),
(551,75,l),
(551,325,l,{
"Letterink-NibData" = {
AngleInDegrees = 90;
};
}),
(788,325,l),
(788,401,l,{
"Letterink-NibData" = {
AngleInDegrees = 270;
};
}),
(551,401,l),
(551,610,l,{
"Letterink-NibData" = {
AngleInDegrees = 90;
};
}),
(886,610,l),
(886,686,l,{
"Letterink-NibData" = {
AngleInDegrees = 270;
};
}),
(442,686,l,{
"Letterink-NibData" = {
AngleInDegrees = 208.5766;
};
}),
(133,81,l,{
"Letterink-NibData" = {
AngleInDegrees = 209.0546;
};
}),
(198,37,l,{
"Letterink-NibData" = {
AngleInDegrees = 26.8249;
};
}),
(303,252,l,{
"Letterink-NibData" = {
AngleInDegrees = 90;
};
}),
(246,210,l,{
"Letterink-NibData" = {
AngleInDegrees = 90;
};
}),
(505,210,l,{
"Letterink-NibData" = {
AngleInDegrees = 180;
};
}),
(469,256,l,{
"Letterink-NibData" = {
AngleInDegrees = 180;
};
}),
(469,-1,l,{
"Letterink-NibData" = {
AngleInDegrees = 90;
};
})
);
},
{
closed = 1;
nodes = (
(505,286,l,{
"Letterink-NibData" = {
AngleInDegrees = 270;
};
}),
(290,286,l,{
"Letterink-NibData" = {
AngleInDegrees = 28.71031;
};
}),
(309,264,l,{
"Letterink-NibData" = {
AngleInDegrees = 28.71031;
};
}),
(451,537,l,{
"Letterink-NibData" = {
AngleInDegrees = 23.19859;
};
}),
(469,586,l,{
"Letterink-NibData" = {
AngleInDegrees = 180;
};
}),
(469,260,l,{
"Letterink-NibData" = {
AngleInDegrees = 270;
};
})
);
}
);
width = 928;
},
{
anchors = (
{
name = bottom;
pos = (548,0);
},
{
name = top;
pos = (590,684);
}
);
hints = (
{
name = _corner.caps_diag;
options = 1;
origin = (0,12);
scale = (-1,1);
type = Corner;
}
);
layerId = "49C16FD3-6177-408B-A733-AEB3898BB77C";
shapes = (
{
closed = 1;
nodes = (
(921,1,l),
(921,37,l,{
"Letterink-NibData" = {
AngleInDegrees = 270;
};
}),
(541,37,l),
(541,346,l,{
"Letterink-NibData" = {
AngleInDegrees = 90;
};
}),
(797,346,l),
(797,382,l,{
"Letterink-NibData" = {
AngleInDegrees = 270;
};
}),
(541,382,l),
(541,649,l,{
"Letterink-NibData" = {
AngleInDegrees = 90;
};
}),
(901,649,l),
(901,685,l,{
"Letterink-NibData" = {
AngleInDegrees = 270;
};
}),
(479,685,l,{
"Letterink-NibData" = {
AngleInDegrees = 208.82166;
};
}),
(140,62,l,{
"Letterink-NibData" = {
AngleInDegrees = 213.69007;
};
}),
(173,44,l,{
"Letterink-NibData" = {
AngleInDegrees = 29.29136;
};
}),
(279,249,l,{
"Letterink-NibData" = {
AngleInDegrees = 90;
};
}),
(256,237,l,{
"Letterink-NibData" = {
AngleInDegrees = 90;
};
}),
(520,237,l,{
"Letterink-NibData" = {
AngleInDegrees = 180;
};
}),
(504,253,l,{
"Letterink-NibData" = {
AngleInDegrees = 180;
};
}),
(504,1,l,{
"Letterink-NibData" = {
AngleInDegrees = 90;
};
})
);
},
{
closed = 1;
nodes = (
(520,273,l,{
"Letterink-NibData" = {
AngleInDegrees = 270;
};
}),
(274,273,l,{
"Letterink-NibData" = {
AngleInDegrees = 28.59795;
};
}),
(285,259,l,{
"Letterink-NibData" = {
AngleInDegrees = 28.59795;
};
}),
(487,625,l,{
"Letterink-NibData" = {
AngleInDegrees = 27.32389;
};
}),
(504,653,l,{
"Letterink-NibData" = {
AngleInDegrees = 179.84962;
};
}),
(504,257,l,{
"Letterink-NibData" = {
AngleInDegrees = 270;
};
})
);
}
);
width = 944;
},
{
anchors = (
{
name = bottom;
pos = (533,0);
},
{
name = top;
pos = (541,692);
}
);
associatedMasterId = "49C16FD3-6177-408B-A733-AEB3898BB77C";
layerId = "C1A3D0A8-503D-4B78-876F-381CB7337013";
name = "11 Jan 22, 13:13";
shapes = (
{
closed = 1;
nodes = (
(124,-2,o),
(136,26,o),
(167,71,c,{
"Letterink-NibData" = {
AngleInDegrees = 29.29136;
};
}),
(259,235,l,{
"Letterink-NibData" = {
AngleInDegrees = 90;
};
}),
(487,235,l,{
"Letterink-NibData" = {
AngleInDegrees = 180;
};
}),
(487,1,l,{
"Letterink-NibData" = {
AngleInDegrees = 90;
};
}),
(906,1,l),
(906,41,l,{
"Letterink-NibData" = {
AngleInDegrees = 270;
};
}),
(529,41,l),
(529,344,l,{
"Letterink-NibData" = {
AngleInDegrees = 90;
};
}),
(783,344,l),
(783,384,l,{
"Letterink-NibData" = {
AngleInDegrees = 270;
};
}),
(529,384,l),
(529,645,l,{
"Letterink-NibData" = {
AngleInDegrees = 90;
};
}),
(886,645,l),
(886,685,l,{
"Letterink-NibData" = {
AngleInDegrees = 270;
};
}),
(459,685,l,{
"Letterink-NibData" = {
AngleInDegrees = 208.82166;
};
}),
(125,78,l,{
"Letterink-NibData" = {
AngleInDegrees = 213.69007;
};
}),
(111,57,o),
(102,38,o),
(78,38,cs,{
"Letterink-NibData" = {
AngleInDegrees = 270;
};
}),
(64,38,o),
(47,47,o),
(39,56,c,{
"Letterink-NibData" = {
AngleInDegrees = 244.0577;
};
}),
(2,38,l,{
"Letterink-NibData" = {
AngleInDegrees = 146.82149;
};
}),
(19,12,o),
(46,-2,o),
(77,-2,cs,{
"Letterink-NibData" = {
AngleInDegrees = 90;
};
})
);
},
{
closed = 1;
nodes = (
(455,596,l,{
"Letterink-NibData" = {
AngleInDegrees = 27.32389;
};
}),
(486,656,l,{
"Letterink-NibData" = {
AngleInDegrees = 179.84962;
};
}),
(487,275,l,{
"Letterink-NibData" = {
AngleInDegrees = 270;
};
}),
(280,275,l,{
"Letterink-NibData" = {
AngleInDegrees = 28.59795;
};
})
);
}
);
width = 951;
},
{
anchors = (
{
name = bottom;
pos = (523,0);
},
{
name = top;
pos = (534,673);
}
);
associatedMasterId = "0CAF3BED-C4AC-4024-B3E1-4C69D1EF7EC0";
layerId = "8D16C2AC-4E99-48C9-ADA3-C168C353B72B";
name = "11 Jan 22, 13:30";
shapes = (
{
closed = 1;
nodes = (
(122,-12,o),
(159,8,o),
(177,44,cs,{
"Letterink-NibData" = {
AngleInDegrees = 26.8249;
};
}),
(266,220,l,{
"Letterink-NibData" = {
AngleInDegrees = 90;
};
}),
(463,220,l,{
"Letterink-NibData" = {
AngleInDegrees = 180;
};
}),
(463,-1,l,{
"Letterink-NibData" = {
AngleInDegrees = 90;
};
}),
(900,-1,l),
(900,75,l,{
"Letterink-NibData" = {
AngleInDegrees = 270;
};
}),
(545,75,l),
(545,325,l,{
"Letterink-NibData" = {
AngleInDegrees = 90;
};
}),
(782,325,l),
(782,401,l,{
"Letterink-NibData" = {
AngleInDegrees = 270;
};
}),
(545,401,l),
(545,610,l,{
"Letterink-NibData" = {
AngleInDegrees = 90;
};
}),
(880,610,l),
(880,686,l,{
"Letterink-NibData" = {
AngleInDegrees = 270;
};
}),
(436,686,l,{
"Letterink-NibData" = {
AngleInDegrees = 208.5766;
};
}),
(113,93,ls,{
"Letterink-NibData" = {
AngleInDegrees = 209.0546;
};
}),
(103,75,o),
(94,67,o),
(79,67,cs,{
"Letterink-NibData" = {
AngleInDegrees = 270;
};
}),
(68,67,o),
(56,72,o),
(46,86,c,{
"Letterink-NibData" = {
AngleInDegrees = 220.6013;
};
}),
(-2,30,l,{
"Letterink-NibData" = {
AngleInDegrees = 145.7843;
};
}),
(15,5,o),
(46,-12,o),
(87,-12,cs,{
"Letterink-NibData" = {
AngleInDegrees = 90;
};
})
);
},
{
closed = 1;
nodes = (
(442,537,l,{
"Letterink-NibData" = {
AngleInDegrees = 23.19859;
};
}),
(463,586,l,{
"Letterink-NibData" = {
AngleInDegrees = 180;
};
}),
(463,296,l,{
"Letterink-NibData" = {
AngleInDegrees = 270;
};
}),
(310,296,l,{
"Letterink-NibData" = {
AngleInDegrees = 28.71031;
};
})
);
}
);
width = 942;
},
{
anchors = (
{
name = bottom;
pos = (630,0);
},
{
name = top;
pos = (641,684);
}
);
hints = (
{
name = _corner.caps_diag;
options = 1;
origin = (0,12);
scale = (-1,1);
type = Corner;
}
);
layerId = m004;
shapes = (
{
closed = 1;
nodes = (
(973,0,l),
(973,148,l,{
"Letterink-NibData" = {
AngleInDegrees = "270";
};
}),
(674,148,l),
(674,281,l,{
"Letterink-NibData" = {
AngleInDegrees = "90";
};
}),
(863,281,l),
(863,419,l,{
"Letterink-NibData" = {
AngleInDegrees = "270";
};
}),
(674,419,l),
(674,536,l,{
"Letterink-NibData" = {
AngleInDegrees = "90";
};
}),
(953,536,l),
(953,684,l,{
"Letterink-NibData" = {
AngleInDegrees = "270";
};
}),
(454,684,l,{
"Letterink-NibData" = {
AngleInDegrees = "209.70894";
};
}),
(160,137,l,{
"Letterink-NibData" = {
AngleInDegrees = "89.3704";
};
}),
(302,63,l,{
"Letterink-NibData" = {
AngleInDegrees = "28.81079";
};
}),
(402,256,l,{
"Letterink-NibData" = {
AngleInDegrees = "90";
};
}),
(310,146,l,{
"Letterink-NibData" = {
AngleInDegrees = "90";
};
}),
(579,146,l,{
"Letterink-NibData" = {
AngleInDegrees = "180";
};
}),
(509,264,l,{
"Letterink-NibData" = {
AngleInDegrees = "180";
};
}),
(509,0,l,{
"Letterink-NibData" = {
AngleInDegrees = "90";
};
})
);
},
{
closed = 1;
nodes = (
(579,284,l,{
"Letterink-NibData" = {
AngleInDegrees = "270";
};
}),
(391,284,l,{
"Letterink-NibData" = {
AngleInDegrees = "28.68615";
};
}),
(423,279,l,{
"Letterink-NibData" = {
AngleInDegrees = "28.68615";
};
}),
(514,488,l,{
"Letterink-NibData" = {
AngleInDegrees = "23.62938";
};
}),
(509,449,l,{
"Letterink-NibData" = {
AngleInDegrees = "180";
};
}),
(509,275,l,{
"Letterink-NibData" = {
AngleInDegrees = "270";
};
})
);
}
);
width = 1001;
},
{
anchors = (
{
name = bottom;
pos = (512,0);
},
{
name = top;
pos = (523,673);
}
);
associatedMasterId = m004;
layerId = "80EF8790-0869-49FF-90A7-EBAC34F5F575";
name = "11 Jan 22, 13:30";
shapes = (
{
closed = 1;
nodes = (
(111,-12,o),
(148,8,o),
(166,44,cs,{
"Letterink-NibData" = {
AngleInDegrees = 26.8249;
};
}),
(255,220,l,{
"Letterink-NibData" = {
AngleInDegrees = 90;
};
}),
(452,220,l,{
"Letterink-NibData" = {
AngleInDegrees = 180;
};
}),
(452,-1,l,{
"Letterink-NibData" = {
AngleInDegrees = 90;
};
}),
(889,-1,l),
(889,75,l,{
"Letterink-NibData" = {
AngleInDegrees = 270;
};
}),
(534,75,l),
(534,325,l,{
"Letterink-NibData" = {
AngleInDegrees = 90;
};
}),
(771,325,l),
(771,401,l,{
"Letterink-NibData" = {
AngleInDegrees = 270;
};
}),
(534,401,l),
(534,610,l,{
"Letterink-NibData" = {
AngleInDegrees = 90;
};
}),
(869,610,l),
(869,686,l,{
"Letterink-NibData" = {
AngleInDegrees = 270;
};
}),
(425,686,l,{
"Letterink-NibData" = {
AngleInDegrees = 208.5766;
};
}),
(102,93,ls,{
"Letterink-NibData" = {
AngleInDegrees = 209.0546;
};
}),
(92,75,o),
(83,67,o),
(68,67,cs,{
"Letterink-NibData" = {
AngleInDegrees = 270;
};
}),
(57,67,o),
(45,72,o),
(35,86,c,{
"Letterink-NibData" = {
AngleInDegrees = 220.6013;
};
}),
(-13,30,l,{
"Letterink-NibData" = {
AngleInDegrees = 145.7843;
};
}),
(4,5,o),
(35,-12,o),
(76,-12,cs,{
"Letterink-NibData" = {
AngleInDegrees = 90;
};
})
);
},
{
closed = 1;
nodes = (
(431,537,l,{
"Letterink-NibData" = {
AngleInDegrees = 23.19859;
};
}),
(452,586,l,{
"Letterink-NibData" = {
AngleInDegrees = 180;
};
}),
(452,296,l,{
"Letterink-NibData" = {
AngleInDegrees = 270;
};
}),
(299,296,l,{
"Letterink-NibData" = {
AngleInDegrees = 28.71031;
};
})
);
}
);
width = 931;
}
);
unicode = 198;
userData = {
position = 422;
width = 61;
};
},
{
glyphname = AE.ss01;
kernLeft = Atext;
kernRight = E;
layers = (
{
anchors = (
{
name = bottom;
pos = (475,0);
},
{
name = top;
pos = (486,673);
}
);
layerId = "0CAF3BED-C4AC-4024-B3E1-4C69D1EF7EC0";
shapes = (
{
closed = 1;
nodes = (
(101,1,l,{
"Letterink-NibData" = {
AngleInDegrees = 28.81079;
};
}),
(235,252,l,{
"Letterink-NibData" = {
AngleInDegrees = 90;
};
}),
(182,210,l,{
"Letterink-NibData" = {
AngleInDegrees = 90;
};
}),
(451,210,l,{
"Letterink-NibData" = {
AngleInDegrees = 180;
};
}),
(415,256,l,{
"Letterink-NibData" = {
AngleInDegrees = 180;
};
}),
(415,-1,l,{
"Letterink-NibData" = {
AngleInDegrees = 90;
};
}),
(842,-1,l),
(842,75,l,{
"Letterink-NibData" = {
AngleInDegrees = 270;
};
}),
(497,75,l),
(497,325,l,{
"Letterink-NibData" = {
AngleInDegrees = 90;
};
}),
(724,325,l),
(724,401,l,{
"Letterink-NibData" = {
AngleInDegrees = 270;
};
}),
(497,401,l),
(497,610,l,{
"Letterink-NibData" = {
AngleInDegrees = 90;
};
}),
(822,610,l),
(822,686,l,{
"Letterink-NibData" = {
AngleInDegrees = 270;
};
}),
(398,686,l,{
"Letterink-NibData" = {
AngleInDegrees = 209.70894;
};
}),
(11,0,l,{
"Letterink-NibData" = {
AngleInDegrees = 89.3704;
};
})
);
},
{
closed = 1;
nodes = (
(451,286,l,{
"Letterink-NibData" = {
AngleInDegrees = 270;
};
}),
(220,286,l,{
"Letterink-NibData" = {
AngleInDegrees = 28.68615;
};
}),
(239,264,l,{
"Letterink-NibData" = {
AngleInDegrees = 28.68615;
};
}),
(401,561,l,{
"Letterink-NibData" = {
AngleInDegrees = 23.62938;
};
}),
(415,593,l,{
"Letterink-NibData" = {
AngleInDegrees = 180;
};
}),
(415,260,l,{
"Letterink-NibData" = {
AngleInDegrees = 270;
};
})
);
}
);
width = 865;
},
{
anchors = (
{
name = bottom;
pos = (450,0);
},
{
name = top;
pos = (523,684);
}
);
layerId = "49C16FD3-6177-408B-A733-AEB3898BB77C";
shapes = (
{
closed = 1;
nodes = (
(61,1,l,{
"Letterink-NibData" = {
AngleInDegrees = 28.2127;
};
}),
(194,250,l,{
"Letterink-NibData" = {
AngleInDegrees = 90;
};
}),
(160,236,l,{
"Letterink-NibData" = {
AngleInDegrees = 90;
};
}),
(422,236,l,{
"Letterink-NibData" = {
AngleInDegrees = 180;
};
}),
(406,252,l,{
"Letterink-NibData" = {
AngleInDegrees = 180;
};
}),
(406,1,l,{
"Letterink-NibData" = {
AngleInDegrees = 90;
};
}),
(826,1,l),
(826,37,l,{
"Letterink-NibData" = {
AngleInDegrees = 270;
};
}),
(443,37,l),
(443,346,l,{
"Letterink-NibData" = {
AngleInDegrees = 90;
};
}),
(703,346,l),
(703,382,l,{
"Letterink-NibData" = {
AngleInDegrees = 270;
};
}),
(443,382,l),
(443,649,l,{
"Letterink-NibData" = {
AngleInDegrees = 90;
};
}),
(806,649,l),
(806,685,l,{
"Letterink-NibData" = {
AngleInDegrees = 270;
};
}),
(390,685,l,{
"Letterink-NibData" = {
AngleInDegrees = 208.86222;
};
}),
(19,1,l,{
"Letterink-NibData" = {
AngleInDegrees = 90;
};
})
);
},
{
closed = 1;
nodes = (
(422,272,l,{
"Letterink-NibData" = {
AngleInDegrees = 270;
};
}),
(176,272,l,{
"Letterink-NibData" = {
AngleInDegrees = 28.9193;
};
}),
(199,257,l,{
"Letterink-NibData" = {
AngleInDegrees = 28.9193;
};
}),
(383,601,l,{
"Letterink-NibData" = {
AngleInDegrees = 32.55;
};
}),
(406,650,l,{
"Letterink-NibData" = {
AngleInDegrees = 180;
};
}),
(406,256,l,{
"Letterink-NibData" = {
AngleInDegrees = 270;
};
})
);
}
);
width = 851;
},
{
anchors = (
{
name = bottom;
pos = (433,0);
},
{
name = top;
pos = (531,684);
}
);
layerId = m004;
shapes = (
{
closed = 1;
nodes = (
(188,1,l,{
"Letterink-NibData" = {
AngleInDegrees = "28.81079";
};
}),
(326,256,l,{
"Letterink-NibData" = {
AngleInDegrees = "90";
};
}),
(234,146,l,{
"Letterink-NibData" = {
AngleInDegrees = "90";
};
}),
(503,146,l,{
"Letterink-NibData" = {
AngleInDegrees = "180";
};
}),
(433,264,l,{
"Letterink-NibData" = {
AngleInDegrees = "180";
};
}),
(433,0,l,{
"Letterink-NibData" = {
AngleInDegrees = "90";
};
}),
(897,0,l),
(897,148,l,{
"Letterink-NibData" = {
AngleInDegrees = "270";
};
}),
(598,148,l),
(598,281,l,{
"Letterink-NibData" = {
AngleInDegrees = "90";
};
}),
(787,281,l),
(787,419,l,{
"Letterink-NibData" = {
AngleInDegrees = "270";
};
}),
(598,419,l),
(598,536,l,{
"Letterink-NibData" = {
AngleInDegrees = "90";
};
}),
(877,536,l),
(877,684,l,{
"Letterink-NibData" = {
AngleInDegrees = "270";
};
}),
(378,684,l,{
"Letterink-NibData" = {
AngleInDegrees = "209.70894";
};
}),
(5,0,l,{
"Letterink-NibData" = {
AngleInDegrees = "89.3704";
};
})
);
},
{
closed = 1;
nodes = (
(503,284,l,{
"Letterink-NibData" = {
AngleInDegrees = "270";
};
}),
(315,284,l,{
"Letterink-NibData" = {
AngleInDegrees = "28.68615";
};
}),
(352,279,l,{
"Letterink-NibData" = {
AngleInDegrees = "28.68615";
};
}),
(434,488,l,{
"Letterink-NibData" = {
AngleInDegrees = "23.62938";
};
}),
(433,449,l,{
"Letterink-NibData" = {
AngleInDegrees = "180";
};
}),
(433,275,l,{
"Letterink-NibData" = {
AngleInDegrees = "270";
};
})
);
}
);
width = 928;
}
);
metricLeft = A.ss01;
metricRight = E;
userData = {
position = 422;
width = 61;
};
},
{
glyphname = AE.swsh;
kernLeft = A;
kernRight = E;
layers = (
{
anchors = (
{
name = bottom;
pos = (562,0);
},
{
name = top;
pos = (573,673);
}
);
hints = (
{
name = _corner.caps_swash_diag;
options = 1;
origin = (0,12);
scale = (-1,1);
type = Corner;
},
{
name = _corner.caps_swash.big;
origin = (2,2);
type = Corner;
}
);
layerId = "0CAF3BED-C4AC-4024-B3E1-4C69D1EF7EC0";
shapes = (
{
closed = 1;
nodes = (
(939,-1,l),
(939,75,l,{
"Letterink-NibData" = {
AngleInDegrees = 270;
};
}),
(584,75,l),
(584,325,l,{
"Letterink-NibData" = {
AngleInDegrees = 90;
};
}),
(821,325,l),
(821,401,l,{
"Letterink-NibData" = {
AngleInDegrees = 270;
};
}),
(584,401,l),
(584,610,l,{
"Letterink-NibData" = {
AngleInDegrees = 90;
};
}),
(919,610,l),
(919,686,l,{
"Letterink-NibData" = {
AngleInDegrees = 270;
};
}),
(475,686,l,{
"Letterink-NibData" = {
AngleInDegrees = 208.5766;
};
}),
(167,94,l,{
"Letterink-NibData" = {
AngleInDegrees = 209.0546;
};
}),
(240,56,l,{
"Letterink-NibData" = {
AngleInDegrees = 26.8249;
};
}),
(331,252,l,{
"Letterink-NibData" = {
AngleInDegrees = 90;
};
}),
(279,210,l,{
"Letterink-NibData" = {
AngleInDegrees = 90;
};
}),
(538,210,l,{
"Letterink-NibData" = {
AngleInDegrees = 180;
};
}),
(502,256,l,{
"Letterink-NibData" = {
AngleInDegrees = 180;
};
}),
(502,-1,l,{
"Letterink-NibData" = {
AngleInDegrees = 90;
};
})
);
},
{
closed = 1;
nodes = (
(538,286,l,{
"Letterink-NibData" = {
AngleInDegrees = 270;
};
}),
(323,286,l,{
"Letterink-NibData" = {
AngleInDegrees = 28.71031;
};
}),
(342,264,l,{
"Letterink-NibData" = {
AngleInDegrees = 28.71031;
};
}),
(486,537,l,{
"Letterink-NibData" = {
AngleInDegrees = 23.19859;
};
}),
(502,586,l,{
"Letterink-NibData" = {
AngleInDegrees = 180;
};
}),
(502,260,l,{
"Letterink-NibData" = {
AngleInDegrees = 270;
};
})
);
},
{
closed = 1;
nodes = (
(478,609,l),
(478,685,l,{
"Letterink-NibData" = {
AngleInDegrees = "270";
};
}),
(325,685,l,{
"Letterink-NibData" = {
AngleInDegrees = "180";
};
}),
(325,609,l,{
"Letterink-NibData" = {
AngleInDegrees = "90";
};
})
);
}
);
width = 962;
},
{
anchors = (
{
name = bottom;
pos = (590,0);
},
{
name = top;
pos = (598,694);
}
);
hints = (
{
name = _corner.caps_swash_diag;
options = 1;
origin = (0,12);
scale = (-1,1);
type = Corner;
},
{
name = _corner.caps_swash.big;
origin = (2,2);
type = Corner;
}
);
layerId = "49C16FD3-6177-408B-A733-AEB3898BB77C";
shapes = (
{
closed = 1;
nodes = (
(962,1,l),
(962,37,l,{
"Letterink-NibData" = {
AngleInDegrees = 270;
};
}),
(583,37,l),
(583,346,l,{
"Letterink-NibData" = {
AngleInDegrees = 90;
};
}),
(839,346,l),
(839,382,l,{
"Letterink-NibData" = {
AngleInDegrees = 270;
};
}),
(583,382,l),
(583,649,l,{
"Letterink-NibData" = {
AngleInDegrees = 90;
};
}),
(942,649,l),
(942,685,l,{
"Letterink-NibData" = {
AngleInDegrees = 270;
};
}),
(525,685,l,{
"Letterink-NibData" = {
AngleInDegrees = 208.82166;
};
}),
(177,65,l,{
"Letterink-NibData" = {
AngleInDegrees = 213.69007;
};
}),
(211,48,l,{
"Letterink-NibData" = {
AngleInDegrees = 29.29136;
};
}),
(326,249,l,{
"Letterink-NibData" = {
AngleInDegrees = 90;
};
}),
(298,237,l,{
"Letterink-NibData" = {
AngleInDegrees = 90;
};
}),
(561,237,l,{
"Letterink-NibData" = {
AngleInDegrees = 180;
};
}),
(545,253,l,{
"Letterink-NibData" = {
AngleInDegrees = 180;
};
}),
(545,1,l,{
"Letterink-NibData" = {
AngleInDegrees = 90;
};
})
);
},
{
closed = 1;
nodes = (
(561,273,l,{
"Letterink-NibData" = {
AngleInDegrees = 270;
};
}),
(316,273,l,{
"Letterink-NibData" = {
AngleInDegrees = 28.59795;
};
}),
(329,259,l,{
"Letterink-NibData" = {
AngleInDegrees = 28.59795;
};
}),
(518,600,l,{
"Letterink-NibData" = {
AngleInDegrees = 27.32389;
};
}),
(544,650,l,{
"Letterink-NibData" = {
AngleInDegrees = 179.84962;
};
}),
(545,257,l,{
"Letterink-NibData" = {
AngleInDegrees = 270;
};
})
);
},
{
closed = 1;
nodes = (
(525,648,l),
(525,684,l,{
"Letterink-NibData" = {
AngleInDegrees = "270";
};
}),
(382,684,l,{
"Letterink-NibData" = {
AngleInDegrees = "180";
};
}),
(382,648,l,{
"Letterink-NibData" = {
AngleInDegrees = "90";
};
})
);
}
);
width = 985;
},
{
anchors = (
{
name = bottom;
pos = (533,0);
},
{
name = top;
pos = (541,692);
}
);
associatedMasterId = "49C16FD3-6177-408B-A733-AEB3898BB77C";
layerId = "C1A3D0A8-503D-4B78-876F-381CB7337013";
name = "11 Jan 22, 13:13";
shapes = (
{
closed = 1;
nodes = (
(124,-2,o),
(136,26,o),
(167,71,c,{
"Letterink-NibData" = {
AngleInDegrees = 29.29136;
};
}),
(259,235,l,{
"Letterink-NibData" = {
AngleInDegrees = 90;
};
}),
(487,235,l,{
"Letterink-NibData" = {
AngleInDegrees = 180;
};
}),
(487,1,l,{
"Letterink-NibData" = {
AngleInDegrees = 90;
};
}),
(906,1,l),
(906,41,l,{
"Letterink-NibData" = {
AngleInDegrees = 270;
};
}),
(529,41,l),
(529,344,l,{
"Letterink-NibData" = {
AngleInDegrees = 90;
};
}),
(783,344,l),
(783,384,l,{
"Letterink-NibData" = {
AngleInDegrees = 270;
};
}),
(529,384,l),
(529,645,l,{
"Letterink-NibData" = {
AngleInDegrees = 90;
};
}),
(886,645,l),
(886,685,l,{
"Letterink-NibData" = {
AngleInDegrees = 270;
};
}),
(459,685,l,{
"Letterink-NibData" = {
AngleInDegrees = 208.82166;
};
}),
(125,78,l,{
"Letterink-NibData" = {
AngleInDegrees = 213.69007;
};
}),
(111,57,o),
(102,38,o),
(78,38,cs,{
"Letterink-NibData" = {
AngleInDegrees = 270;
};
}),
(64,38,o),
(47,47,o),
(39,56,c,{
"Letterink-NibData" = {
AngleInDegrees = 244.0577;
};
}),
(2,38,l,{
"Letterink-NibData" = {
AngleInDegrees = 146.82149;
};
}),
(19,12,o),
(46,-2,o),
(77,-2,cs,{
"Letterink-NibData" = {
AngleInDegrees = 90;
};
})
);
},
{
closed = 1;
nodes = (
(455,596,l,{
"Letterink-NibData" = {
AngleInDegrees = 27.32389;
};
}),
(486,656,l,{
"Letterink-NibData" = {
AngleInDegrees = 179.84962;
};
}),
(487,275,l,{
"Letterink-NibData" = {
AngleInDegrees = 270;
};
}),
(280,275,l,{
"Letterink-NibData" = {
AngleInDegrees = 28.59795;
};
})
);
}
);
width = 951;
},
{
anchors = (
{
name = bottom;
pos = (523,0);
},
{
name = top;
pos = (534,673);
}
);
associatedMasterId = "0CAF3BED-C4AC-4024-B3E1-4C69D1EF7EC0";
layerId = "8D16C2AC-4E99-48C9-ADA3-C168C353B72B";
name = "11 Jan 22, 13:30";
shapes = (
{
closed = 1;
nodes = (
(122,-12,o),
(159,8,o),
(177,44,cs,{
"Letterink-NibData" = {
AngleInDegrees = 26.8249;
};
}),
(266,220,l,{
"Letterink-NibData" = {
AngleInDegrees = 90;
};
}),
(463,220,l,{
"Letterink-NibData" = {
AngleInDegrees = 180;
};
}),
(463,-1,l,{
"Letterink-NibData" = {
AngleInDegrees = 90;
};
}),
(900,-1,l),
(900,75,l,{
"Letterink-NibData" = {
AngleInDegrees = 270;
};
}),
(545,75,l),
(545,325,l,{
"Letterink-NibData" = {
AngleInDegrees = 90;
};
}),
(782,325,l),
(782,401,l,{
"Letterink-NibData" = {
AngleInDegrees = 270;
};
}),
(545,401,l),
(545,610,l,{
"Letterink-NibData" = {
AngleInDegrees = 90;
};
}),
(880,610,l),
(880,686,l,{
"Letterink-NibData" = {
AngleInDegrees = 270;
};
}),
(436,686,l,{
"Letterink-NibData" = {
AngleInDegrees = 208.5766;
};
}),
(113,93,ls,{
"Letterink-NibData" = {
AngleInDegrees = 209.0546;
};
}),
(103,75,o),
(94,67,o),
(79,67,cs,{
"Letterink-NibData" = {
AngleInDegrees = 270;
};
}),
(68,67,o),
(56,72,o),
(46,86,c,{
"Letterink-NibData" = {
AngleInDegrees = 220.6013;
};
}),
(-2,30,l,{
"Letterink-NibData" = {
AngleInDegrees = 145.7843;
};
}),
(15,5,o),
(46,-12,o),
(87,-12,cs,{
"Letterink-NibData" = {
AngleInDegrees = 90;
};
})
);
},
{
closed = 1;
nodes = (
(442,537,l,{
"Letterink-NibData" = {
AngleInDegrees = 23.19859;
};
}),
(463,586,l,{
"Letterink-NibData" = {
AngleInDegrees = 180;
};
}),
(463,296,l,{
"Letterink-NibData" = {
AngleInDegrees = 270;
};
}),
(310,296,l,{
"Letterink-NibData" = {
AngleInDegrees = 28.71031;
};
})
);
}
);
width = 942;
},
{
anchors = (
{
name = bottom;
pos = (566,0);
},
{
name = top;
pos = (698,673);
}
);
hints = (
{
name = _corner.caps_swash_diag;
options = 1;
origin = (0,12);
scale = (-1,1);
type = Corner;
},
{
name = _corner.caps_swash.big;
origin = (2,2);
type = Corner;
}
);
layerId = m004;
shapes = (
{
closed = 1;
nodes = (
(1030,0,l),
(1030,148,l,{
"Letterink-NibData" = {
AngleInDegrees = "270";
};
}),
(731,148,l),
(731,291,l,{
"Letterink-NibData" = {
AngleInDegrees = "90";
};
}),
(920,291,l),
(920,429,l,{
"Letterink-NibData" = {
AngleInDegrees = "270";
};
}),
(731,429,l),
(731,536,l,{
"Letterink-NibData" = {
AngleInDegrees = "90";
};
}),
(1010,536,l),
(1010,684,l,{
"Letterink-NibData" = {
AngleInDegrees = "270";
};
}),
(506,684,l,{
"Letterink-NibData" = {
AngleInDegrees = "209.70894";
};
}),
(229,150,l,{
"Letterink-NibData" = {
AngleInDegrees = "89.3704";
};
}),
(367,69,l,{
"Letterink-NibData" = {
AngleInDegrees = "28.81079";
};
}),
(459,256,l,{
"Letterink-NibData" = {
AngleInDegrees = "90";
};
}),
(367,146,l,{
"Letterink-NibData" = {
AngleInDegrees = "90";
};
}),
(636,146,l,{
"Letterink-NibData" = {
AngleInDegrees = "180";
};
}),
(566,264,l,{
"Letterink-NibData" = {
AngleInDegrees = "180";
};
}),
(566,0,l,{
"Letterink-NibData" = {
AngleInDegrees = "90";
};
})
);
},
{
closed = 1;
nodes = (
(636,284,l,{
"Letterink-NibData" = {
AngleInDegrees = "270";
};
}),
(448,284,l,{
"Letterink-NibData" = {
AngleInDegrees = "28.68615";
};
}),
(485,279,l,{
"Letterink-NibData" = {
AngleInDegrees = "28.68615";
};
}),
(568,488,l,{
"Letterink-NibData" = {
AngleInDegrees = "23.62938";
};
}),
(566,449,l,{
"Letterink-NibData" = {
AngleInDegrees = "180";
};
}),
(566,275,l,{
"Letterink-NibData" = {
AngleInDegrees = "270";
};
})
);
},
{
closed = 1;
nodes = (
(575,536,l),
(575,684,l,{
"Letterink-NibData" = {
AngleInDegrees = "270";
};
}),
(353,684,l,{
"Letterink-NibData" = {
AngleInDegrees = "180";
};
}),
(354,535,l)
);
}
);
width = 1058;
},
{
anchors = (
{
name = bottom;
pos = (512,0);
},
{
name = top;
pos = (523,673);
}
);
associatedMasterId = m004;
layerId = "80EF8790-0869-49FF-90A7-EBAC34F5F575";
name = "11 Jan 22, 13:30";
shapes = (
{
closed = 1;
nodes = (
(111,-12,o),
(148,8,o),
(166,44,cs,{
"Letterink-NibData" = {
AngleInDegrees = 26.8249;
};
}),
(255,220,l,{
"Letterink-NibData" = {
AngleInDegrees = 90;
};
}),
(452,220,l,{
"Letterink-NibData" = {
AngleInDegrees = 180;
};
}),
(452,-1,l,{
"Letterink-NibData" = {
AngleInDegrees = 90;
};
}),
(889,-1,l),
(889,75,l,{
"Letterink-NibData" = {
AngleInDegrees = 270;
};
}),
(534,75,l),
(534,325,l,{
"Letterink-NibData" = {
AngleInDegrees = 90;
};
}),
(771,325,l),
(771,401,l,{
"Letterink-NibData" = {
AngleInDegrees = 270;
};
}),
(534,401,l),
(534,610,l,{
"Letterink-NibData" = {
AngleInDegrees = 90;
};
}),
(869,610,l),
(869,686,l,{
"Letterink-NibData" = {
AngleInDegrees = 270;
};
}),
(425,686,l,{
"Letterink-NibData" = {
AngleInDegrees = 208.5766;
};
}),
(102,93,ls,{
"Letterink-NibData" = {
AngleInDegrees = 209.0546;
};
}),
(92,75,o),
(83,67,o),
(68,67,cs,{
"Letterink-NibData" = {
AngleInDegrees = 270;
};
}),
(57,67,o),
(45,72,o),
(35,86,c,{
"Letterink-NibData" = {
AngleInDegrees = 220.6013;
};
}),
(-13,30,l,{
"Letterink-NibData" = {
AngleInDegrees = 145.7843;
};
}),
(4,5,o),
(35,-12,o),
(76,-12,cs,{
"Letterink-NibData" = {
AngleInDegrees = 90;
};
})
);
},
{
closed = 1;
nodes = (
(431,537,l,{
"Letterink-NibData" = {
AngleInDegrees = 23.19859;
};
}),
(452,586,l,{
"Letterink-NibData" = {
AngleInDegrees = 180;
};
}),
(452,296,l,{
"Letterink-NibData" = {
AngleInDegrees = 270;
};
}),
(299,296,l,{
"Letterink-NibData" = {
AngleInDegrees = 28.71031;
};
})
);
}
);
width = 931;
}
);
metricLeft = A.swsh;
userData = {
position = 422;
width = 61;
};
},
{
glyphname = B;
kernLeft = E;
kernRight = B;
layers = (
{
anchors = (
{
name = bottom;
pos = (348,0);
},
{
name = center;
pos = (358,368);
},
{
name = top;
pos = (348,684);
}
);
hints = (
{
name = _corner.caps_left;
origin = (0,18);
type = Corner;
}
);
layerId = "0CAF3BED-C4AC-4024-B3E1-4C69D1EF7EC0";
shapes = (
{
closed = 1;
nodes = (
(518,-10,o),
(611,63,o),
(611,190,cs),
(611,269,o),
(576,322,o),
(522,350,cs),
(506,359,o),
(488,367,o),
(469,370,c,{
"Letterink-NibData" = {
AngleInDegrees = 71.56505;
};
}),
(484,373,o),
(503,380,o),
(521,392,cs),
(552,411,o),
(581,446,o),
(581,511,cs),
(581,617,o),
(501,684,o),
(373,684,cs,{
"Letterink-NibData" = {
AngleInDegrees = 270;
};
}),
(147,684,l,{
"Letterink-NibData" = {
AngleInDegrees = 180;
};
}),
(147,608,l,{
"Letterink-NibData" = {
AngleInDegrees = 90;
};
}),
(374,608,l,{
"Letterink-NibData" = {
AngleInDegrees = 93.91825;
};
}),
(457,608,o),
(499,568,o),
(499,508,cs,{
"Letterink-NibData" = {
AngleInDegrees = 180;
};
}),
(499,443,o),
(450,401,o),
(372,401,cs,{
"Letterink-NibData" = {
AngleInDegrees = 270;
};
}),
(187,401,l,{
"Letterink-NibData" = {
AngleInDegrees = 180;
};
}),
(187,325,l,{
"Letterink-NibData" = {
AngleInDegrees = 90;
};
}),
(379,324,ls,{
"Letterink-NibData" = {
AngleInDegrees = 90;
};
}),
(472,324,o),
(530,273,o),
(530,188,cs,{
"Letterink-NibData" = {
AngleInDegrees = 180;
};
}),
(530,102,o),
(471,66,o),
(346,64,cs,{
"Letterink-NibData" = {
AngleInDegrees = 270;
};
}),
(310,63,o),
(267,65,o),
(229,71,c),
(229,642,l,{
"Letterink-NibData" = {
AngleInDegrees = 270;
};
}),
(147,642,l,{
"Letterink-NibData" = {
AngleInDegrees = 180;
};
}),
(147,2,l,{
"Letterink-NibData" = {
AngleInDegrees = 96.54629;
};
}),
(223,-7,o),
(257,-10,o),
(333,-10,cs,{
"Letterink-NibData" = {
AngleInDegrees = 90;
};
})
);
}
);
width = 649;
},
{
anchors = (
{
name = bottom;
pos = (325,-2);
},
{
name = center;
pos = (342,367);
},
{
name = top;
pos = (325,684);
}
);
hints = (
{
name = _corner.caps_left;
origin = (0,18);
type = Corner;
}
);
layerId = "49C16FD3-6177-408B-A733-AEB3898BB77C";
shapes = (
{
closed = 1;
nodes = (
(459,-9,o),
(582,43,o),
(582,181,cs),
(582,254,o),
(545,315,o),
(475,349,cs,{
"Letterink-NibData" = {
AngleInDegrees = 305.53768;
};
}),
(464,354,o),
(440,361,o),
(412,366,c,{
"Letterink-NibData" = {
AngleInDegrees = 75.67728;
};
}),
(442,373,o),
(461,375,o),
(490,398,cs,{
"Letterink-NibData" = {
AngleInDegrees = 53.1301;
};
}),
(520,422,o),
(549,453,o),
(549,515,cs),
(549,633,o),
(456,684,o),
(352,684,cs,{
"Letterink-NibData" = {
AngleInDegrees = 270;
};
}),
(139,684,l,{
"Letterink-NibData" = {
AngleInDegrees = 180;
};
}),
(139,648,l,{
"Letterink-NibData" = {
AngleInDegrees = 90;
};
}),
(368,648,l,{
"Letterink-NibData" = {
AngleInDegrees = 93.81407;
};
}),
(459,648,o),
(510,598,o),
(510,519,cs,{
"Letterink-NibData" = {
AngleInDegrees = 180;
};
}),
(510,425,o),
(438,382,o),
(351,382,cs,{
"Letterink-NibData" = {
AngleInDegrees = 270;
};
}),
(165,382,l,{
"Letterink-NibData" = {
AngleInDegrees = 180;
};
}),
(165,346,l,{
"Letterink-NibData" = {
AngleInDegrees = 90;
};
}),
(358,346,ls,{
"Letterink-NibData" = {
AngleInDegrees = 90;
};
}),
(478,346,o),
(544,271,o),
(544,181,cs,{
"Letterink-NibData" = {
AngleInDegrees = 180;
};
}),
(544,78,o),
(460,26,o),
(344,26,cs,{
"Letterink-NibData" = {
AngleInDegrees = 270;
};
}),
(336,26,o),
(226,26,o),
(177,32,c),
(177,654,l,{
"Letterink-NibData" = {
AngleInDegrees = 270;
};
}),
(136,654,l,{
"Letterink-NibData" = {
AngleInDegrees = 90;
};
}),
(140,3,l,{
"Letterink-NibData" = {
AngleInDegrees = 98.65254;
};
}),
(226,-11,o),
(275,-9,o),
(351,-9,cs,{
"Letterink-NibData" = {
AngleInDegrees = 90;
};
})
);
}
);
width = 623;
},
{
anchors = (
{
name = bottom;
pos = (412,-2);
},
{
name = center;
pos = (412,356);
},
{
name = top;
pos = (407,684);
}
);
hints = (
{
name = _corner.caps_left;
origin = (0,18);
type = Corner;
}
);
layerId = m004;
shapes = (
{
closed = 1;
nodes = (
(549,-12,o),
(680,38,o),
(680,195,cs),
(680,254,o),
(647,313,o),
(602,339,cs),
(572,356,o),
(556,361,o),
(533,365,c,{
"Letterink-NibData" = {
AngleInDegrees = 77.90524;
};
}),
(560,369,o),
(576,377,o),
(595,391,cs,{
"Letterink-NibData" = {
AngleInDegrees = "63.90458";
};
}),
(643,426,o),
(658,471,o),
(658,520,cs),
(658,617,o),
(574,684,o),
(441,684,cs,{
"Letterink-NibData" = {
AngleInDegrees = "270";
};
}),
(187,684,l,{
"Letterink-NibData" = {
AngleInDegrees = "180";
};
}),
(187,536,l),
(441,536,ls,{
"Letterink-NibData" = {
AngleInDegrees = "90";
};
}),
(476,536,o),
(497,513,o),
(497,485,cs,{
"Letterink-NibData" = {
AngleInDegrees = "180";
};
}),
(497,451,o),
(474,424,o),
(447,424,cs,{
"Letterink-NibData" = {
AngleInDegrees = "269.3338";
};
}),
(322,424,l,{
"Letterink-NibData" = {
AngleInDegrees = "180.77422";
};
}),
(322,289,l,{
"Letterink-NibData" = {
AngleInDegrees = "90";
};
}),
(438,289,ls,{
"Letterink-NibData" = {
AngleInDegrees = "90";
};
}),
(486,289,o),
(525,258,o),
(525,211,cs,{
"Letterink-NibData" = {
AngleInDegrees = "180";
};
}),
(525,158,o),
(488,132,o),
(414,132,cs,{
"Letterink-NibData" = {
AngleInDegrees = "270";
};
}),
(391,132,o),
(377,133,o),
(352,137,c),
(352,551,l,{
"Letterink-NibData" = {
AngleInDegrees = "90";
};
}),
(187,552,l),
(187,6,l,{
"Letterink-NibData" = {
AngleInDegrees = 96.4416;
};
}),
(277,-11,o),
(326,-13,o),
(392,-13,cs)
);
}
);
width = 708;
}
);
metricLeft = E;
unicode = 66;
userData = {
position = 514;
width = 59;
};
},
{
glyphname = B.ss01;
kernLeft = L;
kernRight = B;
layers = (
{
anchors = (
{
name = bottom;
pos = (277,0);
},
{
name = center;
pos = (287,370);
},
{
name = top;
pos = (277,684);
}
);
layerId = "0CAF3BED-C4AC-4024-B3E1-4C69D1EF7EC0";
shapes = (
{
closed = 1;
nodes = (
(447,-10,o),
(540,63,o),
(540,190,cs),
(540,264,o),
(509,318,o),
(459,348,cs,{
"Letterink-NibData" = {
AngleInDegrees = 300.96376;
};
}),
(432,364,o),
(400,368,o),
(388,370,c,{
"Letterink-NibData" = {
AngleInDegrees = 71.56505;
};
}),
(402,372,o),
(422,375,o),
(442,385,cs,{
"Letterink-NibData" = {
AngleInDegrees = 63.43495;
};
}),
(486,407,o),
(510,453,o),
(510,511,cs),
(510,617,o),
(430,684,o),
(302,684,cs,{
"Letterink-NibData" = {
AngleInDegrees = 270;
};
}),
(76,684,l,{
"Letterink-NibData" = {
AngleInDegrees = 180;
};
}),
(76,606,l,{
"Letterink-NibData" = {
AngleInDegrees = 90;
};
}),
(303,606,l,{
"Letterink-NibData" = {
AngleInDegrees = 93.91825;
};
}),
(386,601,o),
(428,568,o),
(428,508,cs,{
"Letterink-NibData" = {
AngleInDegrees = 180;
};
}),
(428,443,o),
(379,401,o),
(301,401,cs,{
"Letterink-NibData" = {
AngleInDegrees = 270;
};
}),
(116,401,l,{
"Letterink-NibData" = {
AngleInDegrees = 180;
};
}),
(116,325,l,{
"Letterink-NibData" = {
AngleInDegrees = 90;
};
}),
(308,324,ls,{
"Letterink-NibData" = {
AngleInDegrees = 90;
};
}),
(401,324,o),
(459,273,o),
(459,188,cs,{
"Letterink-NibData" = {
AngleInDegrees = 180;
};
}),
(459,102,o),
(400,66,o),
(275,64,cs,{
"Letterink-NibData" = {
AngleInDegrees = 270;
};
}),
(239,63,o),
(196,65,o),
(158,71,c),
(158,642,l,{
"Letterink-NibData" = {
AngleInDegrees = 270;
};
}),
(76,642,l,{
"Letterink-NibData" = {
AngleInDegrees = 180;
};
}),
(76,2,l,{
"Letterink-NibData" = {
AngleInDegrees = 96.54629;
};
}),
(146,-7,o),
(182,-10,o),
(262,-10,cs,{
"Letterink-NibData" = {
AngleInDegrees = 90;
};
})
);
}
);
width = 578;
},
{
anchors = (
{
name = bottom;
pos = (273,0);
},
{
name = center;
pos = (267,363);
},
{
name = top;
pos = (273,684);
}
);
layerId = "49C16FD3-6177-408B-A733-AEB3898BB77C";
shapes = (
{
closed = 1;
nodes = (
(442,-9,o),
(530,58,o),
(530,177,cs),
(530,256,o),
(491,317,o),
(433,346,cs,{
"Letterink-NibData" = {
AngleInDegrees = 305.53768;
};
}),
(411,356,o),
(385,361,o),
(360,365,c,{
"Letterink-NibData" = {
AngleInDegrees = 75.67728;
};
}),
(388,369,o),
(417,380,o),
(446,403,cs,{
"Letterink-NibData" = {
AngleInDegrees = 53.1301;
};
}),
(480,430,o),
(497,467,o),
(497,516,cs),
(497,619,o),
(421,684,o),
(300,684,cs,{
"Letterink-NibData" = {
AngleInDegrees = 270;
};
}),
(84,684,l,{
"Letterink-NibData" = {
AngleInDegrees = 180;
};
}),
(84,648,l,{
"Letterink-NibData" = {
AngleInDegrees = 90;
};
}),
(316,648,l,{
"Letterink-NibData" = {
AngleInDegrees = 93.81407;
};
}),
(409,641,o),
(458,596,o),
(458,520,cs,{
"Letterink-NibData" = {
AngleInDegrees = 180;
};
}),
(458,435,o),
(397,382,o),
(299,382,cs,{
"Letterink-NibData" = {
AngleInDegrees = 270;
};
}),
(117,382,l,{
"Letterink-NibData" = {
AngleInDegrees = 180;
};
}),
(117,347,l,{
"Letterink-NibData" = {
AngleInDegrees = 90;
};
}),
(306,347,ls,{
"Letterink-NibData" = {
AngleInDegrees = 90;
};
}),
(416,347,o),
(492,276,o),
(492,179,cs,{
"Letterink-NibData" = {
AngleInDegrees = 180;
};
}),
(492,63,o),
(416,26,o),
(263,26,cs,{
"Letterink-NibData" = {
AngleInDegrees = 270;
};
}),
(228,26,o),
(151,29,o),
(125,32,c),
(125,654,l,{
"Letterink-NibData" = {
AngleInDegrees = 270;
};
}),
(84,654,l,{
"Letterink-NibData" = {
AngleInDegrees = 90;
};
}),
(85,3,l,{
"Letterink-NibData" = {
AngleInDegrees = 98.65254;
};
}),
(165,-11,o),
(209,-9,o),
(307,-9,cs,{
"Letterink-NibData" = {
AngleInDegrees = 90;
};
})
);
}
);
width = 571;
},
{
anchors = (
{
name = bottom;
pos = (283,0);
},
{
name = center;
pos = (283,356);
},
{
name = top;
pos = (283,684);
}
);
layerId = m004;
shapes = (
{
closed = 1;
nodes = (
(411,-14,o),
(551,31,o),
(551,195,cs),
(551,254,o),
(518,313,o),
(473,339,cs),
(443,356,o),
(427,361,o),
(399,365,c,{
"Letterink-NibData" = {
AngleInDegrees = 77.90524;
};
}),
(431,369,o),
(447,377,o),
(466,391,cs,{
"Letterink-NibData" = {
AngleInDegrees = "63.90458";
};
}),
(514,426,o),
(529,471,o),
(529,520,cs),
(529,617,o),
(445,686,o),
(312,686,cs,{
"Letterink-NibData" = {
AngleInDegrees = "270";
};
}),
(58,686,l,{
"Letterink-NibData" = {
AngleInDegrees = "180";
};
}),
(58,535,l),
(312,536,ls,{
"Letterink-NibData" = {
AngleInDegrees = "90";
};
}),
(347,536,o),
(368,513,o),
(368,485,cs,{
"Letterink-NibData" = {
AngleInDegrees = "180";
};
}),
(368,451,o),
(345,424,o),
(318,424,cs,{
"Letterink-NibData" = {
AngleInDegrees = "269.3338";
};
}),
(193,424,l,{
"Letterink-NibData" = {
AngleInDegrees = "180.77422";
};
}),
(193,289,l,{
"Letterink-NibData" = {
AngleInDegrees = "90";
};
}),
(309,289,ls,{
"Letterink-NibData" = {
AngleInDegrees = "90";
};
}),
(357,289,o),
(396,258,o),
(396,211,cs,{
"Letterink-NibData" = {
AngleInDegrees = "180";
};
}),
(396,158,o),
(359,132,o),
(285,132,cs,{
"Letterink-NibData" = {
AngleInDegrees = "270";
};
}),
(262,132,o),
(248,133,o),
(223,137,c),
(223,551,l,{
"Letterink-NibData" = {
AngleInDegrees = "90";
};
}),
(58,552,l),
(58,6,l,{
"Letterink-NibData" = {
AngleInDegrees = 96.4416;
};
}),
(133,-9,o),
(180,-13,o),
(253,-13,cs)
);
}
);
width = 579;
}
);
metricLeft = N.ss01;
metricRight = B;
userData = {
position = 494;
width = 59;
};
},
{
glyphname = B.swsh;
kernLeft = Swash;
kernRight = B;
layers = (
{
anchors = (
{
name = bottom;
pos = (392,0);
},
{
name = center;
pos = (402,369);
},
{
name = top;
pos = (392,684);
}
);
background = {
hints = (
{
name = _corner.caps_swash;
origin = (0,18);
type = Corner;
}
);
shapes = (
{
closed = 1;
nodes = (
(561,-10,o),
(640,76,o),
(640,187,cs),
(640,254,o),
(612,306,o),
(573,335,cs,{
"Letterink-NibData" = {
AngleInDegrees = 306.46923;
};
}),
(550,352,o),
(511,363,o),
(488,363,c,{
"Letterink-NibData" = {
AngleInDegrees = 78.69007;
};
}),
(508,367,o),
(534,368,o),
(561,393,cs,{
"Letterink-NibData" = {
AngleInDegrees = 47.91084;
};
}),
(592,421,o),
(609,458,o),
(609,506,cs),
(609,621,o),
(520,685,o),
(401,685,cs,{
"Letterink-NibData" = {
AngleInDegrees = 270;
};
}),
(165,685,l,{
"Letterink-NibData" = {
AngleInDegrees = 180;
};
}),
(165,609,l,{
"Letterink-NibData" = {
AngleInDegrees = 90;
};
}),
(414,609,ls,{
"Letterink-NibData" = {
AngleInDegrees = 90;
};
}),
(484,609,o),
(527,571,o),
(527,509,cs,{
"Letterink-NibData" = {
AngleInDegrees = 180;
};
}),
(527,434,o),
(474,401,o),
(400,401,cs,{
"Letterink-NibData" = {
AngleInDegrees = 270;
};
}),
(313,401,l,{
"Letterink-NibData" = {
AngleInDegrees = 180;
};
}),
(313,324,l,{
"Letterink-NibData" = {
AngleInDegrees = 90;
};
}),
(407,324,ls,{
"Letterink-NibData" = {
AngleInDegrees = 90;
};
}),
(488,324,o),
(558,278,o),
(558,191,cs,{
"Letterink-NibData" = {
AngleInDegrees = 180;
};
}),
(558,97,o),
(494,66,o),
(378,66,cs,{
"Letterink-NibData" = {
AngleInDegrees = 270;
};
}),
(359,66,o),
(348,67,o),
(266,71,c),
(266,561,l,{
"Letterink-NibData" = {
AngleInDegrees = 270;
};
}),
(184,561,l,{
"Letterink-NibData" = {
AngleInDegrees = 180;
};
}),
(184,2,l,{
"Letterink-NibData" = {
AngleInDegrees = 96.34019;
};
}),
(247,-5,ls,{
"Letterink-NibData" = {
AngleInDegrees = 97.12502;
};
}),
(271,-8,o),
(325,-10,o),
(372,-10,cs,{
"Letterink-NibData" = {
AngleInDegrees = 90;
};
})
);
}
);
};
hints = (
{
name = _corner.caps_swash;
options = 2;
origin = (0,18);
type = Corner;
}
);
layerId = "0CAF3BED-C4AC-4024-B3E1-4C69D1EF7EC0";
shapes = (
{
closed = 1;
nodes = (
(562,-10,o),
(655,63,o),
(655,190,cs),
(655,264,o),
(624,318,o),
(578,345,cs,{
"Letterink-NibData" = {
AngleInDegrees = "300.96376";
};
}),
(549,363,o),
(515,369,o),
(503,370,c,{
"Letterink-NibData" = {
AngleInDegrees = "71.56505";
};
}),
(516,373,o),
(537,375,o),
(558,386,cs,{
"Letterink-NibData" = {
AngleInDegrees = "63.43495";
};
}),
(601,407,o),
(625,453,o),
(625,511,cs),
(625,617,o),
(545,684,o),
(417,684,cs,{
"Letterink-NibData" = {
AngleInDegrees = "270";
};
}),
(191,684,l,{
"Letterink-NibData" = {
AngleInDegrees = "180";
};
}),
(191,608,l,{
"Letterink-NibData" = {
AngleInDegrees = "90";
};
}),
(418,608,l,{
"Letterink-NibData" = {
AngleInDegrees = "93.91825";
};
}),
(501,603,o),
(543,568,o),
(543,508,cs,{
"Letterink-NibData" = {
AngleInDegrees = "180";
};
}),
(543,443,o),
(494,401,o),
(416,401,cs,{
"Letterink-NibData" = {
AngleInDegrees = "270";
};
}),
(327,401,l,{
"Letterink-NibData" = {
AngleInDegrees = "180";
};
}),
(327,325,l,{
"Letterink-NibData" = {
AngleInDegrees = "90";
};
}),
(423,325,ls,{
"Letterink-NibData" = {
AngleInDegrees = "90";
};
}),
(516,325,o),
(574,273,o),
(574,193,cs,{
"Letterink-NibData" = {
AngleInDegrees = "180";
};
}),
(574,112,o),
(515,66,o),
(386,64,cs,{
"Letterink-NibData" = {
AngleInDegrees = "270";
};
}),
(354,63,o),
(311,65,o),
(273,71,c),
(273,560,l,{
"Letterink-NibData" = {
AngleInDegrees = "270";
};
}),
(191,560,l,{
"Letterink-NibData" = {
AngleInDegrees = "180";
};
}),
(191,2,l,{
"Letterink-NibData" = {
AngleInDegrees = "96.54629";
};
}),
(257,-7,o),
(301,-10,o),
(377,-10,cs,{
"Letterink-NibData" = {
AngleInDegrees = "90";
};
})
);
}
);
width = 693;
},
{
anchors = (
{
name = bottom;
pos = (325,0);
},
{
name = center;
pos = (343,367);
},
{
name = top;
pos = (325,684);
}
);
background = {
hints = (
{
name = _corner.caps_swash;
origin = (0,18);
type = Corner;
}
);
shapes = (
{
closed = 1;
nodes = (
(514,-9,o),
(608,47,o),
(608,178,cs),
(608,266,o),
(566,319,o),
(502,351,cs,{
"Letterink-NibData" = {
AngleInDegrees = 296.56505;
};
}),
(494,355,o),
(463,362,o),
(448,365,c,{
"Letterink-NibData" = {
AngleInDegrees = 80.83765;
};
}),
(479,370,o),
(497,380,o),
(499,381,cs,{
"Letterink-NibData" = {
AngleInDegrees = 63.43495;
};
}),
(549,406,o),
(577,452,o),
(577,514,cs),
(577,620,o),
(486,685,o),
(379,685,cs,{
"Letterink-NibData" = {
AngleInDegrees = 270;
};
}),
(141,685,l,{
"Letterink-NibData" = {
AngleInDegrees = 180;
};
}),
(141,645,l,{
"Letterink-NibData" = {
AngleInDegrees = 90;
};
}),
(393,645,l,{
"Letterink-NibData" = {
AngleInDegrees = 93.40644;
};
}),
(477,640,o),
(534,593,o),
(534,517,cs,{
"Letterink-NibData" = {
AngleInDegrees = 180;
};
}),
(534,425,o),
(464,383,o),
(378,383,cs,{
"Letterink-NibData" = {
AngleInDegrees = 270;
};
}),
(296,383,l,{
"Letterink-NibData" = {
AngleInDegrees = 180;
};
}),
(296,345,l,{
"Letterink-NibData" = {
AngleInDegrees = 90;
};
}),
(385,345,ls,{
"Letterink-NibData" = {
AngleInDegrees = 90;
};
}),
(480,345,o),
(566,289,o),
(566,182,cs,{
"Letterink-NibData" = {
AngleInDegrees = 180;
};
}),
(566,78,o),
(486,29,o),
(353,29,cs,{
"Letterink-NibData" = {
AngleInDegrees = 270;
};
}),
(335,29,o),
(290,31,o),
(214,34,c),
(214,591,l,{
"Letterink-NibData" = {
AngleInDegrees = 270;
};
}),
(172,591,l,{
"Letterink-NibData" = {
AngleInDegrees = 180;
};
}),
(172,1,l,{
"Letterink-NibData" = {
AngleInDegrees = 94.96974;
};
}),
(218,-3,ls,{
"Letterink-NibData" = {
AngleInDegrees = 94.92711;
};
}),
(276,-8,o),
(303,-9,o),
(333,-9,cs,{
"Letterink-NibData" = {
AngleInDegrees = 90;
};
})
);
}
);
};
hints = (
{
name = _corner.caps_swash;
origin = (0,18);
type = Corner;
}
);
layerId = "49C16FD3-6177-408B-A733-AEB3898BB77C";
shapes = (
{
closed = 1;
nodes = (
(532,-9,o),
(620,58,o),
(620,177,cs),
(620,256,o),
(581,319,o),
(522,348,cs,{
"Letterink-NibData" = {
AngleInDegrees = "305.53768";
};
}),
(501,358,o),
(475,363,o),
(450,364,c,{
"Letterink-NibData" = {
AngleInDegrees = "75.67728";
};
}),
(478,371,o),
(507,379,o),
(537,403,cs,{
"Letterink-NibData" = {
AngleInDegrees = "53.1301";
};
}),
(570,430,o),
(587,467,o),
(587,516,cs),
(587,619,o),
(511,684,o),
(390,684,cs,{
"Letterink-NibData" = {
AngleInDegrees = "270";
};
}),
(174,684,l,{
"Letterink-NibData" = {
AngleInDegrees = "180";
};
}),
(174,648,l,{
"Letterink-NibData" = {
AngleInDegrees = "90";
};
}),
(406,648,l,{
"Letterink-NibData" = {
AngleInDegrees = "93.81407";
};
}),
(499,641,o),
(548,596,o),
(548,520,cs,{
"Letterink-NibData" = {
AngleInDegrees = "180";
};
}),
(548,435,o),
(487,382,o),
(389,382,cs,{
"Letterink-NibData" = {
AngleInDegrees = "270";
};
}),
(300,382,l,{
"Letterink-NibData" = {
AngleInDegrees = "180";
};
}),
(300,347,l,{
"Letterink-NibData" = {
AngleInDegrees = "90";
};
}),
(396,347,ls,{
"Letterink-NibData" = {
AngleInDegrees = "90";
};
}),
(498,347,o),
(582,280,o),
(582,183,cs,{
"Letterink-NibData" = {
AngleInDegrees = "180";
};
}),
(582,76,o),
(506,26,o),
(371,26,cs,{
"Letterink-NibData" = {
AngleInDegrees = "270";
};
}),
(319,26,o),
(241,29,o),
(215,32,c),
(215,597,l,{
"Letterink-NibData" = {
AngleInDegrees = "270";
};
}),
(174,597,l,{
"Letterink-NibData" = {
AngleInDegrees = "179.91332";
};
}),
(175,3,l,{
"Letterink-NibData" = {
AngleInDegrees = "98.65254";
};
}),
(265,-13,o),
(299,-9,o),
(397,-9,cs,{
"Letterink-NibData" = {
AngleInDegrees = "90";
};
})
);
}
);
width = 662;
},
{
anchors = (
{
name = bottom;
pos = (433,0);
},
{
name = center;
pos = (433,355);
},
{
name = top;
pos = (433,684);
}
);
hints = (
{
name = _corner.caps_swash;
options = 2;
origin = (0,18);
type = Corner;
}
);
layerId = m004;
shapes = (
{
closed = 1;
nodes = (
(585,-14,o),
(725,32,o),
(725,195,cs),
(725,254,o),
(692,313,o),
(647,339,cs),
(617,356,o),
(601,361,o),
(573,365,c,{
"Letterink-NibData" = {
AngleInDegrees = 77.90524;
};
}),
(605,369,o),
(621,377,o),
(640,391,cs,{
"Letterink-NibData" = {
AngleInDegrees = "63.90458";
};
}),
(688,426,o),
(703,471,o),
(703,520,cs),
(703,617,o),
(619,686,o),
(486,686,cs,{
"Letterink-NibData" = {
AngleInDegrees = "270";
};
}),
(232,686,l,{
"Letterink-NibData" = {
AngleInDegrees = "180";
};
}),
(232,538,l),
(486,539,ls,{
"Letterink-NibData" = {
AngleInDegrees = "90";
};
}),
(521,539,o),
(542,513,o),
(542,485,cs,{
"Letterink-NibData" = {
AngleInDegrees = "180";
};
}),
(542,451,o),
(519,425,o),
(492,424,cs,{
"Letterink-NibData" = {
AngleInDegrees = "269.3338";
};
}),
(439,423,l,{
"Letterink-NibData" = {
AngleInDegrees = "180.77422";
};
}),
(439,289,l,{
"Letterink-NibData" = {
AngleInDegrees = "90";
};
}),
(483,289,ls,{
"Letterink-NibData" = {
AngleInDegrees = "90";
};
}),
(531,289,o),
(570,258,o),
(570,211,cs,{
"Letterink-NibData" = {
AngleInDegrees = "180";
};
}),
(570,158,o),
(533,132,o),
(459,132,cs,{
"Letterink-NibData" = {
AngleInDegrees = "270";
};
}),
(436,132,o),
(422,133,o),
(397,137,c),
(397,498,l,{
"Letterink-NibData" = {
AngleInDegrees = "90";
};
}),
(232,499,l),
(232,6,l,{
"Letterink-NibData" = {
AngleInDegrees = 96.4416;
};
}),
(309,-9,o),
(361,-13,o),
(430,-13,cs)
);
}
);
width = 753;
}
);
metricLeft = E.swsh;
userData = {
position = 514;
width = 59;
};
},
{
glyphname = C;
kernLeft = O;
kernRight = C;
layers = (
{
anchors = (
{
name = bottom;
pos = (380,-5);
},
{
name = top;
pos = (382,689);
}
);
background = {
shapes = (
{
closed = 1;
nodes = (
(569,-25,o),
(715,126,o),
(715,326,cs),
(715,355,ls),
(715,548,o),
(563,702,o),
(373,702,cs,{
"Letterink-NibData" = {
AngleInDegrees = "270";
};
}),
(183,702,o),
(32,548,o),
(32,355,cs,{
"Letterink-NibData" = {
AngleInDegrees = "180";
};
}),
(32,326,ls,{
"Letterink-NibData" = {
AngleInDegrees = "180";
};
}),
(32,126,o),
(176,-19,o),
(377,-22,cs,{
"Letterink-NibData" = {
AngleInDegrees = 90.89517;
};
})
);
},
{
closed = 1;
nodes = (
(226,54,o),
(114,170,o),
(114,326,cs),
(114,355,ls),
(114,504,o),
(228,626,o),
(372,626,cs,{
"Letterink-NibData" = {
AngleInDegrees = "90";
};
}),
(518,626,o),
(633,504,o),
(633,355,cs,{
"Letterink-NibData" = {
AngleInDegrees = "180";
};
}),
(633,326,ls,{
"Letterink-NibData" = {
AngleInDegrees = "180";
};
}),
(633,170,o),
(521,54,o),
(374,54,cs,{
"Letterink-NibData" = {
AngleInDegrees = "270";
};
})
);
}
);
};
layerId = "0CAF3BED-C4AC-4024-B3E1-4C69D1EF7EC0";
shapes = (
{
closed = 1;
nodes = (
(497,-19,o),
(599,33,o),
(653,121,c),
(590,159,l),
(549,95,o),
(471,55,o),
(381,55,cs),
(226,55,o),
(117,173,o),
(117,338,cs),
(117,507,o),
(231,627,o),
(391,627,cs),
(483,627,o),
(553,587,o),
(553,530,cs),
(553,512,o),
(546,496,o),
(529,496,cs),
(520,496,o),
(514,500,o),
(507,505,c),
(466,450,l),
(484,432,o),
(506,424,o),
(530,424,cs),
(588,424,o),
(627,473,o),
(627,531,cs),
(627,629,o),
(518,703,o),
(387,703,cs),
(194,703,o),
(37,541,o),
(37,332,cs),
(37,132,o),
(180,-19,o),
(380,-19,cs)
);
}
);
width = 686;
},
{
anchors = (
{
name = bottom;
pos = (387,-4);
},
{
name = top;
pos = (392,688);
}
);
background = {
shapes = (
{
closed = 1;
nodes = (
(581,-14,o),
(723,131,o),
(723,331,cs),
(723,350,ls),
(723,550,o),
(575,702,o),
(381,702,cs,{
"Letterink-NibData" = {
AngleInDegrees = "270";
};
}),
(187,702,o),
(41,551,o),
(41,350,cs,{
"Letterink-NibData" = {
AngleInDegrees = "180";
};
}),
(41,331,ls,{
"Letterink-NibData" = {
AngleInDegrees = "180";
};
}),
(41,133,o),
(188,-14,o),
(385,-14,cs,{
"Letterink-NibData" = {
AngleInDegrees = "90";
};
})
);
},
{
closed = 1;
nodes = (
(211,24,o),
(83,156,o),
(83,331,cs),
(83,350,ls),
(83,526,o),
(212,662,o),
(380,662,cs,{
"Letterink-NibData" = {
AngleInDegrees = "90";
};
}),
(549,662,o),
(681,526,o),
(681,350,cs,{
"Letterink-NibData" = {
AngleInDegrees = "180";
};
}),
(681,331,ls,{
"Letterink-NibData" = {
AngleInDegrees = "180";
};
}),
(681,156,o),
(552,24,o),
(382,24,cs,{
"Letterink-NibData" = {
AngleInDegrees = "270";
};
})
);
}
);
};
layerId = "49C16FD3-6177-408B-A733-AEB3898BB77C";
shapes = (
{
closed = 1;
nodes = (
(508,-10,o),
(613,47,o),
(659,130,c),
(629,148,l),
(587,76,o),
(494,26,o),
(388,26,cs),
(215,26,o),
(82,148,o),
(82,327,cs),
(82,532,o),
(216,663,o),
(392,663,cs),
(486,663,o),
(594,623,o),
(594,542,cs),
(594,517,o),
(580,482,o),
(548,482,cs),
(539,482,o),
(524,485,o),
(514,493,c),
(496,466,l),
(512,453,o),
(531,447,o),
(547,447,cs),
(593,447,o),
(630,485,o),
(630,542,cs),
(630,614,o),
(550,699,o),
(392,699,cs),
(197,699,o),
(44,555,o),
(44,327,cs),
(44,127,o),
(189,-10,o),
(388,-10,cs)
);
}
);
width = 699;
},
{
anchors = (
{
name = bottom;
pos = (382,-29);
},
{
name = top;
pos = (382,723);
}
);
associatedMasterId = "49C16FD3-6177-408B-A733-AEB3898BB77C";
layerId = "9A6A7639-79A9-4EC5-AE88-1E69E535A513";
name = "3 Jan 22, 15:02";
shapes = (
{
closed = 1;
nodes = (
(502,-22,o),
(605,20,o),
(674,118,c,{
"Letterink-NibData" = {
AngleInDegrees = 307.18471;
};
}),
(645,140,l,{
"Letterink-NibData" = {
AngleInDegrees = 215.75389;
};
}),
(591,65,o),
(498,18,o),
(399,18,cs,{
"Letterink-NibData" = {
AngleInDegrees = 270;
};
}),
(224,18,o),
(100,167,o),
(100,335,cs),
(100,508,o),
(233,665,o),
(403,665,cs,{
"Letterink-NibData" = {
AngleInDegrees = 90;
};
}),
(486,665,o),
(593,637,o),
(593,558,cs,{
"Letterink-NibData" = {
AngleInDegrees = 180;
};
}),
(593,531,o),
(580,510,o),
(557,510,cs,{
"Letterink-NibData" = {
AngleInDegrees = 270;
};
}),
(549,510,o),
(534,515,o),
(527,522,c,{
"Letterink-NibData" = {
AngleInDegrees = 217.99873;
};
}),
(502,490,l,{
"Letterink-NibData" = {
AngleInDegrees = 132.27369;
};
}),
(513,480,o),
(538,472,o),
(554,472,cs,{
"Letterink-NibData" = {
AngleInDegrees = 90;
};
}),
(601,472,o),
(633,510,o),
(633,562,cs),
(633,661,o),
(515,706,o),
(411,706,cs,{
"Letterink-NibData" = {
AngleInDegrees = 270;
};
}),
(209,706,o),
(58,535,o),
(58,335,cs,{
"Letterink-NibData" = {
AngleInDegrees = 180;
};
}),
(58,140,o),
(202,-22,o),
(400,-22,cs,{
"Letterink-NibData" = {
AngleInDegrees = 90;
};
})
);
}
);
width = 726;
},
{
anchors = (
{
name = bottom;
pos = (380,-9);
},
{
name = top;
pos = (380,703);
}
);
associatedMasterId = "0CAF3BED-C4AC-4024-B3E1-4C69D1EF7EC0";
layerId = "354B442F-650F-4F84-82F8-D7A6B1A052DE";
name = "3 Jan 22, 15:22";
shapes = (
{
closed = 1;
nodes = (
(526,-19,o),
(630,45,o),
(677,146,c,{
"Letterink-NibData" = {
AngleInDegrees = 296.92768;
};
}),
(614,178,l,{
"Letterink-NibData" = {
AngleInDegrees = 204.38637;
};
}),
(580,103,o),
(491,52,o),
(394,52,cs,{
"Letterink-NibData" = {
AngleInDegrees = 270;
};
}),
(243,52,o),
(128,178,o),
(128,340,cs),
(128,509,o),
(252,632,o),
(392,632,cs,{
"Letterink-NibData" = {
AngleInDegrees = 90;
};
}),
(451,632,o),
(555,610,o),
(555,547,cs,{
"Letterink-NibData" = {
AngleInDegrees = 180;
};
}),
(555,530,o),
(547,517,o),
(531,517,cs,{
"Letterink-NibData" = {
AngleInDegrees = 270;
};
}),
(519,517,o),
(506,525,o),
(499,534,c,{
"Letterink-NibData" = {
AngleInDegrees = 218.25442;
};
}),
(458,482,l,{
"Letterink-NibData" = {
AngleInDegrees = 143.53076;
};
}),
(475,459,o),
(501,445,o),
(531,445,cs,{
"Letterink-NibData" = {
AngleInDegrees = 90;
};
}),
(584,445,o),
(630,490,o),
(630,551,cs),
(630,642,o),
(525,706,o),
(397,706,cs,{
"Letterink-NibData" = {
AngleInDegrees = 270;
};
}),
(190,706,o),
(46,539,o),
(46,341,cs,{
"Letterink-NibData" = {
AngleInDegrees = 180;
};
}),
(46,147,o),
(183,-26,o),
(397,-22,cs,{
"Letterink-NibData" = {
AngleInDegrees = 88.66778;
};
})
);
}
);
width = 718;
},
{
anchors = (
{
name = bottom;
pos = (385,-29);
},
{
name = top;
pos = (385,723);
}
);
associatedMasterId = "49C16FD3-6177-408B-A733-AEB3898BB77C";
background = {
shapes = (
{
closed = 1;
nodes = (
(505,-22,o),
(608,20,o),
(677,118,c),
(648,140,l),
(594,65,o),
(501,18,o),
(402,18,cs),
(227,18,o),
(103,167,o),
(103,335,cs),
(103,508,o),
(236,665,o),
(406,665,cs),
(489,665,o),
(596,637,o),
(596,558,cs),
(596,531,o),
(583,510,o),
(560,510,cs),
(552,510,o),
(537,515,o),
(530,522,c),
(505,490,l),
(516,480,o),
(541,472,o),
(557,472,cs),
(604,472,o),
(636,510,o),
(636,562,cs),
(636,661,o),
(518,706,o),
(414,706,cs),
(212,706,o),
(61,535,o),
(61,335,cs),
(61,140,o),
(205,-22,o),
(403,-22,cs)
);
}
);
};
layerId = "4473E775-5B50-49F8-862E-9DFFC95B4874";
name = "5 Jan 22, 07:44";
shapes = (
{
attr = {
strokeHeight = 38;
strokeWidth = 42;
};
closed = 0;
nodes = (
(513,484,l,{
"Letterink-NibData" = {
AngleInDegrees = 116.56505;
};
}),
(523,479,o),
(533,477,o),
(544,477,cs,{
"Letterink-NibData" = {
AngleInDegrees = 91.50744;
};
}),
(582,476,o),
(608,516,o),
(608,556,cs),
(608,630,o),
(514,690,o),
(390,684,cs,{
"Letterink-NibData" = {
AngleInDegrees = 267.08916;
};
}),
(213,675,o),
(79,532,o),
(79,330,cs,{
"Letterink-NibData" = {
AngleInDegrees = 180;
};
}),
(79,136,o),
(214,0,o),
(404,0,cs,{
"Letterink-NibData" = {
AngleInDegrees = 90;
};
}),
(502,0,o),
(597,52,o),
(643,130,c,{
"Letterink-NibData" = {
AngleInDegrees = 30.52971;
};
})
);
}
);
width = 713;
},
{
anchors = (
{
name = bottom;
pos = (398,-10);
},
{
name = top;
pos = (387,699);
}
);
background = {
shapes = (
{
closed = 1;
nodes = (
(584,-25,o),
(730,126,o),
(730,326,cs),
(730,355,ls),
(730,548,o),
(578,702,o),
(388,702,cs,{
"Letterink-NibData" = {
AngleInDegrees = "270";
};
}),
(198,702,o),
(47,548,o),
(47,355,cs,{
"Letterink-NibData" = {
AngleInDegrees = "180";
};
}),
(47,326,ls,{
"Letterink-NibData" = {
AngleInDegrees = "180";
};
}),
(47,126,o),
(191,-19,o),
(392,-22,cs,{
"Letterink-NibData" = {
AngleInDegrees = 90.89517;
};
})
);
},
{
closed = 1;
nodes = (
(241,54,o),
(129,170,o),
(129,326,cs),
(129,355,ls),
(129,504,o),
(243,626,o),
(387,626,cs,{
"Letterink-NibData" = {
AngleInDegrees = "90";
};
}),
(533,626,o),
(648,504,o),
(648,355,cs,{
"Letterink-NibData" = {
AngleInDegrees = "180";
};
}),
(648,326,ls,{
"Letterink-NibData" = {
AngleInDegrees = "180";
};
}),
(648,170,o),
(536,54,o),
(389,54,cs,{
"Letterink-NibData" = {
AngleInDegrees = "270";
};
})
);
}
);
};
layerId = m004;
shapes = (
{
closed = 1;
nodes = (
(525,-27,o),
(631,27,o),
(687,121,c),
(559,196,l),
(532,151,o),
(464,121,o),
(392,121,cs),
(273,121,o),
(194,207,o),
(194,337,cs),
(194,471,o),
(277,565,o),
(395,565,cs),
(474,565,o),
(529,532,o),
(528,497,cs),
(528,480,o),
(517,475,o),
(511,475,cs),
(503,475,o),
(497,481,o),
(494,485,c),
(417,390,l),
(436,360,o),
(478,340,o),
(526,340,cs),
(612,340,o),
(676,400,o),
(676,487,cs),
(676,621,o),
(546,713,o),
(387,713,cs),
(179,713,o),
(26,555,o),
(26,337,cs),
(26,130,o),
(183,-27,o),
(398,-27,cs)
);
}
);
width = 710;
},
{
anchors = (
{
name = bottom;
pos = (366,-9);
},
{
name = top;
pos = (366,703);
}
);
associatedMasterId = m004;
layerId = "1D3C4DC7-3234-4807-8E35-E7EE46E86FD4";
name = "3 Jan 22, 15:22";
shapes = (
{
closed = 1;
nodes = (
(512,-19,o),
(616,45,o),
(663,146,c,{
"Letterink-NibData" = {
AngleInDegrees = 296.92768;
};
}),
(600,178,l,{
"Letterink-NibData" = {
AngleInDegrees = 204.38637;
};
}),
(566,103,o),
(477,52,o),
(380,52,cs,{
"Letterink-NibData" = {
AngleInDegrees = 270;
};
}),
(229,52,o),
(114,178,o),
(114,340,cs),
(114,509,o),
(238,632,o),
(378,632,cs,{
"Letterink-NibData" = {
AngleInDegrees = 90;
};
}),
(437,632,o),
(541,610,o),
(541,547,cs,{
"Letterink-NibData" = {
AngleInDegrees = 180;
};
}),
(541,530,o),
(533,517,o),
(517,517,cs,{
"Letterink-NibData" = {
AngleInDegrees = 270;
};
}),
(505,517,o),
(492,525,o),
(485,534,c,{
"Letterink-NibData" = {
AngleInDegrees = 218.25442;
};
}),
(444,482,l,{
"Letterink-NibData" = {
AngleInDegrees = 143.53076;
};
}),
(461,459,o),
(487,445,o),
(517,445,cs,{
"Letterink-NibData" = {
AngleInDegrees = 90;
};
}),
(570,445,o),
(616,490,o),
(616,551,cs),
(616,642,o),
(511,706,o),
(383,706,cs,{
"Letterink-NibData" = {
AngleInDegrees = 270;
};
}),
(176,706,o),
(32,539,o),
(32,341,cs,{
"Letterink-NibData" = {
AngleInDegrees = 180;
};
}),
(32,147,o),
(169,-26,o),
(383,-22,cs,{
"Letterink-NibData" = {
AngleInDegrees = 88.66778;
};
})
);
}
);
width = 692;
},
{
anchors = (
{
name = bottom;
pos = (398,0);
},
{
name = top;
pos = (390,684);
}
);
associatedMasterId = m004;
background = {
shapes = (
{
closed = 1;
nodes = (
(582,-25,o),
(728,126,o),
(728,326,cs),
(728,355,ls),
(728,548,o),
(576,702,o),
(386,702,cs,{
"Letterink-NibData" = {
AngleInDegrees = "270";
};
}),
(196,702,o),
(45,548,o),
(45,355,cs,{
"Letterink-NibData" = {
AngleInDegrees = "180";
};
}),
(45,326,ls,{
"Letterink-NibData" = {
AngleInDegrees = "180";
};
}),
(45,126,o),
(189,-19,o),
(390,-22,cs,{
"Letterink-NibData" = {
AngleInDegrees = 90.89517;
};
})
);
},
{
closed = 1;
nodes = (
(239,54,o),
(127,170,o),
(127,326,cs),
(127,355,ls),
(127,504,o),
(241,626,o),
(385,626,cs,{
"Letterink-NibData" = {
AngleInDegrees = "90";
};
}),
(531,626,o),
(646,504,o),
(646,355,cs,{
"Letterink-NibData" = {
AngleInDegrees = "180";
};
}),
(646,326,ls,{
"Letterink-NibData" = {
AngleInDegrees = "180";
};
}),
(646,170,o),
(534,54,o),
(387,54,cs,{
"Letterink-NibData" = {
AngleInDegrees = "270";
};
})
);
}
);
};
layerId = "C056148C-2549-4511-9EFE-DD576A128247";
name = "19 Jan 22, 08:49";
shapes = (
{
closed = 0;
nodes = (
(475,430,l,{
"Letterink-NibData" = {
AngleInDegrees = -45;
MainAxisWidth = 118;
MinorAxisWidth = -15;
ValidForParentMainAxisWidth = 30;
ValidForParentMinorAxisWidth = 15;
};
"Letterink-NibStyleId" = "8";
}),
(495,410,o),
(517,408,o),
(533,408,cs,{
"Letterink-NibData" = {
AngleInDegrees = -45;
MainAxisWidth = 118;
MinorAxisWidth = -15;
ValidForParentMainAxisWidth = 30;
ValidForParentMinorAxisWidth = 15;
};
"Letterink-NibStyleId" = "8";
}),
(575,408,o),
(608,452,o),
(608,500,cs,{
"Letterink-NibData" = {
AngleInDegrees = -45;
MainAxisWidth = 118;
MinorAxisWidth = -15;
ValidForParentMainAxisWidth = 30;
ValidForParentMinorAxisWidth = 15;
};
"Letterink-NibStyleId" = "8";
}),
(608,568,o),
(509,639,o),
(399,639,cs,{
"Letterink-NibData" = {
AngleInDegrees = -45;
MainAxisWidth = 118;
MinorAxisWidth = -15;
ValidForParentMainAxisWidth = 30;
ValidForParentMinorAxisWidth = 15;
};
"Letterink-NibStyleId" = "8";
}),
(238,639,o),
(114,519,o),
(114,331,cs,{
"Letterink-NibData" = {
AngleInDegrees = -45;
MainAxisWidth = 135;
MinorAxisWidth = -15;
ValidForParentMainAxisWidth = 30;
ValidForParentMinorAxisWidth = 15;
};
"Letterink-NibStyleId" = "8";
}),
(114,164,o),
(237,47,o),
(407,47,cs,{
"Letterink-NibData" = {
AngleInDegrees = -45;
MainAxisWidth = 118;
MinorAxisWidth = -15;
ValidForParentMainAxisWidth = 30;
ValidForParentMinorAxisWidth = 15;
};
"Letterink-NibStyleId" = "8";
}),
(496,47,o),
(580,90,o),
(621,159,c,{
"Letterink-NibData" = {
AngleInDegrees = -45;
MainAxisWidth = 118;
MinorAxisWidth = -15;
ValidForParentMainAxisWidth = 30;
ValidForParentMinorAxisWidth = 15;
};
"Letterink-NibStyleId" = "8";
})
);
}
);
userData = {
"Letterink-ComputationAllowed" = YES;
};
width = 714;
}
);
metricLeft = O;
metricRight = "=O*.9";
unicode = 67;
userData = {
position = 570;
width = 54;
};
},
{
glyphname = C.ss01;
kernLeft = O;
kernRight = C;
layers = (
{
anchors = (
{
name = bottom;
pos = (385,-6);
},
{
name = top;
pos = (381,689);
}
);
background = {
shapes = (
{
closed = 1;
nodes = (
(572,-25,o),
(718,126,o),
(718,326,cs),
(718,355,ls),
(718,548,o),
(566,702,o),
(376,702,cs,{
"Letterink-NibData" = {
AngleInDegrees = "270";
};
}),
(186,702,o),
(35,548,o),
(35,355,cs,{
"Letterink-NibData" = {
AngleInDegrees = "180";
};
}),
(35,326,ls,{
"Letterink-NibData" = {
AngleInDegrees = "180";
};
}),
(35,126,o),
(179,-19,o),
(380,-22,cs,{
"Letterink-NibData" = {
AngleInDegrees = 90.89517;
};
})
);
},
{
closed = 1;
nodes = (
(229,54,o),
(117,170,o),
(117,326,cs),
(117,355,ls),
(117,504,o),
(231,626,o),
(375,626,cs,{
"Letterink-NibData" = {
AngleInDegrees = "90";
};
}),
(521,626,o),
(636,504,o),
(636,355,cs,{
"Letterink-NibData" = {
AngleInDegrees = "180";
};
}),
(636,326,ls,{
"Letterink-NibData" = {
AngleInDegrees = "180";
};
}),
(636,170,o),
(524,54,o),
(377,54,cs,{
"Letterink-NibData" = {
AngleInDegrees = "270";
};
})
);
}
);
};
layerId = "0CAF3BED-C4AC-4024-B3E1-4C69D1EF7EC0";
shapes = (
{
closed = 1;
nodes = (
(501,-23,o),
(605,27,o),
(660,118,c),
(594,158,l),
(555,93,o),
(480,53,o),
(387,53,cs),
(232,53,o),
(119,165,o),
(119,335,cs),
(119,505,o),
(231,629,o),
(390,629,cs),
(500,629,o),
(561,570,o),
(583,512,c),
(650,531,l),
(623,626,o),
(522,705,o),
(384,705,cs),
(192,705,o),
(37,555,o),
(37,336,cs),
(37,115,o),
(190,-23,o),
(386,-23,cs)
);
}
);
width = 693;
},
{
anchors = (
{
name = bottom;
pos = (388,-12);
},
{
name = top;
pos = (374,685);
}
);
background = {
anchors = (
{
name = bottom;
pos = (363,-27);
},
{
name = top;
pos = (363,721);
}
);
shapes = (
{
attr = {
strokeHeight = 38;
strokeWidth = 42;
};
closed = 0;
nodes = (
(599,537,l,{
"Letterink-NibData" = {
AngleInDegrees = 356.78451;
};
}),
(594,626,o),
(496,691,o),
(372,685,cs,{
"Letterink-NibData" = {
AngleInDegrees = 267.08916;
};
}),
(195,676,o),
(60,532,o),
(60,330,cs,{
"Letterink-NibData" = {
AngleInDegrees = 180;
};
}),
(60,136,o),
(195,0,o),
(385,0,cs,{
"Letterink-NibData" = {
AngleInDegrees = 90;
};
}),
(483,0,o),
(578,52,o),
(624,130,c,{
"Letterink-NibData" = {
AngleInDegrees = 30.52971;
};
})
);
}
);
};
layerId = "49C16FD3-6177-408B-A733-AEB3898BB77C";
shapes = (
{
closed = 1;
nodes = (
(496,-12,o),
(596,36,o),
(649,124,c),
(618,142,l),
(573,66,o),
(490,24,o),
(384,24,cs),
(217,24,o),
(82,146,o),
(82,336,cs),
(82,529,o),
(212,661,o),
(378,661,cs),
(509,661,o),
(588,595,o),
(610,522,c),
(644,531,l),
(617,627,o),
(518,697,o),
(380,697,cs),
(193,697,o),
(44,549,o),
(44,336,cs),
(44,123,o),
(195,-12,o),
(382,-12,cs)
);
}
);
width = 689;
},
{
anchors = (
{
name = bottom;
pos = (378,-27);
},
{
name = top;
pos = (378,721);
}
);
associatedMasterId = "49C16FD3-6177-408B-A733-AEB3898BB77C";
layerId = "5C147D22-45CB-49AC-8F59-80A6CB628E42";
name = "3 Jan 22, 15:09";
shapes = (
{
closed = 1;
nodes = (
(505,-20,o),
(603,31,o),
(663,119,c,{
"Letterink-NibData" = {
AngleInDegrees = 304.07719;
};
}),
(629,142,l,{
"Letterink-NibData" = {
AngleInDegrees = 214.03213;
};
}),
(577,65,o),
(489,20,o),
(393,20,cs,{
"Letterink-NibData" = {
AngleInDegrees = 270;
};
}),
(222,20,o),
(100,159,o),
(100,331,cs),
(100,497,o),
(221,669,o),
(403,669,cs,{
"Letterink-NibData" = {
AngleInDegrees = 90;
};
}),
(502,669,o),
(583,618,o),
(589,552,c,{
"Letterink-NibData" = {
AngleInDegrees = 90;
};
}),
(630,552,l,{
"Letterink-NibData" = {
AngleInDegrees = 355.69553;
};
}),
(623,645,o),
(532,709,o),
(408,709,cs,{
"Letterink-NibData" = {
AngleInDegrees = 270;
};
}),
(204,709,o),
(58,535,o),
(58,334,cs,{
"Letterink-NibData" = {
AngleInDegrees = 180;
};
}),
(58,132,o),
(198,-20,o),
(394,-20,cs,{
"Letterink-NibData" = {
AngleInDegrees = 90;
};
})
);
}
);
width = 715;
},
{
anchors = (
{
name = bottom;
pos = (369,-7);
},
{
name = top;
pos = (369,701);
}
);
associatedMasterId = "0CAF3BED-C4AC-4024-B3E1-4C69D1EF7EC0";
layerId = "F3AD09C8-78E5-4679-83B5-5B942013D0D4";
name = "3 Jan 22, 15:21";
shapes = (
{
closed = 1;
nodes = (
(505,-17,o),
(609,40,o),
(671,139,c,{
"Letterink-NibData" = {
AngleInDegrees = 304.31509;
};
}),
(608,182,l,{
"Letterink-NibData" = {
AngleInDegrees = 211.07166;
};
}),
(561,104,o),
(481,59,o),
(386,59,cs,{
"Letterink-NibData" = {
AngleInDegrees = 270;
};
}),
(233,59,o),
(126,176,o),
(126,324,cs),
(126,494,o),
(241,631,o),
(384,631,cs,{
"Letterink-NibData" = {
AngleInDegrees = 90;
};
}),
(484,631,o),
(562,582,o),
(559,520,c,{
"Letterink-NibData" = {
AngleInDegrees = 90;
};
}),
(638,520,l,{
"Letterink-NibData" = {
AngleInDegrees = 1.06091;
};
}),
(640,628,o),
(535,707,o),
(389,707,cs,{
"Letterink-NibData" = {
AngleInDegrees = 270;
};
}),
(200,707,o),
(46,538,o),
(46,327,cs,{
"Letterink-NibData" = {
AngleInDegrees = 180;
};
}),
(46,132,o),
(190,-17,o),
(385,-17,cs,{
"Letterink-NibData" = {
AngleInDegrees = 90;
};
})
);
}
);
width = 712;
},
{
anchors = (
{
name = bottom;
pos = (382,-27);
},
{
name = top;
pos = (382,721);
}
);
associatedMasterId = "49C16FD3-6177-408B-A733-AEB3898BB77C";
layerId = "60C93F8E-5478-4CF7-8F44-AF3ED9540F66";
name = "5 Jan 22, 07:47";
shapes = (
{
attr = {
strokeHeight = 38;
strokeWidth = 42;
};
closed = 0;
nodes = (
(618,537,l,{
"Letterink-NibData" = {
AngleInDegrees = 356.78451;
};
}),
(613,626,o),
(515,691,o),
(391,685,cs,{
"Letterink-NibData" = {
AngleInDegrees = 267.08916;
};
}),
(214,676,o),
(79,532,o),
(79,330,cs,{
"Letterink-NibData" = {
AngleInDegrees = 180;
};
}),
(79,136,o),
(214,0,o),
(404,0,cs,{
"Letterink-NibData" = {
AngleInDegrees = 90;
};
}),
(502,0,o),
(597,52,o),
(643,130,c,{
"Letterink-NibData" = {
AngleInDegrees = 30.52971;
};
})
);
}
);
width = 713;
},
{
anchors = (
{
name = bottom;
pos = (368,-7);
},
{
name = top;
pos = (368,701);
}
);
associatedMasterId = "0CAF3BED-C4AC-4024-B3E1-4C69D1EF7EC0";
layerId = "E3615987-2AFD-4696-A41C-F6163A2589A7";
name = "5 Jan 22, 07:50";
shapes = (
{
attr = {
strokeHeight = 74;
strokeWidth = 80;
};
closed = 0;
nodes = (
(606,525,ls,{
"Letterink-NibData" = {
AngleInDegrees = 356.63354;
};
}),
(601,610,o),
(508,671,o),
(391,665,cs,{
"Letterink-NibData" = {
AngleInDegrees = 267.02198;
};
}),
(218,656,o),
(86,521,o),
(86,331,cs,{
"Letterink-NibData" = {
AngleInDegrees = 180;
};
}),
(86,148,o),
(216,20,o),
(399,20,cs,{
"Letterink-NibData" = {
AngleInDegrees = 90;
};
}),
(494,20,o),
(585,68,o),
(630,142,c,{
"Letterink-NibData" = {
AngleInDegrees = 31.30412;
};
})
);
}
);
width = 705;
},
{
anchors = (
{
name = bottom;
pos = (393,-12);
},
{
name = top;
pos = (382,696);
}
);
background = {
shapes = (
{
closed = 1;
nodes = (
(590,-25,o),
(736,126,o),
(736,326,cs),
(736,355,ls),
(736,548,o),
(584,702,o),
(394,702,cs,{
"Letterink-NibData" = {
AngleInDegrees = "270";
};
}),
(204,702,o),
(53,548,o),
(53,355,cs,{
"Letterink-NibData" = {
AngleInDegrees = "180";
};
}),
(53,326,ls,{
"Letterink-NibData" = {
AngleInDegrees = "180";
};
}),
(53,126,o),
(197,-19,o),
(398,-22,cs,{
"Letterink-NibData" = {
AngleInDegrees = 90.89517;
};
})
);
},
{
closed = 1;
nodes = (
(247,54,o),
(135,170,o),
(135,326,cs),
(135,355,ls),
(135,504,o),
(249,626,o),
(393,626,cs,{
"Letterink-NibData" = {
AngleInDegrees = "90";
};
}),
(539,626,o),
(654,504,o),
(654,355,cs,{
"Letterink-NibData" = {
AngleInDegrees = "180";
};
}),
(654,326,ls,{
"Letterink-NibData" = {
AngleInDegrees = "180";
};
}),
(654,170,o),
(542,54,o),
(395,54,cs,{
"Letterink-NibData" = {
AngleInDegrees = "270";
};
})
);
}
);
};
layerId = m004;
shapes = (
{
closed = 1;
nodes = (
(511,-28,o),
(620,27,o),
(671,120,c),
(546,196,l),
(516,149,o),
(458,120,o),
(392,120,cs),
(276,120,o),
(194,211,o),
(194,339,cs),
(194,466,o),
(275,565,o),
(387,565,cs),
(456,565,o),
(515,526,o),
(527,482,c),
(667,522,l),
(639,634,o),
(525,713,o),
(383,713,cs),
(179,713,o),
(26,552,o),
(26,342,cs),
(26,130,o),
(181,-28,o),
(390,-28,cs)
);
}
);
width = 694;
},
{
anchors = (
{
name = bottom;
pos = (355,-7);
},
{
name = top;
pos = (355,701);
}
);
associatedMasterId = m004;
layerId = "61EB21C3-3EB3-448C-BA61-69CC21CFBA6E";
name = "3 Jan 22, 15:21";
shapes = (
{
closed = 1;
nodes = (
(491,-17,o),
(595,40,o),
(657,139,c,{
"Letterink-NibData" = {
AngleInDegrees = 304.31509;
};
}),
(594,182,l,{
"Letterink-NibData" = {
AngleInDegrees = 211.07166;
};
}),
(547,104,o),
(467,59,o),
(372,59,cs,{
"Letterink-NibData" = {
AngleInDegrees = 270;
};
}),
(219,59,o),
(112,176,o),
(112,324,cs),
(112,494,o),
(227,631,o),
(370,631,cs,{
"Letterink-NibData" = {
AngleInDegrees = 90;
};
}),
(470,631,o),
(548,582,o),
(545,520,c,{
"Letterink-NibData" = {
AngleInDegrees = 90;
};
}),
(624,520,l,{
"Letterink-NibData" = {
AngleInDegrees = 1.06091;
};
}),
(626,628,o),
(521,707,o),
(375,707,cs,{
"Letterink-NibData" = {
AngleInDegrees = 270;
};
}),
(186,707,o),
(32,538,o),
(32,327,cs,{
"Letterink-NibData" = {
AngleInDegrees = 180;
};
}),
(32,132,o),
(176,-17,o),
(371,-17,cs,{
"Letterink-NibData" = {
AngleInDegrees = 90;
};
})
);
}
);
width = 686;
},
{
anchors = (
{
name = bottom;
pos = (354,-7);
},
{
name = top;
pos = (354,701);
}
);
associatedMasterId = m004;
layerId = "2E6EA62A-4F0C-4C83-906A-4BFA96122663";
name = "5 Jan 22, 07:50";
shapes = (
{
attr = {
strokeHeight = 74;
strokeWidth = 80;
};
closed = 0;
nodes = (
(592,525,ls,{
"Letterink-NibData" = {
AngleInDegrees = 356.63354;
};
}),
(587,610,o),
(494,671,o),
(377,665,cs,{
"Letterink-NibData" = {
AngleInDegrees = 267.02198;
};
}),
(204,656,o),
(72,521,o),
(72,331,cs,{
"Letterink-NibData" = {
AngleInDegrees = 180;
};
}),
(72,148,o),
(202,20,o),
(385,20,cs,{
"Letterink-NibData" = {
AngleInDegrees = 90;
};
}),
(480,20,o),
(571,68,o),
(616,142,c,{
"Letterink-NibData" = {
AngleInDegrees = 31.30412;
};
})
);
}
);
width = 679;
}
);
metricLeft = O;
metricRight = "=O*.9";
userData = {
position = 570;
width = 54;
};
},
{
glyphname = C.swsh;
kernLeft = O;
kernRight = C;
layers = (
{
anchors = (
{
name = bottom;
pos = (390,-8);
},
{
name = top;
pos = (379,691);
}
);
background = {
shapes = (
{
closed = 1;
nodes = (
(569,-25,o),
(715,126,o),
(715,326,cs),
(715,355,ls),
(715,548,o),
(563,702,o),
(373,702,cs,{
"Letterink-NibData" = {
AngleInDegrees = "270";
};
}),
(183,702,o),
(32,548,o),
(32,355,cs,{
"Letterink-NibData" = {
AngleInDegrees = "180";
};
}),
(32,326,ls,{
"Letterink-NibData" = {
AngleInDegrees = "180";
};
}),
(32,126,o),
(176,-19,o),
(377,-22,cs,{
"Letterink-NibData" = {
AngleInDegrees = 90.89517;
};
})
);
},
{
closed = 1;
nodes = (
(226,54,o),
(114,170,o),
(114,326,cs),
(114,355,ls),
(114,504,o),
(228,626,o),
(372,626,cs,{
"Letterink-NibData" = {
AngleInDegrees = "90";
};
}),
(518,626,o),
(633,504,o),
(633,355,cs,{
"Letterink-NibData" = {
AngleInDegrees = "180";
};
}),
(633,326,ls,{
"Letterink-NibData" = {
AngleInDegrees = "180";
};
}),
(633,170,o),
(521,54,o),
(374,54,cs,{
"Letterink-NibData" = {
AngleInDegrees = "270";
};
})
);
}
);
};
layerId = "0CAF3BED-C4AC-4024-B3E1-4C69D1EF7EC0";
shapes = (
{
closed = 1;
nodes = (
(506,-22,o),
(608,31,o),
(661,120,c),
(595,158,l),
(556,91,o),
(482,54,o),
(391,54,cs),
(229,54,o),
(117,169,o),
(117,335,cs),
(117,503,o),
(231,624,o),
(391,624,cs),
(481,624,o),
(555,577,o),
(555,520,cs),
(555,498,o),
(543,483,o),
(525,483,cs),
(505,483,o),
(486,498,o),
(479,518,c),
(407,496,l),
(422,443,o),
(470,407,o),
(524,407,cs),
(589,407,o),
(635,455,o),
(635,524,cs),
(635,626,o),
(533,700,o),
(391,700,cs),
(186,700,o),
(37,546,o),
(37,335,cs),
(37,128,o),
(184,-22,o),
(388,-22,cs)
);
}
);
width = 697;
},
{
anchors = (
{
name = bottom;
pos = (390,-2);
},
{
name = top;
pos = (391,686);
}
);
background = {
shapes = (
{
closed = 1;
nodes = (
(583,-14,o),
(725,131,o),
(725,331,cs),
(725,350,ls),
(725,550,o),
(577,702,o),
(383,702,cs,{
"Letterink-NibData" = {
AngleInDegrees = "270";
};
}),
(189,702,o),
(43,551,o),
(43,350,cs,{
"Letterink-NibData" = {
AngleInDegrees = "180";
};
}),
(43,331,ls,{
"Letterink-NibData" = {
AngleInDegrees = "180";
};
}),
(43,133,o),
(190,-14,o),
(387,-14,cs,{
"Letterink-NibData" = {
AngleInDegrees = "90";
};
})
);
},
{
closed = 1;
nodes = (
(213,24,o),
(85,156,o),
(85,331,cs),
(85,350,ls),
(85,526,o),
(214,662,o),
(382,662,cs,{
"Letterink-NibData" = {
AngleInDegrees = "90";
};
}),
(551,662,o),
(683,526,o),
(683,350,cs,{
"Letterink-NibData" = {
AngleInDegrees = "180";
};
}),
(683,331,ls,{
"Letterink-NibData" = {
AngleInDegrees = "180";
};
}),
(683,156,o),
(554,24,o),
(384,24,cs,{
"Letterink-NibData" = {
AngleInDegrees = "270";
};
})
);
}
);
};
layerId = "49C16FD3-6177-408B-A733-AEB3898BB77C";
shapes = (
{
closed = 1;
nodes = (
(509,-11,o),
(607,40,o),
(658,126,c),
(629,143,l),
(584,67,o),
(498,25,o),
(393,25,cs),
(215,25,o),
(82,153,o),
(82,341,cs),
(82,523,o),
(213,656,o),
(391,656,cs),
(503,656,o),
(594,600,o),
(594,530,cs),
(594,491,o),
(570,462,o),
(536,462,cs),
(500,462,o),
(475,484,o),
(466,518,c),
(433,509,l),
(446,458,o),
(483,428,o),
(536,428,cs),
(589,428,o),
(630,472,o),
(630,530,cs),
(630,619,o),
(523,692,o),
(391,692,cs),
(191,692,o),
(44,543,o),
(44,341,cs),
(44,137,o),
(190,-11,o),
(393,-11,cs)
);
}
);
width = 701;
},
{
anchors = (
{
name = bottom;
pos = (369,0);
},
{
name = top;
pos = (381,684);
}
);
associatedMasterId = "49C16FD3-6177-408B-A733-AEB3898BB77C";
layerId = "3D02E95B-60B1-4244-8F26-D84725EF13C9";
name = "3 Jan 22, 15:07";
shapes = (
{
closed = 1;
nodes = (
(505,-21,o),
(628,33,o),
(678,140,c,{
"Letterink-NibData" = {
AngleInDegrees = 293.55226;
};
}),
(639,157,l,{
"Letterink-NibData" = {
AngleInDegrees = 204.62357;
};
}),
(606,85,o),
(525,18,o),
(388,19,cs,{
"Letterink-NibData" = {
AngleInDegrees = 270.40348;
};
}),
(246,20,o),
(100,149,o),
(100,343,cs),
(100,508,o),
(232,657,o),
(392,657,cs,{
"Letterink-NibData" = {
AngleInDegrees = 90;
};
}),
(473,657,o),
(570,621,o),
(570,548,cs,{
"Letterink-NibData" = {
AngleInDegrees = 180;
};
}),
(570,521,o),
(554,500,o),
(530,500,cs,{
"Letterink-NibData" = {
AngleInDegrees = 270;
};
}),
(517,500,o),
(500,510,o),
(493,523,c,{
"Letterink-NibData" = {
AngleInDegrees = 238.57043;
};
}),
(457,501,l,{
"Letterink-NibData" = {
AngleInDegrees = 149.03624;
};
}),
(475,471,o),
(502,458,o),
(529,458,cs,{
"Letterink-NibData" = {
AngleInDegrees = 90;
};
}),
(571,458,o),
(612,492,o),
(612,546,cs),
(612,639,o),
(504,697,o),
(393,697,cs,{
"Letterink-NibData" = {
AngleInDegrees = 270;
};
}),
(209,697,o),
(58,536,o),
(58,344,cs,{
"Letterink-NibData" = {
AngleInDegrees = 180;
};
}),
(58,159,o),
(189,-21,o),
(389,-21,cs,{
"Letterink-NibData" = {
AngleInDegrees = 90;
};
})
);
}
);
width = 735;
},
{
anchors = (
{
name = bottom;
pos = (371,-9);
},
{
name = top;
pos = (371,703);
}
);
associatedMasterId = "0CAF3BED-C4AC-4024-B3E1-4C69D1EF7EC0";
layerId = "430F94E4-6E0B-477D-BEA9-4D1159DC2E2A";
name = "3 Jan 22, 15:17";
shapes = (
{
closed = 1;
nodes = (
(498,-16,o),
(614,32,o),
(680,139,c,{
"Letterink-NibData" = {
AngleInDegrees = 303.88696;
};
}),
(613,184,l,{
"Letterink-NibData" = {
AngleInDegrees = 210.52971;
};
}),
(567,106,o),
(482,60,o),
(388,60,cs,{
"Letterink-NibData" = {
AngleInDegrees = 270;
};
}),
(236,60,o),
(126,184,o),
(126,337,cs),
(126,493,o),
(244,630,o),
(394,630,cs,{
"Letterink-NibData" = {
AngleInDegrees = 90;
};
}),
(457,630,o),
(551,604,o),
(551,552,cs,{
"Letterink-NibData" = {
AngleInDegrees = 180;
};
}),
(551,539,o),
(541,528,o),
(530,528,cs,{
"Letterink-NibData" = {
AngleInDegrees = 270;
};
}),
(523,528,o),
(513,532,o),
(508,539,c,{
"Letterink-NibData" = {
AngleInDegrees = 218.19868;
};
}),
(460,478,l,{
"Letterink-NibData" = {
AngleInDegrees = 135;
};
}),
(478,460,o),
(506,447,o),
(536,447,cs,{
"Letterink-NibData" = {
AngleInDegrees = 90;
};
}),
(587,447,o),
(631,494,o),
(631,551,cs),
(631,661,o),
(504,706,o),
(393,706,cs,{
"Letterink-NibData" = {
AngleInDegrees = 270;
};
}),
(200,706,o),
(46,536,o),
(46,337,cs,{
"Letterink-NibData" = {
AngleInDegrees = 180;
};
}),
(46,141,o),
(193,-16,o),
(387,-16,cs,{
"Letterink-NibData" = {
AngleInDegrees = 90;
};
})
);
}
);
width = 725;
},
{
anchors = (
{
name = bottom;
pos = (372,0);
},
{
name = top;
pos = (384,684);
}
);
associatedMasterId = "49C16FD3-6177-408B-A733-AEB3898BB77C";
layerId = "BE458C1D-0A4B-40C4-BCF4-9649CDEB98A4";
name = "5 Jan 22, 08:01";
shapes = (
{
attr = {
strokeHeight = 38;
strokeWidth = 42;
};
closed = 0;
nodes = (
(479,527,l,{
"Letterink-NibData" = {
AngleInDegrees = 168.31063;
};
}),
(485,498,o),
(510,478,o),
(544,477,cs,{
"Letterink-NibData" = {
AngleInDegrees = 91.50744;
};
}),
(582,476,o),
(608,516,o),
(608,556,cs),
(608,630,o),
(515,690,o),
(391,684,cs,{
"Letterink-NibData" = {
AngleInDegrees = 267.08916;
};
}),
(214,675,o),
(79,532,o),
(79,330,cs,{
"Letterink-NibData" = {
AngleInDegrees = 180;
};
}),
(79,136,o),
(214,0,o),
(404,0,cs,{
"Letterink-NibData" = {
AngleInDegrees = 90;
};
}),
(502,0,o),
(597,52,o),
(643,130,c,{
"Letterink-NibData" = {
AngleInDegrees = 30.52971;
};
})
);
}
);
width = 718;
},
{
anchors = (
{
name = bottom;
pos = (373,31);
},
{
name = top;
pos = (373,662);
}
);
associatedMasterId = "0CAF3BED-C4AC-4024-B3E1-4C69D1EF7EC0";
layerId = "26DD77D8-93B1-4CFB-A5C5-84AD5242F402";
name = "5 Jan 22, 08:04";
shapes = (
{
attr = {
strokeHeight = 74;
strokeWidth = 80;
};
closed = 0;
nodes = (
(478,519,l,{
"Letterink-NibData" = {
AngleInDegrees = 169.50852;
};
}),
(483,492,o),
(507,472,o),
(536,471,cs,{
"Letterink-NibData" = {
AngleInDegrees = 91.33222;
};
}),
(579,470,o),
(604,508,o),
(604,546,cs),
(604,617,o),
(515,674,o),
(394,669,cs,{
"Letterink-NibData" = {
AngleInDegrees = 267.03906;
};
}),
(220,660,o),
(86,523,o),
(86,334,cs,{
"Letterink-NibData" = {
AngleInDegrees = 180;
};
}),
(86,145,o),
(218,15,o),
(392,15,cs,{
"Letterink-NibData" = {
AngleInDegrees = 90;
};
}),
(497,15,o),
(592,63,o),
(638,140,c,{
"Letterink-NibData" = {
AngleInDegrees = 30.8542;
};
})
);
}
);
width = 717;
},
{
anchors = (
{
name = bottom;
pos = (390,-12);
},
{
name = top;
pos = (385,696);
}
);
background = {
shapes = (
{
closed = 1;
nodes = (
(586,-25,o),
(732,126,o),
(732,326,cs),
(732,355,ls),
(732,548,o),
(580,702,o),
(390,702,cs,{
"Letterink-NibData" = {
AngleInDegrees = "270";
};
}),
(200,702,o),
(49,548,o),
(49,355,cs,{
"Letterink-NibData" = {
AngleInDegrees = "180";
};
}),
(49,326,ls,{
"Letterink-NibData" = {
AngleInDegrees = "180";
};
}),
(49,126,o),
(193,-19,o),
(394,-22,cs,{
"Letterink-NibData" = {
AngleInDegrees = 90.89517;
};
})
);
},
{
closed = 1;
nodes = (
(243,54,o),
(131,170,o),
(131,326,cs),
(131,355,ls),
(131,504,o),
(245,626,o),
(389,626,cs,{
"Letterink-NibData" = {
AngleInDegrees = "90";
};
}),
(535,626,o),
(650,504,o),
(650,355,cs,{
"Letterink-NibData" = {
AngleInDegrees = "180";
};
}),
(650,326,ls,{
"Letterink-NibData" = {
AngleInDegrees = "180";
};
}),
(650,170,o),
(538,54,o),
(391,54,cs,{
"Letterink-NibData" = {
AngleInDegrees = "270";
};
})
);
}
);
};
layerId = m004;
shapes = (
{
closed = 1;
nodes = (
(512,-28,o),
(621,29,o),
(671,121,c),
(546,196,l),
(514,147,o),
(462,120,o),
(394,120,cs),
(273,120,o),
(194,204,o),
(194,332,cs),
(194,469,o),
(277,566,o),
(394,566,cs),
(442,566,o),
(520,546,o),
(522,504,cs),
(523,489,o),
(516,478,o),
(505,478,cs),
(498,478,o),
(492,481,o),
(488,491,c),
(367,449,l),
(379,384,o),
(445,334,o),
(512,334,cs),
(604,334,o),
(671,405,o),
(671,505,cs),
(671,625,o),
(550,714,o),
(386,714,cs),
(180,714,o),
(26,554,o),
(26,340,cs),
(26,130,o),
(182,-28,o),
(390,-28,cs)
);
}
);
width = 696;
},
{
anchors = (
{
name = bottom;
pos = (357,-9);
},
{
name = top;
pos = (357,703);
}
);
associatedMasterId = m004;
layerId = "E1B422B0-C5DA-4EE8-BF30-75EC1E1BD4CA";
name = "3 Jan 22, 15:17";
shapes = (
{
closed = 1;
nodes = (
(484,-16,o),
(600,32,o),
(666,139,c,{
"Letterink-NibData" = {
AngleInDegrees = 303.88696;
};
}),
(599,184,l,{
"Letterink-NibData" = {
AngleInDegrees = 210.52971;
};
}),
(553,106,o),
(468,60,o),
(374,60,cs,{
"Letterink-NibData" = {
AngleInDegrees = 270;
};
}),
(222,60,o),
(112,184,o),
(112,337,cs),
(112,493,o),
(230,630,o),
(380,630,cs,{
"Letterink-NibData" = {
AngleInDegrees = 90;
};
}),
(443,630,o),
(537,604,o),
(537,552,cs,{
"Letterink-NibData" = {
AngleInDegrees = 180;
};
}),
(537,539,o),
(527,528,o),
(516,528,cs,{
"Letterink-NibData" = {
AngleInDegrees = 270;
};
}),
(509,528,o),
(499,532,o),
(494,539,c,{
"Letterink-NibData" = {
AngleInDegrees = 218.19868;
};
}),
(446,478,l,{
"Letterink-NibData" = {
AngleInDegrees = 135;
};
}),
(464,460,o),
(492,447,o),
(522,447,cs,{
"Letterink-NibData" = {
AngleInDegrees = 90;
};
}),
(573,447,o),
(617,494,o),
(617,551,cs),
(617,661,o),
(490,706,o),
(379,706,cs,{
"Letterink-NibData" = {
AngleInDegrees = 270;
};
}),
(186,706,o),
(32,536,o),
(32,337,cs,{
"Letterink-NibData" = {
AngleInDegrees = 180;
};
}),
(32,141,o),
(179,-16,o),
(373,-16,cs,{
"Letterink-NibData" = {
AngleInDegrees = 90;
};
})
);
}
);
width = 697;
},
{
anchors = (
{
name = bottom;
pos = (359,31);
},
{
name = top;
pos = (359,662);
}
);
associatedMasterId = m004;
layerId = "4CF65D10-8B5F-49BE-AA91-F2DD426CB74F";
name = "5 Jan 22, 08:04";
shapes = (
{
attr = {
strokeHeight = 74;
strokeWidth = 80;
};
closed = 0;
nodes = (
(464,519,l,{
"Letterink-NibData" = {
AngleInDegrees = 169.50852;
};
}),
(469,492,o),
(493,472,o),
(522,471,cs,{
"Letterink-NibData" = {
AngleInDegrees = 91.33222;
};
}),
(565,470,o),
(590,508,o),
(590,546,cs),
(590,617,o),
(501,674,o),
(380,669,cs,{
"Letterink-NibData" = {
AngleInDegrees = 267.03906;
};
}),
(206,660,o),
(72,523,o),
(72,334,cs,{
"Letterink-NibData" = {
AngleInDegrees = 180;
};
}),
(72,145,o),
(204,15,o),
(378,15,cs,{
"Letterink-NibData" = {
AngleInDegrees = 90;
};
}),
(483,15,o),
(578,63,o),
(624,140,c,{
"Letterink-NibData" = {
AngleInDegrees = 30.8542;
};
})
);
}
);
width = 689;
}
);
metricLeft = O;
metricRight = "=O*.98";
userData = {
position = 570;
width = 54;
};
},
{
glyphname = D;
kernLeft = E;
kernRight = O;
layers = (
{
anchors = (
{
name = bottom;
pos = (374,-10);
},
{
name = center;
pos = (199,367);
},
{
name = top;
pos = (389,684);
}
);
hints = (
{
name = _corner.caps_left;
origin = (0,6);
type = Corner;
}
);
layerId = "0CAF3BED-C4AC-4024-B3E1-4C69D1EF7EC0";
shapes = (
{
closed = 1;
nodes = (
(578,-10,o),
(722,136,o),
(722,342,cs),
(722,535,o),
(595,684,o),
(393,684,c,{
"Letterink-NibData" = {
AngleInDegrees = 270.21459;
};
}),
(147,684,l,{
"Letterink-NibData" = {
AngleInDegrees = 180;
};
}),
(147,609,l,{
"Letterink-NibData" = {
AngleInDegrees = 90;
};
}),
(393,609,ls,{
"Letterink-NibData" = {
AngleInDegrees = 92.97373;
};
}),
(552,609,o),
(640,501,o),
(640,339,cs,{
"Letterink-NibData" = {
AngleInDegrees = 180;
};
}),
(640,163,o),
(534,65,o),
(342,65,cs,{
"Letterink-NibData" = {
AngleInDegrees = 270;
};
}),
(311,65,o),
(271,67,o),
(229,70,c),
(229,651,l,{
"Letterink-NibData" = {
AngleInDegrees = 270;
};
}),
(147,651,l,{
"Letterink-NibData" = {
AngleInDegrees = 180;
};
}),
(147,1,l,{
"Letterink-NibData" = {
AngleInDegrees = 95.10217;
};
}),
(203,-4,ls,{
"Letterink-NibData" = {
AngleInDegrees = 95.12819;
};
}),
(269,-10,o),
(292,-10,o),
(374,-10,cs,{
"Letterink-NibData" = {
AngleInDegrees = 90;
};
})
);
}
);
width = 759;
},
{
anchors = (
{
name = bottom;
pos = (332,-9);
},
{
name = center;
pos = (163,358);
},
{
name = top;
pos = (349,685);
}
);
hints = (
{
name = _corner.caps_left;
origin = (0,6);
type = Corner;
}
);
layerId = "49C16FD3-6177-408B-A733-AEB3898BB77C";
shapes = (
{
closed = 1;
nodes = (
(571,-9,o),
(705,131,o),
(705,342,cs),
(705,541,o),
(581,684,o),
(376,684,cs,{
"Letterink-NibData" = {
AngleInDegrees = 270.22037;
};
}),
(139,684,l,{
"Letterink-NibData" = {
AngleInDegrees = 180;
};
}),
(139,649,l,{
"Letterink-NibData" = {
AngleInDegrees = 90;
};
}),
(371,649,ls,{
"Letterink-NibData" = {
AngleInDegrees = 93.25195;
};
}),
(558,649,o),
(666,525,o),
(666,339,cs,{
"Letterink-NibData" = {
AngleInDegrees = 180;
};
}),
(666,141,o),
(552,26,o),
(346,26,cs,{
"Letterink-NibData" = {
AngleInDegrees = 270;
};
}),
(281,26,o),
(194,29,o),
(177,31,c),
(177,649,l,{
"Letterink-NibData" = {
AngleInDegrees = 270;
};
}),
(139,649,l,{
"Letterink-NibData" = {
AngleInDegrees = 180;
};
}),
(139,0,l,{
"Letterink-NibData" = {
AngleInDegrees = 94.18492;
};
}),
(178,-3,ls,{
"Letterink-NibData" = {
AngleInDegrees = 94.20536;
};
}),
(245,-8,o),
(289,-9,o),
(368,-9,cs,{
"Letterink-NibData" = {
AngleInDegrees = 90;
};
})
);
}
);
width = 749;
},
{
anchors = (
{
name = bottom;
pos = (441,-2);
},
{
name = center;
pos = (275,353);
},
{
name = top;
pos = (450,684);
}
);
hints = (
{
name = _corner.caps_left;
origin = (0,6);
type = Corner;
}
);
layerId = m004;
shapes = (
{
closed = 1;
nodes = (
(626,-14,o),
(781,135,o),
(781,346,cs),
(781,531,o),
(646,684,o),
(443,684,cs,{
"Letterink-NibData" = {
AngleInDegrees = "270.21459";
};
}),
(187,684,l,{
"Letterink-NibData" = {
AngleInDegrees = "180";
};
}),
(187,536,l,{
"Letterink-NibData" = {
AngleInDegrees = "90";
};
}),
(444,536,ls,{
"Letterink-NibData" = {
AngleInDegrees = "92.97373";
};
}),
(553,536,o),
(613,461,o),
(613,343,cs,{
"Letterink-NibData" = {
AngleInDegrees = "180";
};
}),
(613,217,o),
(542,141,o),
(425,141,cs,{
"Letterink-NibData" = {
AngleInDegrees = "270";
};
}),
(394,141,o),
(376,142,o),
(352,146,c),
(352,655,l,{
"Letterink-NibData" = {
AngleInDegrees = "270";
};
}),
(187,655,l,{
"Letterink-NibData" = {
AngleInDegrees = "180";
};
}),
(187,5,l,{
"Letterink-NibData" = {
AngleInDegrees = "95.10217";
};
}),
(257,-3,ls,{
"Letterink-NibData" = {
AngleInDegrees = "95.12819";
};
}),
(297,-8,o),
(330,-9,o),
(410,-10,cs,{
"Letterink-NibData" = {
AngleInDegrees = "90";
};
})
);
}
);
width = 807;
}
);
metricLeft = E;
metricRight = O;
unicode = 68;
userData = {
position = 674;
width = 60;
};
},
{
glyphname = D.ss01;
kernLeft = L;
kernRight = O;
layers = (
{
anchors = (
{
name = bottom;
pos = (303,-10);
},
{
name = center;
pos = (158,367);
},
{
name = top;
pos = (290,681);
}
);
layerId = "0CAF3BED-C4AC-4024-B3E1-4C69D1EF7EC0";
shapes = (
{
closed = 1;
nodes = (
(507,-10,o),
(651,136,o),
(651,342,cs),
(651,535,o),
(524,672,o),
(333,684,c,{
"Letterink-NibData" = {
AngleInDegrees = 270.21459;
};
}),
(76,685,l,{
"Letterink-NibData" = {
AngleInDegrees = 180;
};
}),
(76,608,l,{
"Letterink-NibData" = {
AngleInDegrees = 90;
};
}),
(322,608,l,{
"Letterink-NibData" = {
AngleInDegrees = 92.97373;
};
}),
(479,600,o),
(569,501,o),
(569,339,cs,{
"Letterink-NibData" = {
AngleInDegrees = 180;
};
}),
(569,163,o),
(463,65,o),
(271,65,cs,{
"Letterink-NibData" = {
AngleInDegrees = 270;
};
}),
(240,65,o),
(200,67,o),
(158,70,c),
(158,651,l,{
"Letterink-NibData" = {
AngleInDegrees = 270;
};
}),
(76,651,l,{
"Letterink-NibData" = {
AngleInDegrees = 180;
};
}),
(76,1,l,{
"Letterink-NibData" = {
AngleInDegrees = 95.10217;
};
}),
(132,-4,ls,{
"Letterink-NibData" = {
AngleInDegrees = 95.12819;
};
}),
(198,-10,o),
(200,-10,o),
(303,-10,cs,{
"Letterink-NibData" = {
AngleInDegrees = 90;
};
})
);
}
);
width = 688;
},
{
anchors = (
{
name = bottom;
pos = (248,-11);
},
{
name = center;
pos = (122,358);
},
{
name = top;
pos = (358,690);
}
);
layerId = "49C16FD3-6177-408B-A733-AEB3898BB77C";
shapes = (
{
closed = 1;
nodes = (
(516,-9,o),
(650,131,o),
(650,342,cs),
(650,541,o),
(526,672,o),
(333,684,c,{
"Letterink-NibData" = {
AngleInDegrees = 270.22037;
};
}),
(84,685,l,{
"Letterink-NibData" = {
AngleInDegrees = 180;
};
}),
(84,649,l,{
"Letterink-NibData" = {
AngleInDegrees = 90;
};
}),
(324,649,l,{
"Letterink-NibData" = {
AngleInDegrees = 93.25195;
};
}),
(503,639,o),
(611,525,o),
(611,339,cs,{
"Letterink-NibData" = {
AngleInDegrees = 180;
};
}),
(611,141,o),
(497,26,o),
(291,26,cs,{
"Letterink-NibData" = {
AngleInDegrees = 270;
};
}),
(226,26,o),
(139,29,o),
(122,31,c),
(122,649,l,{
"Letterink-NibData" = {
AngleInDegrees = 270;
};
}),
(84,649,l,{
"Letterink-NibData" = {
AngleInDegrees = 180;
};
}),
(84,0,l,{
"Letterink-NibData" = {
AngleInDegrees = 94.18492;
};
}),
(123,-3,ls,{
"Letterink-NibData" = {
AngleInDegrees = 94.20536;
};
}),
(190,-8,o),
(234,-9,o),
(313,-9,cs,{
"Letterink-NibData" = {
AngleInDegrees = 90;
};
})
);
}
);
width = 694;
},
{
anchors = (
{
name = bottom;
pos = (281,-10);
},
{
name = center;
pos = (173,360);
},
{
name = top;
pos = (297,685);
}
);
layerId = m004;
shapes = (
{
closed = 1;
nodes = (
(516,-14,o),
(655,151,o),
(655,346,cs),
(655,523,o),
(527,673,o),
(317,684,c,{
"Letterink-NibData" = {
AngleInDegrees = "270.21459";
};
}),
(58,684,l,{
"Letterink-NibData" = {
AngleInDegrees = "180";
};
}),
(58,532,l,{
"Letterink-NibData" = {
AngleInDegrees = "90";
};
}),
(315,532,l,{
"Letterink-NibData" = {
AngleInDegrees = "92.97373";
};
}),
(438,528,o),
(487,448,o),
(487,343,cs,{
"Letterink-NibData" = {
AngleInDegrees = "180";
};
}),
(487,212,o),
(411,141,o),
(296,141,cs,{
"Letterink-NibData" = {
AngleInDegrees = "270";
};
}),
(275,141,o),
(248,141,o),
(223,146,c),
(223,655,l,{
"Letterink-NibData" = {
AngleInDegrees = "270";
};
}),
(58,655,l,{
"Letterink-NibData" = {
AngleInDegrees = "180";
};
}),
(58,5,l,{
"Letterink-NibData" = {
AngleInDegrees = "95.10217";
};
}),
(148,-4,ls,{
"Letterink-NibData" = {
AngleInDegrees = "95.12819";
};
}),
(151,-4,o),
(155,-8,o),
(281,-10,cs,{
"Letterink-NibData" = {
AngleInDegrees = "90";
};
})
);
}
);
width = 681;
}
);
metricLeft = "=|H";
metricRight = O;
userData = {
position = 674;
width = 60;
};
},
{
glyphname = D.swsh;
kernLeft = Swash;
kernRight = O;
layers = (
{
background = {
anchors = (
{
name = bottom;
pos = (419,0);
},
{
name = center;
pos = (444,11);
},
{
name = top;
pos = (444,11);
}
);
hints = (
{
name = _corner.caps_swash;
origin = (0,7);
type = Corner;
}
);
shapes = (
{
closed = 1;
nodes = (
(383,-10,ls,{
"Letterink-NibData" = {
AngleInDegrees = 90;
};
}),
(587,-10,o),
(732,138,o),
(732,342,cs),
(732,532,o),
(605,678,o),
(413,690,c,{
"Letterink-NibData" = {
AngleInDegrees = 270.20033;
};
}),
(157,691,l,{
"Letterink-NibData" = {
AngleInDegrees = 180;
};
}),
(157,615,l,{
"Letterink-NibData" = {
AngleInDegrees = 90;
};
}),
(402,615,l,{
"Letterink-NibData" = {
AngleInDegrees = 93.55173;
};
}),
(547,606,o),
(650,517,o),
(650,342,cs,{
"Letterink-NibData" = {
AngleInDegrees = 180;
};
}),
(650,175,o),
(557,66,o),
(345,66,cs,{
"Letterink-NibData" = {
AngleInDegrees = 270;
};
}),
(318,66,o),
(292,69,o),
(258,71,c),
(258,559,l,{
"Letterink-NibData" = {
AngleInDegrees = 270;
};
}),
(176,559,l,{
"Letterink-NibData" = {
AngleInDegrees = 180;
};
}),
(176,1,l,{
"Letterink-NibData" = {
AngleInDegrees = 95.01311;
};
}),
(233,-4,ls,{
"Letterink-NibData" = {
AngleInDegrees = 94.93922;
};
}),
(302,-10,o),
(301,-10,o),
(343,-10,cs,{
"Letterink-NibData" = {
AngleInDegrees = 90;
};
})
);
}
);
};
hints = (
{
name = _corner.caps_swash;
origin = (0,6);
type = Corner;
}
);
layerId = "0CAF3BED-C4AC-4024-B3E1-4C69D1EF7EC0";
shapes = (
{
closed = 1;
nodes = (
(611,-10,o),
(755,136,o),
(755,342,cs),
(755,535,o),
(628,672,o),
(437,684,c,{
"Letterink-NibData" = {
AngleInDegrees = "270.21459";
};
}),
(180,685,l,{
"Letterink-NibData" = {
AngleInDegrees = "180";
};
}),
(180,608,l,{
"Letterink-NibData" = {
AngleInDegrees = "90";
};
}),
(426,608,l,{
"Letterink-NibData" = {
AngleInDegrees = "92.97373";
};
}),
(583,600,o),
(673,501,o),
(673,339,cs,{
"Letterink-NibData" = {
AngleInDegrees = "180";
};
}),
(673,163,o),
(567,65,o),
(375,65,cs,{
"Letterink-NibData" = {
AngleInDegrees = "270";
};
}),
(344,65,o),
(304,67,o),
(262,70,c),
(262,560,l,{
"Letterink-NibData" = {
AngleInDegrees = "270";
};
}),
(180,560,l,{
"Letterink-NibData" = {
AngleInDegrees = "180";
};
}),
(180,1,l,{
"Letterink-NibData" = {
AngleInDegrees = "95.10217";
};
}),
(236,-4,ls,{
"Letterink-NibData" = {
AngleInDegrees = "95.12819";
};
}),
(302,-10,o),
(304,-10,o),
(407,-10,cs,{
"Letterink-NibData" = {
AngleInDegrees = "90";
};
})
);
}
);
width = 792;
},
{
background = {
anchors = (
{
name = bottom;
pos = (400,0);
},
{
name = center;
pos = (418,-8);
},
{
name = top;
pos = (418,-8);
}
);
hints = (
{
name = _corner.caps_swash;
origin = (0,7);
type = Corner;
}
);
shapes = (
{
closed = 1;
nodes = (
(367,-9,ls,{
"Letterink-NibData" = {
AngleInDegrees = 90;
};
}),
(555,-9,o),
(704,122,o),
(704,342,cs),
(704,535,o),
(589,690,o),
(387,690,c,{
"Letterink-NibData" = {
AngleInDegrees = 270.19689;
};
}),
(126,691,l,{
"Letterink-NibData" = {
AngleInDegrees = 180;
};
}),
(126,651,l,{
"Letterink-NibData" = {
AngleInDegrees = 90;
};
}),
(377,651,l,{
"Letterink-NibData" = {
AngleInDegrees = 90;
};
}),
(540,651,o),
(662,535,o),
(662,349,cs,{
"Letterink-NibData" = {
AngleInDegrees = 180;
};
}),
(662,161,o),
(553,30,o),
(339,30,cs,{
"Letterink-NibData" = {
AngleInDegrees = 270;
};
}),
(316,30,o),
(260,32,o),
(198,35,c),
(198,573,l,{
"Letterink-NibData" = {
AngleInDegrees = 270;
};
}),
(156,573,l,{
"Letterink-NibData" = {
AngleInDegrees = 180;
};
}),
(156,0,l,{
"Letterink-NibData" = {
AngleInDegrees = 94.28915;
};
}),
(196,-3,ls,{
"Letterink-NibData" = {
AngleInDegrees = 93.66779;
};
}),
(275,-9,o),
(284,-9,o),
(323,-9,cs,{
"Letterink-NibData" = {
AngleInDegrees = 90;
};
})
);
}
);
};
hints = (
{
name = _corner.caps_swash;
origin = (0,6);
type = Corner;
}
);
layerId = "49C16FD3-6177-408B-A733-AEB3898BB77C";
shapes = (
{
closed = 1;
nodes = (
(592,-9,o),
(726,131,o),
(726,342,cs),
(726,541,o),
(602,672,o),
(409,684,c,{
"Letterink-NibData" = {
AngleInDegrees = "270.22037";
};
}),
(160,685,l,{
"Letterink-NibData" = {
AngleInDegrees = "180";
};
}),
(160,649,l,{
"Letterink-NibData" = {
AngleInDegrees = "90";
};
}),
(400,649,l,{
"Letterink-NibData" = {
AngleInDegrees = 93.25195;
};
}),
(579,639,o),
(687,524,o),
(687,339,cs,{
"Letterink-NibData" = {
AngleInDegrees = "180";
};
}),
(687,141,o),
(573,26,o),
(367,26,cs,{
"Letterink-NibData" = {
AngleInDegrees = "270";
};
}),
(302,26,o),
(215,29,o),
(198,31,c),
(198,569,l,{
"Letterink-NibData" = {
AngleInDegrees = "270";
};
}),
(160,569,l,{
"Letterink-NibData" = {
AngleInDegrees = "180";
};
}),
(160,0,l,{
"Letterink-NibData" = {
AngleInDegrees = 94.18492;
};
}),
(199,-3,ls,{
"Letterink-NibData" = {
AngleInDegrees = "94.20536";
};
}),
(266,-8,o),
(310,-9,o),
(389,-9,cs,{
"Letterink-NibData" = {
AngleInDegrees = "90";
};
})
);
}
);
width = 770;
},
{
background = {
anchors = (
{
name = bottom;
pos = (498,0);
},
{
name = center;
pos = (523,11);
},
{
name = top;
pos = (523,11);
}
);
hints = (
{
name = _corner.caps_swash;
origin = (0,7);
type = Corner;
}
);
shapes = (
{
closed = 1;
nodes = (
(462,-10,ls,{
"Letterink-NibData" = {
AngleInDegrees = 90;
};
}),
(666,-10,o),
(811,138,o),
(811,342,cs),
(811,532,o),
(684,678,o),
(492,690,c,{
"Letterink-NibData" = {
AngleInDegrees = 270.20033;
};
}),
(236,691,l,{
"Letterink-NibData" = {
AngleInDegrees = 180;
};
}),
(236,615,l,{
"Letterink-NibData" = {
AngleInDegrees = 90;
};
}),
(481,615,l,{
"Letterink-NibData" = {
AngleInDegrees = 93.55173;
};
}),
(626,606,o),
(729,517,o),
(729,342,cs,{
"Letterink-NibData" = {
AngleInDegrees = 180;
};
}),
(729,175,o),
(636,66,o),
(424,66,cs,{
"Letterink-NibData" = {
AngleInDegrees = 270;
};
}),
(397,66,o),
(371,69,o),
(337,71,c),
(337,559,l,{
"Letterink-NibData" = {
AngleInDegrees = 270;
};
}),
(255,559,l,{
"Letterink-NibData" = {
AngleInDegrees = 180;
};
}),
(255,1,l,{
"Letterink-NibData" = {
AngleInDegrees = 95.01311;
};
}),
(312,-4,ls,{
"Letterink-NibData" = {
AngleInDegrees = 94.93922;
};
}),
(381,-10,o),
(380,-10,o),
(422,-10,cs,{
"Letterink-NibData" = {
AngleInDegrees = 90;
};
})
);
}
);
};
hints = (
{
name = _corner.caps_swash;
origin = (0,6);
type = Corner;
}
);
layerId = m004;
shapes = (
{
closed = 1;
nodes = (
(679,-10,o),
(818,151,o),
(818,341,cs),
(818,523,o),
(690,672,o),
(494,684,c,{
"Letterink-NibData" = {
AngleInDegrees = "270.21459";
};
}),
(222,685,l,{
"Letterink-NibData" = {
AngleInDegrees = "180";
};
}),
(222,536,l,{
"Letterink-NibData" = {
AngleInDegrees = "90";
};
}),
(479,536,l,{
"Letterink-NibData" = {
AngleInDegrees = "92.97373";
};
}),
(601,532,o),
(650,448,o),
(650,346,cs,{
"Letterink-NibData" = {
AngleInDegrees = "180";
};
}),
(650,212,o),
(566,141,o),
(457,141,cs,{
"Letterink-NibData" = {
AngleInDegrees = "270";
};
}),
(439,141,o),
(410,143,o),
(387,146,c),
(387,499,l,{
"Letterink-NibData" = {
AngleInDegrees = "270";
};
}),
(222,499,l,{
"Letterink-NibData" = {
AngleInDegrees = "180";
};
}),
(222,5,l,{
"Letterink-NibData" = {
AngleInDegrees = "95.10217";
};
}),
(312,-4,ls,{
"Letterink-NibData" = {
AngleInDegrees = "95.12819";
};
}),
(346,-7,o),
(391,-10,o),
(420,-10,cs,{
"Letterink-NibData" = {
AngleInDegrees = "90";
};
})
);
}
);
width = 844;
}
);
metricLeft = E;
metricRight = O;
userData = {
position = 674;
width = 60;
};
},
{
glyphname = E;
kernLeft = E;
kernRight = E;
layers = (
{
anchors = (
{
name = bottom;
pos = (386,0);
},
{
name = ogonek;
pos = (616,-1);
},
{
name = top;
pos = (386,684);
},
{
name = topleft;
pos = (75,684);
}
);
hints = (
{
name = _corner.caps_left;
origin = (0,10);
type = Corner;
}
);
layerId = "0CAF3BED-C4AC-4024-B3E1-4C69D1EF7EC0";
shapes = (
{
closed = 1;
nodes = (
(616,-1,l),
(616,75,l,{
"Letterink-NibData" = {
AngleInDegrees = "270";
};
}),
(229,75,l),
(229,323,l,{
"Letterink-NibData" = {
AngleInDegrees = "90";
};
}),
(500,323,l),
(500,399,l,{
"Letterink-NibData" = {
AngleInDegrees = "270";
};
}),
(229,399,l),
(229,608,l,{
"Letterink-NibData" = {
AngleInDegrees = "90";
};
}),
(597,608,l),
(597,684,l,{
"Letterink-NibData" = {
AngleInDegrees = "270";
};
}),
(147,684,l,{
"Letterink-NibData" = {
AngleInDegrees = "180";
};
}),
(147,-1,l,{
"Letterink-NibData" = {
AngleInDegrees = "90";
};
})
);
}
);
width = 639;
},
{
anchors = (
{
name = bottom;
pos = (350,7);
},
{
name = ogonek;
pos = (562,1);
},
{
name = top;
pos = (350,684);
},
{
name = topleft;
pos = (36,684);
}
);
hints = (
{
name = _corner.caps_left;
origin = (0,10);
type = Corner;
}
);
layerId = "49C16FD3-6177-408B-A733-AEB3898BB77C";
shapes = (
{
closed = 1;
nodes = (
(563,0,l),
(563,36,l,{
"Letterink-NibData" = {
AngleInDegrees = 270;
};
}),
(177,36,l),
(177,346,l,{
"Letterink-NibData" = {
AngleInDegrees = 90;
};
}),
(440,346,l),
(440,382,l,{
"Letterink-NibData" = {
AngleInDegrees = 270;
};
}),
(177,382,l),
(177,649,l,{
"Letterink-NibData" = {
AngleInDegrees = 90;
};
}),
(565,649,l),
(565,685,l,{
"Letterink-NibData" = {
AngleInDegrees = 269.86613;
};
}),
(139,684,l,{
"Letterink-NibData" = {
AngleInDegrees = 180;
};
}),
(139,0,l,{
"Letterink-NibData" = {
AngleInDegrees = 90;
};
})
);
}
);
width = 590;
},
{
anchors = (
{
name = bottom;
pos = (427,0);
},
{
name = ogonek;
pos = (649,0);
},
{
name = top;
pos = (428,684);
},
{
name = topleft;
pos = (187,684);
}
);
hints = (
{
name = _corner.caps_left;
origin = (0,10);
type = Corner;
}
);
layerId = m004;
shapes = (
{
closed = 1;
nodes = (
(649,0,l),
(649,148,l,{
"Letterink-NibData" = {
AngleInDegrees = "270";
};
}),
(353,148,l),
(353,273,l,{
"Letterink-NibData" = {
AngleInDegrees = "90";
};
}),
(553,273,l),
(553,421,l,{
"Letterink-NibData" = {
AngleInDegrees = "270";
};
}),
(353,421,l),
(353,536,l,{
"Letterink-NibData" = {
AngleInDegrees = "90";
};
}),
(639,536,l),
(639,684,l,{
"Letterink-NibData" = {
AngleInDegrees = "270";
};
}),
(187,684,l,{
"Letterink-NibData" = {
AngleInDegrees = "180";
};
}),
(187,0,l,{
"Letterink-NibData" = {
AngleInDegrees = "90";
};
})
);
}
);
width = 680;
}
);
unicode = 69;
userData = {
position = 130;
width = 61;
};
},
{
glyphname = E.ss01;
kernLeft = L;
kernRight = E;
layers = (
{
anchors = (
{
name = bottom;
pos = (314,0);
},
{
name = ogonek;
pos = (545,-1);
},
{
name = top;
pos = (316,685);
},
{
name = topleft;
pos = (12,684);
}
);
layerId = "0CAF3BED-C4AC-4024-B3E1-4C69D1EF7EC0";
shapes = (
{
closed = 1;
nodes = (
(545,-1,l),
(545,75,l,{
"Letterink-NibData" = {
AngleInDegrees = 270;
};
}),
(158,75,l),
(158,323,l,{
"Letterink-NibData" = {
AngleInDegrees = 90;
};
}),
(429,323,l),
(429,399,l,{
"Letterink-NibData" = {
AngleInDegrees = 270;
};
}),
(158,399,l),
(158,608,l,{
"Letterink-NibData" = {
AngleInDegrees = 90;
};
}),
(526,608,l),
(526,684,l,{
"Letterink-NibData" = {
AngleInDegrees = 270;
};
}),
(76,684,l,{
"Letterink-NibData" = {
AngleInDegrees = 180;
};
}),
(76,-1,l,{
"Letterink-NibData" = {
AngleInDegrees = 90;
};
})
);
}
);
width = 568;
},
{
anchors = (
{
name = bottom;
pos = (312,2);
},
{
name = ogonek;
pos = (534,1);
},
{
name = top;
pos = (310,684);
},
{
name = topleft;
pos = (18,684);
}
);
layerId = "49C16FD3-6177-408B-A733-AEB3898BB77C";
shapes = (
{
closed = 1;
nodes = (
(534,0,l),
(534,36,l,{
"Letterink-NibData" = {
AngleInDegrees = 270;
};
}),
(122,36,l),
(122,346,l,{
"Letterink-NibData" = {
AngleInDegrees = 90;
};
}),
(411,346,l),
(411,382,l,{
"Letterink-NibData" = {
AngleInDegrees = 270;
};
}),
(122,382,l),
(122,649,l,{
"Letterink-NibData" = {
AngleInDegrees = 90;
};
}),
(514,649,l),
(514,685,l,{
"Letterink-NibData" = {
AngleInDegrees = 270;
};
}),
(84,685,l,{
"Letterink-NibData" = {
AngleInDegrees = 180;
};
}),
(84,0,l,{
"Letterink-NibData" = {
AngleInDegrees = 90;
};
})
);
}
);
width = 559;
},
{
anchors = (
{
name = bottom;
pos = (314,0);
},
{
name = ogonek;
pos = (549,0);
},
{
name = top;
pos = (301,687);
},
{
name = topleft;
pos = (57,684);
}
);
layerId = m004;
shapes = (
{
closed = 1;
nodes = (
(549,0,l),
(549,148,l,{
"Letterink-NibData" = {
AngleInDegrees = 270;
};
}),
(223,148,l),
(223,273,l,{
"Letterink-NibData" = {
AngleInDegrees = 90;
};
}),
(453,273,l),
(453,411,l,{
"Letterink-NibData" = {
AngleInDegrees = 270;
};
}),
(223,411,l),
(223,536,l,{
"Letterink-NibData" = {
AngleInDegrees = 90;
};
}),
(539,536,l),
(539,684,l,{
"Letterink-NibData" = {
AngleInDegrees = 270;
};
}),
(58,684,l,{
"Letterink-NibData" = {
AngleInDegrees = 180;
};
}),
(58,0,l,{
"Letterink-NibData" = {
AngleInDegrees = 90;
};
})
);
}
);
width = 580;
}
);
metricLeft = "=|H";
metricRight = E;
userData = {
position = 95;
width = 61;
};
},
{
glyphname = E.swsh;
kernLeft = Swash;
kernRight = E;
layers = (
{
anchors = (
{
name = bottom;
pos = (447,0);
},
{
name = ogonek;
pos = (665,0);
},
{
name = top;
pos = (440,684);
},
{
name = topleft;
pos = (48,684);
}
);
hints = (
{
name = _corner.caps_swash;
origin = (1,2);
type = Corner;
}
);
layerId = "0CAF3BED-C4AC-4024-B3E1-4C69D1EF7EC0";
shapes = (
{
closed = 1;
nodes = (
(665,0,l),
(665,76,l,{
"Letterink-NibData" = {
AngleInDegrees = 270;
};
}),
(299,76,l),
(299,325,l,{
"Letterink-NibData" = {
AngleInDegrees = 90;
};
}),
(549,325,l),
(549,401,l,{
"Letterink-NibData" = {
AngleInDegrees = 270;
};
}),
(299,401,l),
(299,559,l,{
"Letterink-NibData" = {
AngleInDegrees = 270;
};
}),
(217,559,l,{
"Letterink-NibData" = {
AngleInDegrees = 180;
};
}),
(217,0,l,{
"Letterink-NibData" = {
AngleInDegrees = 90;
};
})
);
},
{
closed = 1;
nodes = (
(665,609,l),
(665,685,l,{
"Letterink-NibData" = {
AngleInDegrees = 270;
};
}),
(192,685,l,{
"Letterink-NibData" = {
AngleInDegrees = 180;
};
}),
(192,609,l,{
"Letterink-NibData" = {
AngleInDegrees = 90;
};
})
);
}
);
width = 688;
},
{
anchors = (
{
name = bottom;
pos = (429,0);
},
{
name = ogonek;
pos = (637,0);
},
{
name = top;
pos = (419,684);
},
{
name = topleft;
pos = (23,684);
}
);
hints = (
{
name = _corner.caps_swash;
origin = (1,2);
type = Corner;
}
);
layerId = "49C16FD3-6177-408B-A733-AEB3898BB77C";
shapes = (
{
closed = 1;
nodes = (
(637,0,l),
(637,36,l,{
"Letterink-NibData" = {
AngleInDegrees = 270;
};
}),
(245,36,l),
(245,346,l,{
"Letterink-NibData" = {
AngleInDegrees = 90;
};
}),
(513,346,l),
(513,382,l,{
"Letterink-NibData" = {
AngleInDegrees = 270;
};
}),
(245,382,l),
(245,570,l,{
"Letterink-NibData" = {
AngleInDegrees = 270;
};
}),
(208,570,l,{
"Letterink-NibData" = {
AngleInDegrees = 180;
};
}),
(208,0,l,{
"Letterink-NibData" = {
AngleInDegrees = 90;
};
})
);
},
{
closed = 1;
nodes = (
(637,648,l),
(637,684,l,{
"Letterink-NibData" = {
AngleInDegrees = 270;
};
}),
(174,684,l,{
"Letterink-NibData" = {
AngleInDegrees = 180;
};
}),
(174,648,l,{
"Letterink-NibData" = {
AngleInDegrees = 90;
};
})
);
}
);
width = 662;
},
{
anchors = (
{
name = bottom;
pos = (485,0);
},
{
name = ogonek;
pos = (716,0);
},
{
name = top;
pos = (473,684);
},
{
name = topleft;
pos = (25,728);
}
);
hints = (
{
name = _corner.caps_swash;
origin = (1,2);
type = Corner;
}
);
layerId = m004;
shapes = (
{
closed = 1;
nodes = (
(716,0,l),
(716,148,l,{
"Letterink-NibData" = {
AngleInDegrees = "270";
};
}),
(400,148,l),
(400,276,l,{
"Letterink-NibData" = {
AngleInDegrees = "90";
};
}),
(620,276,l),
(620,414,l,{
"Letterink-NibData" = {
AngleInDegrees = "270";
};
}),
(400,414,l),
(400,501,l,{
"Letterink-NibData" = {
AngleInDegrees = "90";
};
}),
(234,500,l,{
"Letterink-NibData" = {
AngleInDegrees = "180";
};
}),
(234,0,l,{
"Letterink-NibData" = {
AngleInDegrees = "90";
};
})
);
},
{
closed = 1;
nodes = (
(706,536,l),
(706,684,l,{
"Letterink-NibData" = {
AngleInDegrees = "270";
};
}),
(234,684,l,{
"Letterink-NibData" = {
AngleInDegrees = "180";
};
}),
(234,536,l)
);
}
);
width = 747;
}
);
metricRight = E;
userData = {
position = 130;
width = 61;
};
},
{
glyphname = Schwa;
kernLeft = O;
kernRight = O;
layers = (
{
anchors = (
{
name = bottom;
pos = (309,-14);
},
{
name = ogonek;
pos = (530,85);
},
{
name = top;
pos = (310,701);
}
);
layerId = "49C16FD3-6177-408B-A733-AEB3898BB77C";
shapes = (
{
closed = 1;
nodes = (
(489,-16,o),
(615,128,o),
(615,365,cs,{
"Letterink-NibData" = {
AngleInDegrees = 180;
};
}),
(615,566,o),
(508,701,o),
(310,701,cs,{
"Letterink-NibData" = {
AngleInDegrees = 90;
};
}),
(224,701,o),
(142,679,o),
(71,630,c,{
"Letterink-NibData" = {
AngleInDegrees = 328.49573;
};
}),
(87,604,l,{
"Letterink-NibData" = {
AngleInDegrees = 241.38954;
};
}),
(165,648,o),
(225,668,o),
(300,668,cs,{
"Letterink-NibData" = {
AngleInDegrees = 270;
};
}),
(557,668,o),
(580,442,o),
(580,359,cs),
(580,168,o),
(472,16,o),
(307,16,cs,{
"Letterink-NibData" = {
AngleInDegrees = 90;
};
}),
(184,16,o),
(80,121,o),
(80,267,cs,{
"Letterink-NibData" = {
AngleInDegrees = 180;
};
}),
(80,278,o),
(81,315,o),
(88,351,c,{
"Letterink-NibData" = {
AngleInDegrees = 90;
};
}),
(49,351,l,{
"Letterink-NibData" = {
AngleInDegrees = 4.96974;
};
}),
(46,316,o),
(44,291,o),
(44,270,cs),
(44,99,o),
(152,-12,o),
(309,-14,cs,{
"Letterink-NibData" = {
AngleInDegrees = 270.42128;
};
})
);
},
{
closed = 1;
nodes = (
(587,318,l,{
"Letterink-NibData" = {
AngleInDegrees = 180;
};
}),
(587,351,l,{
"Letterink-NibData" = {
AngleInDegrees = 90;
};
}),
(75,351,l),
(75,318,l,{
"Letterink-NibData" = {
AngleInDegrees = 270;
};
})
);
}
);
userData = {
RMXScaler = {
height = 140;
weight = -145;
width = 135;
};
};
width = 659;
},
{
anchors = (
{
name = bottom;
pos = (319,0);
},
{
name = ogonek;
pos = (607,68);
},
{
name = top;
pos = (319,712);
}
);
layerId = "0CAF3BED-C4AC-4024-B3E1-4C69D1EF7EC0";
shapes = (
{
closed = 1;
nodes = (
(523,-15,o),
(633,177,o),
(633,369,cs,{
"Letterink-NibData" = {
AngleInDegrees = 180;
};
}),
(633,568,o),
(521,712,o),
(319,712,cs,{
"Letterink-NibData" = {
AngleInDegrees = 90;
};
}),
(226,712,o),
(131,683,o),
(63,629,c,{
"Letterink-NibData" = {
AngleInDegrees = 328.49573;
};
}),
(99,569,l,{
"Letterink-NibData" = {
AngleInDegrees = 235.0806;
};
}),
(178,621,o),
(240,635,o),
(314,635,cs,{
"Letterink-NibData" = {
AngleInDegrees = 270;
};
}),
(536,635,o),
(549,442,o),
(549,370,cs),
(549,169,o),
(444,62,o),
(319,62,cs,{
"Letterink-NibData" = {
AngleInDegrees = 90;
};
}),
(209,62,o),
(121,153,o),
(121,273,cs,{
"Letterink-NibData" = {
AngleInDegrees = 180;
};
}),
(121,301,o),
(125,337,o),
(131,377,c,{
"Letterink-NibData" = {
AngleInDegrees = 90;
};
}),
(43,377,l,{
"Letterink-NibData" = {
AngleInDegrees = 4.08562;
};
}),
(41,342,o),
(37,313,o),
(37,277,cs),
(37,113,o),
(160,-15,o),
(318,-15,cs,{
"Letterink-NibData" = {
AngleInDegrees = 270;
};
})
);
},
{
closed = 1;
nodes = (
(606,300,l,{
"Letterink-NibData" = {
AngleInDegrees = 180;
};
}),
(606,377,l,{
"Letterink-NibData" = {
AngleInDegrees = 90;
};
}),
(74,377,l),
(74,300,l,{
"Letterink-NibData" = {
AngleInDegrees = 270;
};
})
);
}
);
userData = {
RMXScaler = {
height = 140;
weight = -120;
width = 135;
};
};
width = 670;
},
{
anchors = (
{
name = bottom;
pos = (352,48);
},
{
name = ogonek;
pos = (656,96);
},
{
name = top;
pos = (348,697);
}
);
layerId = m004;
shapes = (
{
closed = 1;
nodes = (
(530,-20,o),
(651,161,o),
(651,354,cs,{
"Letterink-NibData" = {
AngleInDegrees = 180;
};
}),
(651,549,o),
(532,705,o),
(321,705,cs,{
"Letterink-NibData" = {
AngleInDegrees = 90;
};
}),
(205,705,o),
(90,659,o),
(36,592,c,{
"Letterink-NibData" = {
AngleInDegrees = 328.49573;
};
}),
(118,476,l,{
"Letterink-NibData" = {
AngleInDegrees = 235.0806;
};
}),
(169,529,o),
(241,558,o),
(310,558,cs,{
"Letterink-NibData" = {
AngleInDegrees = 270;
};
}),
(451,558,o),
(471,437,o),
(471,354,cs),
(471,198,o),
(397,129,o),
(321,129,cs,{
"Letterink-NibData" = {
AngleInDegrees = 90;
};
}),
(256,129,o),
(201,184,o),
(201,264,cs,{
"Letterink-NibData" = {
AngleInDegrees = 180;
};
}),
(201,299,o),
(201,334,o),
(212,399,c,{
"Letterink-NibData" = {
AngleInDegrees = 90;
};
}),
(35,399,l,{
"Letterink-NibData" = {
AngleInDegrees = 4.08562;
};
}),
(29,354,o),
(26,316,o),
(26,268,cs),
(26,100,o),
(150,-18,o),
(318,-19,cs,{
"Letterink-NibData" = {
AngleInDegrees = 270;
};
})
);
},
{
closed = 1;
nodes = (
(633,261,l,{
"Letterink-NibData" = {
AngleInDegrees = 180;
};
}),
(633,399,l,{
"Letterink-NibData" = {
AngleInDegrees = 90;
};
}),
(46,399,l),
(46,261,l,{
"Letterink-NibData" = {
AngleInDegrees = 270;
};
})
);
}
);
userData = {
RMXScaler = {
height = 140;
weight = 200;
width = 135;
};
};
width = 677;
}
);
metricLeft = O;
metricRight = O;
unicode = 399;
userData = {
RMXScaler = {
source = e.ss01;
};
};
},
{
glyphname = F;
kernLeft = E;
kernRight = F;
layers = (
{
anchors = (
{
name = bottom;
pos = (361,0);
},
{
name = top;
pos = (362,684);
}
);
hints = (
{
name = _corner.caps_left;
origin = (0,8);
type = Corner;
}
);
layerId = "0CAF3BED-C4AC-4024-B3E1-4C69D1EF7EC0";
shapes = (
{
closed = 1;
nodes = (
(230,-1,l),
(230,323,l,{
"Letterink-NibData" = {
AngleInDegrees = 90;
};
}),
(480,323,l),
(480,400,l,{
"Letterink-NibData" = {
AngleInDegrees = 270;
};
}),
(230,400,l),
(230,609,l,{
"Letterink-NibData" = {
AngleInDegrees = 90;
};
}),
(566,609,l),
(566,685,l,{
"Letterink-NibData" = {
AngleInDegrees = 270;
};
}),
(147,685,l,{
"Letterink-NibData" = {
AngleInDegrees = 179.91648;
};
}),
(148,-1,l,{
"Letterink-NibData" = {
AngleInDegrees = 90;
};
})
);
}
);
width = 584;
},
{
anchors = (
{
name = bottom;
pos = (353,-18);
},
{
name = top;
pos = (355,684);
}
);
hints = (
{
name = _corner.caps_left;
origin = (0,8);
type = Corner;
}
);
layerId = "49C16FD3-6177-408B-A733-AEB3898BB77C";
shapes = (
{
closed = 1;
nodes = (
(177,0,l),
(177,345,l,{
"Letterink-NibData" = {
AngleInDegrees = 90;
};
}),
(444,345,l),
(444,381,l,{
"Letterink-NibData" = {
AngleInDegrees = 270;
};
}),
(177,381,l),
(177,648,l,{
"Letterink-NibData" = {
AngleInDegrees = 90;
};
}),
(537,648,l),
(537,684,l,{
"Letterink-NibData" = {
AngleInDegrees = 270;
};
}),
(139,684,l,{
"Letterink-NibData" = {
AngleInDegrees = 180;
};
}),
(139,0,l,{
"Letterink-NibData" = {
AngleInDegrees = 90;
};
})
);
}
);
width = 557;
},
{
anchors = (
{
name = bottom;
pos = (430,-3);
},
{
name = top;
pos = (432,684);
}
);
background = {
anchors = (
{
name = bottom;
pos = (375,0);
},
{
name = top;
pos = (375,684);
}
);
hints = (
{
name = _corner.caps_left;
origin = (0,8);
type = Corner;
}
);
shapes = (
{
closed = 1;
nodes = (
(283,-1,l),
(283,323,l,{
"Letterink-NibData" = {
AngleInDegrees = 90;
};
}),
(533,323,l),
(533,400,l,{
"Letterink-NibData" = {
AngleInDegrees = 270;
};
}),
(283,400,l),
(283,609,l,{
"Letterink-NibData" = {
AngleInDegrees = 90;
};
}),
(629,609,l),
(629,685,l,{
"Letterink-NibData" = {
AngleInDegrees = 270;
};
}),
(200,685,l,{
"Letterink-NibData" = {
AngleInDegrees = 179.91648;
};
}),
(201,-1,l,{
"Letterink-NibData" = {
AngleInDegrees = 90;
};
})
);
}
);
};
hints = (
{
name = _corner.caps_left;
origin = (0,8);
type = Corner;
}
);
layerId = m004;
shapes = (
{
closed = 1;
nodes = (
(354,0,l),
(353,263,l,{
"Letterink-NibData" = {
AngleInDegrees = "90";
};
}),
(553,263,l),
(553,401,l,{
"Letterink-NibData" = {
AngleInDegrees = "270";
};
}),
(353,401,l),
(353,536,l,{
"Letterink-NibData" = {
AngleInDegrees = "90";
};
}),
(639,536,l),
(639,684,l,{
"Letterink-NibData" = {
AngleInDegrees = "270";
};
}),
(187,684,l,{
"Letterink-NibData" = {
AngleInDegrees = "180";
};
}),
(187,0,l,{
"Letterink-NibData" = {
AngleInDegrees = "90";
};
})
);
}
);
width = 664;
}
);
metricLeft = E;
metricRight = "=E*.8";
unicode = 70;
userData = {
position = 129;
width = 61;
};
},
{
glyphname = F.ss01;
kernRight = F;
layers = (
{
anchors = (
{
name = bottom;
pos = (289,0);
},
{
name = top;
pos = (290,684);
}
);
layerId = "0CAF3BED-C4AC-4024-B3E1-4C69D1EF7EC0";
shapes = (
{
closed = 1;
nodes = (
(158,-1,l),
(158,315,l,{
"Letterink-NibData" = {
AngleInDegrees = 90;
};
}),
(436,315,l),
(436,393,l,{
"Letterink-NibData" = {
AngleInDegrees = 270;
};
}),
(158,393,l),
(158,608,l,{
"Letterink-NibData" = {
AngleInDegrees = 90;
};
}),
(504,608,l),
(504,686,l,{
"Letterink-NibData" = {
AngleInDegrees = 270;
};
}),
(76,686,l,{
"Letterink-NibData" = {
AngleInDegrees = 180;
};
}),
(76,-1,l,{
"Letterink-NibData" = {
AngleInDegrees = 90;
};
})
);
}
);
width = 518;
},
{
anchors = (
{
name = bottom;
pos = (285,0);
},
{
name = top;
pos = (287,684);
}
);
layerId = "49C16FD3-6177-408B-A733-AEB3898BB77C";
shapes = (
{
closed = 1;
nodes = (
(125,1,l),
(125,337,l,{
"Letterink-NibData" = {
AngleInDegrees = 90;
};
}),
(422,337,l),
(422,372,l,{
"Letterink-NibData" = {
AngleInDegrees = 270;
};
}),
(125,372,l),
(125,648,l,{
"Letterink-NibData" = {
AngleInDegrees = 90;
};
}),
(494,648,l),
(494,685,l,{
"Letterink-NibData" = {
AngleInDegrees = 270;
};
}),
(84,685,l,{
"Letterink-NibData" = {
AngleInDegrees = 180;
};
}),
(84,1,l,{
"Letterink-NibData" = {
AngleInDegrees = 90;
};
})
);
}
);
width = 509;
},
{
anchors = (
{
name = bottom;
pos = (292,-11);
},
{
name = top;
pos = (294,684);
}
);
layerId = m004;
shapes = (
{
closed = 1;
nodes = (
(225,1,l),
(224,263,l,{
"Letterink-NibData" = {
AngleInDegrees = "90";
};
}),
(444,263,l),
(444,401,l,{
"Letterink-NibData" = {
AngleInDegrees = "270";
};
}),
(224,401,l),
(224,536,l,{
"Letterink-NibData" = {
AngleInDegrees = "90";
};
}),
(530,536,l),
(530,684,l,{
"Letterink-NibData" = {
AngleInDegrees = "270";
};
}),
(58,684,l,{
"Letterink-NibData" = {
AngleInDegrees = "180";
};
}),
(58,1,l,{
"Letterink-NibData" = {
AngleInDegrees = "90";
};
})
);
}
);
width = 549;
}
);
metricLeft = N.ss01;
metricRight = "=E*.6";
userData = {
position = 95;
width = 61;
};
},
{
glyphname = F.swsh;
kernLeft = Swash;
kernRight = F;
layers = (
{
anchors = (
{
name = bottom;
pos = (410,0);
},
{
name = top;
pos = (404,684);
}
);
hints = (
{
name = _corner.caps_swash;
origin = (1,2);
type = Corner;
}
);
layerId = "0CAF3BED-C4AC-4024-B3E1-4C69D1EF7EC0";
shapes = (
{
closed = 1;
nodes = (
(301,-1,l),
(301,360,l,{
"Letterink-NibData" = {
AngleInDegrees = 90;
};
}),
(265,324,l,{
"Letterink-NibData" = {
AngleInDegrees = 90;
};
}),
(550,324,l),
(550,400,l,{
"Letterink-NibData" = {
AngleInDegrees = 270;
};
}),
(265,400,l),
(301,364,l),
(301,559,l,{
"Letterink-NibData" = {
AngleInDegrees = 270;
};
}),
(218,559,l,{
"Letterink-NibData" = {
AngleInDegrees = 180;
};
}),
(218,-1,l,{
"Letterink-NibData" = {
AngleInDegrees = 90;
};
})
);
},
{
closed = 1;
nodes = (
(646,608,l),
(646,684,l,{
"Letterink-NibData" = {
AngleInDegrees = 270;
};
}),
(192,684,l,{
"Letterink-NibData" = {
AngleInDegrees = 180;
};
}),
(192,608,l,{
"Letterink-NibData" = {
AngleInDegrees = 90;
};
})
);
}
);
width = 664;
},
{
anchors = (
{
name = bottom;
pos = (389,0);
},
{
name = top;
pos = (385,684);
}
);
hints = (
{
name = _corner.caps_swash;
origin = (1,2);
type = Corner;
}
);
layerId = "49C16FD3-6177-408B-A733-AEB3898BB77C";
shapes = (
{
closed = 1;
nodes = (
(245,0,l),
(245,361,l,{
"Letterink-NibData" = {
AngleInDegrees = 90;
};
}),
(229,345,l,{
"Letterink-NibData" = {
AngleInDegrees = 90;
};
}),
(513,345,l),
(513,381,l,{
"Letterink-NibData" = {
AngleInDegrees = 270;
};
}),
(229,381,l),
(245,365,l),
(245,570,l,{
"Letterink-NibData" = {
AngleInDegrees = 270;
};
}),
(207,570,l,{
"Letterink-NibData" = {
AngleInDegrees = 180;
};
}),
(207,0,l,{
"Letterink-NibData" = {
AngleInDegrees = 90;
};
})
);
},
{
closed = 1;
nodes = (
(617,648,l),
(617,684,l,{
"Letterink-NibData" = {
AngleInDegrees = 270;
};
}),
(174,684,l,{
"Letterink-NibData" = {
AngleInDegrees = 180;
};
}),
(174,648,l,{
"Letterink-NibData" = {
AngleInDegrees = 90;
};
})
);
}
);
width = 637;
},
{
anchors = (
{
name = bottom;
pos = (486,-4);
},
{
name = top;
pos = (489,684);
}
);
hints = (
{
name = _corner.caps_swash;
origin = (1,2);
type = Corner;
}
);
layerId = m004;
shapes = (
{
closed = 1;
nodes = (
(400,0,l),
(400,334,l,{
"Letterink-NibData" = {
AngleInDegrees = "90";
};
}),
(329,263,l,{
"Letterink-NibData" = {
AngleInDegrees = "90";
};
}),
(620,263,l),
(620,401,l,{
"Letterink-NibData" = {
AngleInDegrees = "270";
};
}),
(329,401,l),
(400,340,l),
(400,499,l,{
"Letterink-NibData" = {
AngleInDegrees = "90";
};
}),
(234,499,l),
(234,0,l,{
"Letterink-NibData" = {
AngleInDegrees = "90";
};
})
);
},
{
closed = 1;
nodes = (
(706,536,l),
(706,684,l,{
"Letterink-NibData" = {
AngleInDegrees = "270";
};
}),
(234,684,l,{
"Letterink-NibData" = {
AngleInDegrees = "180";
};
}),
(234,536,l)
);
}
);
width = 731;
}
);
metricLeft = E.swsh;
metricRight = F;
userData = {
position = 129;
width = 61;
};
},
{
glyphname = G;
kernLeft = O;
kernRight = O;
layers = (
{
anchors = (
{
name = bottom;
pos = (373,-9);
},
{
name = top;
pos = (373,689);
}
);
background = {
shapes = (
{
closed = 1;
nodes = (
(571,-25,o),
(717,126,o),
(717,326,cs),
(717,355,ls),
(717,548,o),
(565,702,o),
(375,702,cs,{
"Letterink-NibData" = {
AngleInDegrees = "270";
};
}),
(185,702,o),
(34,548,o),
(34,355,cs,{
"Letterink-NibData" = {
AngleInDegrees = "180";
};
}),
(34,326,ls,{
"Letterink-NibData" = {
AngleInDegrees = "180";
};
}),
(34,126,o),
(178,-19,o),
(379,-22,cs,{
"Letterink-NibData" = {
AngleInDegrees = 90.89517;
};
})
);
},
{
closed = 1;
nodes = (
(228,54,o),
(116,170,o),
(116,326,cs),
(116,355,ls),
(116,504,o),
(230,626,o),
(374,626,cs,{
"Letterink-NibData" = {
AngleInDegrees = "90";
};
}),
(520,626,o),
(635,504,o),
(635,355,cs,{
"Letterink-NibData" = {
AngleInDegrees = "180";
};
}),
(635,326,ls,{
"Letterink-NibData" = {
AngleInDegrees = "180";
};
}),
(635,170,o),
(523,54,o),
(376,54,cs,{
"Letterink-NibData" = {
AngleInDegrees = "270";
};
})
);
}
);
};
layerId = "0CAF3BED-C4AC-4024-B3E1-4C69D1EF7EC0";
shapes = (
{
closed = 1;
nodes = (
(589,-21,o),
(697,136,o),
(691,332,cs),
(691,342,l),
(375,342,l),
(375,272,l),
(654,272,l),
(613,303,l),
(614,158,o),
(535,55,o),
(379,55,cs),
(236,55,o),
(119,164,o),
(119,339,cs),
(119,504,o),
(234,627,o),
(387,627,cs),
(519,627,o),
(565,575,o),
(565,541,cs),
(565,527,o),
(556,508,o),
(539,508,cs),
(533,508,o),
(524,509,o),
(516,514,c),
(476,454,l),
(498,439,o),
(521,434,o),
(539,434,cs),
(593,434,o),
(643,477,o),
(643,541,cs),
(643,654,o),
(521,703,o),
(387,703,cs),
(196,703,o),
(37,539,o),
(37,339,cs),
(37,127,o),
(190,-21,o),
(379,-21,cs)
);
}
);
width = 722;
},
{
anchors = (
{
name = bottom;
pos = (381,0);
},
{
name = top;
pos = (379,688);
}
);
background = {
shapes = (
{
closed = 1;
nodes = (
(577,-14,o),
(719,131,o),
(719,331,cs),
(719,350,ls),
(719,550,o),
(571,702,o),
(377,702,cs,{
"Letterink-NibData" = {
AngleInDegrees = "270";
};
}),
(183,702,o),
(37,551,o),
(37,350,cs,{
"Letterink-NibData" = {
AngleInDegrees = "180";
};
}),
(37,331,ls,{
"Letterink-NibData" = {
AngleInDegrees = "180";
};
}),
(37,133,o),
(184,-14,o),
(381,-14,cs,{
"Letterink-NibData" = {
AngleInDegrees = "90";
};
})
);
},
{
closed = 1;
nodes = (
(207,24,o),
(79,156,o),
(79,331,cs),
(79,350,ls),
(79,526,o),
(208,662,o),
(376,662,cs,{
"Letterink-NibData" = {
AngleInDegrees = "90";
};
}),
(545,662,o),
(677,526,o),
(677,350,cs,{
"Letterink-NibData" = {
AngleInDegrees = "180";
};
}),
(677,331,ls,{
"Letterink-NibData" = {
AngleInDegrees = "180";
};
}),
(677,156,o),
(548,24,o),
(378,24,cs,{
"Letterink-NibData" = {
AngleInDegrees = "270";
};
})
);
}
);
};
layerId = "49C16FD3-6177-408B-A733-AEB3898BB77C";
shapes = (
{
closed = 1;
nodes = (
(565,-14,o),
(688,118,o),
(688,311,cs),
(688,330,l),
(398,330,l),
(398,292,l),
(670,292,l),
(651,311,l),
(646,135,o),
(544,25,o),
(387,25,cs),
(200,25,o),
(82,153,o),
(82,340,cs),
(82,528,o),
(213,658,o),
(379,658,cs),
(523,658,o),
(594,585,o),
(595,538,cs),
(596,514,o),
(580,485,o),
(551,485,cs),
(540,485,o),
(528,488,o),
(519,494,c),
(499,465,l),
(516,449,o),
(536,448,o),
(551,448,cs),
(592,448,o),
(633,485,o),
(633,538,cs),
(633,620,o),
(533,696,o),
(379,696,cs),
(197,696,o),
(44,555,o),
(44,340,cs),
(44,130,o),
(184,-14,o),
(387,-14,cs)
);
}
);
width = 723;
},
{
anchors = (
{
name = bottom;
pos = (389,-35);
},
{
name = top;
pos = (399,683);
}
);
associatedMasterId = "49C16FD3-6177-408B-A733-AEB3898BB77C";
layerId = "D0E3D1AC-81E4-4FC2-A1B9-BDF5A86A417E";
name = "3 Jan 22, 15:37";
shapes = (
{
closed = 1;
nodes = (
(534,-20,o),
(675,85,o),
(675,253,c),
(675,296,l,{
"Letterink-NibData" = {
AngleInDegrees = 270;
};
}),
(633,296,l,{
"Letterink-NibData" = {
AngleInDegrees = 180;
};
}),
(633,251,l,{
"Letterink-NibData" = {
AngleInDegrees = 180;
};
}),
(633,124,o),
(520,20,o),
(389,20,cs,{
"Letterink-NibData" = {
AngleInDegrees = 270;
};
}),
(224,20,o),
(100,157,o),
(100,329,cs),
(100,504,o),
(229,658,o),
(399,658,cs,{
"Letterink-NibData" = {
AngleInDegrees = 90;
};
}),
(463,658,o),
(584,637,o),
(584,563,cs,{
"Letterink-NibData" = {
AngleInDegrees = 180;
};
}),
(584,537,o),
(567,514,o),
(544,514,cs,{
"Letterink-NibData" = {
AngleInDegrees = 270;
};
}),
(534,514,o),
(526,518,o),
(521,524,c,{
"Letterink-NibData" = {
AngleInDegrees = 218.23383;
};
}),
(495,491,l,{
"Letterink-NibData" = {
AngleInDegrees = 138.36646;
};
}),
(503,482,o),
(521,473,o),
(543,473,cs,{
"Letterink-NibData" = {
AngleInDegrees = 90;
};
}),
(591,473,o),
(625,509,o),
(625,563,cs),
(625,669,o),
(483,698,o),
(398,698,cs,{
"Letterink-NibData" = {
AngleInDegrees = 270;
};
}),
(200,698,o),
(58,531,o),
(58,330,cs,{
"Letterink-NibData" = {
AngleInDegrees = 180;
};
}),
(58,138,o),
(195,-20,o),
(389,-20,cs,{
"Letterink-NibData" = {
AngleInDegrees = 90;
};
})
);
},
{
closed = 1;
nodes = (
(675,293,l),
(675,335,l,{
"Letterink-NibData" = {
AngleInDegrees = 270;
};
}),
(384,335,l,{
"Letterink-NibData" = {
AngleInDegrees = 180;
};
}),
(384,293,l,{
"Letterink-NibData" = {
AngleInDegrees = 90;
};
})
);
}
);
width = 732;
},
{
anchors = (
{
name = bottom;
pos = (383,-16);
},
{
name = top;
pos = (386,684);
}
);
associatedMasterId = "0CAF3BED-C4AC-4024-B3E1-4C69D1EF7EC0";
layerId = "801CC91F-0C96-44A6-9720-FE52325A0B43";
name = "3 Jan 22, 15:45";
shapes = (
{
closed = 1;
nodes = (
(534,-13,o),
(676,104,o),
(676,271,cs),
(676,319,l,{
"Letterink-NibData" = {
AngleInDegrees = 270;
};
}),
(593,319,l,{
"Letterink-NibData" = {
AngleInDegrees = 178.85424;
};
}),
(594,269,l,{
"Letterink-NibData" = {
AngleInDegrees = 180.96286;
};
}),
(592,150,o),
(497,63,o),
(383,63,cs,{
"Letterink-NibData" = {
AngleInDegrees = 270;
};
}),
(238,63,o),
(128,176,o),
(128,342,cs),
(128,497,o),
(238,620,o),
(392,620,cs,{
"Letterink-NibData" = {
AngleInDegrees = 90;
};
}),
(449,620,o),
(551,599,o),
(551,544,cs,{
"Letterink-NibData" = {
AngleInDegrees = 180;
};
}),
(551,530,o),
(544,518,o),
(530,517,cs,{
"Letterink-NibData" = {
AngleInDegrees = 264.28941;
};
}),
(520,516,o),
(510,523,o),
(504,528,c,{
"Letterink-NibData" = {
AngleInDegrees = 218.90414;
};
}),
(458,471,l,{
"Letterink-NibData" = {
AngleInDegrees = 136.54816;
};
}),
(476,452,o),
(504,442,o),
(529,442,cs,{
"Letterink-NibData" = {
AngleInDegrees = 90;
};
}),
(584,442,o),
(628,488,o),
(628,547,cs),
(628,656,o),
(474,696,o),
(391,696,cs,{
"Letterink-NibData" = {
AngleInDegrees = 270;
};
}),
(198,696,o),
(46,539,o),
(46,343,cs,{
"Letterink-NibData" = {
AngleInDegrees = 180;
};
}),
(46,141,o),
(189,-13,o),
(383,-13,cs,{
"Letterink-NibData" = {
AngleInDegrees = 90;
};
})
);
},
{
closed = 1;
nodes = (
(676,280,l),
(676,356,l,{
"Letterink-NibData" = {
AngleInDegrees = 270;
};
}),
(357,356,l,{
"Letterink-NibData" = {
AngleInDegrees = 180;
};
}),
(357,280,l,{
"Letterink-NibData" = {
AngleInDegrees = 90;
};
})
);
}
);
width = 721;
},
{
anchors = (
{
name = bottom;
pos = (386,-16);
},
{
name = top;
pos = (389,684);
}
);
associatedMasterId = "0CAF3BED-C4AC-4024-B3E1-4C69D1EF7EC0";
layerId = "F3CD14B1-1EDD-434D-B368-A4692BE06C00";
name = "5 Jan 22, 08:08";
shapes = (
{
attr = {
strokeHeight = 74;
strokeWidth = 80;
};
closed = 0;
nodes = (
(511,478,l,{
"Letterink-NibData" = {
AngleInDegrees = 116.56505;
};
}),
(521,473,o),
(530,471,o),
(539,471,cs,{
"Letterink-NibData" = {
AngleInDegrees = 90;
};
}),
(583,471,o),
(604,511,o),
(604,546,cs),
(604,617,o),
(515,674,o),
(387,668,cs,{
"Letterink-NibData" = {
AngleInDegrees = 267.25739;
};
}),
(220,660,o),
(86,522,o),
(86,334,cs,{
"Letterink-NibData" = {
AngleInDegrees = 180;
};
}),
(86,144,o),
(223,4,o),
(404,15,cs,{
"Letterink-NibData" = {
AngleInDegrees = 86.30861;
};
}),
(559,25,o),
(644,137,o),
(644,281,c,{
"Letterink-NibData" = {
AngleInDegrees = 358.26429;
};
}),
(643,314,l,{
"Letterink-NibData" = {
AngleInDegrees = 270.21221;
};
}),
(373,315,l,{
"Letterink-NibData" = {
AngleInDegrees = 270.21221;
};
})
);
}
);
width = 729;
},
{
anchors = (
{
name = bottom;
pos = (387,-35);
},
{
name = top;
pos = (397,683);
}
);
associatedMasterId = "49C16FD3-6177-408B-A733-AEB3898BB77C";
background = {
shapes = (
{
closed = 1;
nodes = (
(535,-19,o),
(673,85,o),
(673,253,c),
(673,296,l),
(631,296,l),
(631,251,l),
(631,124,o),
(518,20,o),
(387,20,cs),
(222,20,o),
(98,157,o),
(98,329,cs),
(98,504,o),
(227,658,o),
(397,658,cs),
(461,658,o),
(582,637,o),
(582,563,cs),
(582,537,o),
(565,514,o),
(542,514,cs),
(532,514,o),
(524,518,o),
(519,524,c),
(493,491,l),
(501,482,o),
(519,473,o),
(541,473,cs),
(589,473,o),
(623,509,o),
(623,563,cs),
(623,669,o),
(481,698,o),
(396,698,cs),
(198,698,o),
(56,531,o),
(56,330,cs),
(56,138,o),
(193,-21,o),
(387,-20,cs)
);
}
);
};
layerId = "F0F46AC2-3B0D-4489-B32E-B81CEA10F2A9";
name = "5 Jan 22, 08:18";
shapes = (
{
attr = {
strokeHeight = 38;
strokeWidth = 42;
};
closed = 0;
nodes = (
(513,484,l,{
"Letterink-NibData" = {
AngleInDegrees = 116.56505;
};
}),
(523,479,o),
(532,477,o),
(542,477,cs,{
"Letterink-NibData" = {
AngleInDegrees = 90;
};
}),
(586,477,o),
(608,519,o),
(608,556,cs),
(608,630,o),
(517,690,o),
(386,683,cs,{
"Letterink-NibData" = {
AngleInDegrees = 267.30572;
};
}),
(216,675,o),
(79,530,o),
(79,334,cs,{
"Letterink-NibData" = {
AngleInDegrees = 180;
};
}),
(79,135,o),
(219,-12,o),
(399,0,cs,{
"Letterink-NibData" = {
AngleInDegrees = 86.48932;
};
}),
(562,10,o),
(649,127,o),
(649,278,c,{
"Letterink-NibData" = {
AngleInDegrees = 358.36342;
};
}),
(648,313,l,{
"Letterink-NibData" = {
AngleInDegrees = 270.20759;
};
}),
(372,314,l,{
"Letterink-NibData" = {
AngleInDegrees = 270.20759;
};
})
);
}
);
width = 727;
},
{
anchors = (
{
name = bottom;
pos = (378,-10);
},
{
name = top;
pos = (378,703);
}
);
background = {
shapes = (
{
closed = 1;
nodes = (
(586,-25,o),
(732,126,o),
(732,326,cs),
(732,355,ls),
(732,548,o),
(580,702,o),
(390,702,cs,{
"Letterink-NibData" = {
AngleInDegrees = "270";
};
}),
(200,702,o),
(49,548,o),
(49,355,cs,{
"Letterink-NibData" = {
AngleInDegrees = "180";
};
}),
(49,326,ls,{
"Letterink-NibData" = {
AngleInDegrees = "180";
};
}),
(49,126,o),
(193,-19,o),
(394,-22,cs,{
"Letterink-NibData" = {
AngleInDegrees = 90.89517;
};
})
);
},
{
closed = 1;
nodes = (
(243,54,o),
(131,170,o),
(131,326,cs),
(131,355,ls),
(131,504,o),
(245,626,o),
(389,626,cs,{
"Letterink-NibData" = {
AngleInDegrees = "90";
};
}),
(535,626,o),
(650,504,o),
(650,355,cs,{
"Letterink-NibData" = {
AngleInDegrees = "180";
};
}),
(650,326,ls,{
"Letterink-NibData" = {
AngleInDegrees = "180";
};
}),
(650,170,o),
(538,54,o),
(391,54,cs,{
"Letterink-NibData" = {
AngleInDegrees = "270";
};
})
);
}
);
};
layerId = m004;
shapes = (
{
closed = 1;
nodes = (
(595,-28,o),
(722,115,o),
(707,342,cs),
(706,357,l),
(385,357,l),
(385,219,l),
(631,219,l),
(556,285,l),
(559,183,o),
(496,120,o),
(391,120,cs),
(269,120,o),
(191,204,o),
(191,336,cs),
(191,472,o),
(275,565,o),
(398,565,cs),
(461,565,o),
(525,544,o),
(525,516,cs),
(525,508,o),
(521,504,o),
(515,504,cs),
(509,504,o),
(505,507,o),
(501,510,c),
(433,422,l),
(455,400,o),
(487,388,o),
(522,388,cs),
(600,388,o),
(664,450,o),
(664,527,cs),
(664,632,o),
(548,713,o),
(395,713,cs),
(181,713,o),
(26,554,o),
(26,336,cs),
(26,124,o),
(173,-28,o),
(387,-28,cs)
);
}
);
width = 732;
},
{
anchors = (
{
name = bottom;
pos = (369,-16);
},
{
name = top;
pos = (372,684);
}
);
associatedMasterId = m004;
layerId = "0E9EACE4-EA9D-4B48-AA91-148DF9A2A64E";
name = "3 Jan 22, 15:45";
shapes = (
{
closed = 1;
nodes = (
(520,-13,o),
(662,104,o),
(662,271,cs),
(662,319,l,{
"Letterink-NibData" = {
AngleInDegrees = 270;
};
}),
(579,319,l,{
"Letterink-NibData" = {
AngleInDegrees = 178.85424;
};
}),
(580,269,l,{
"Letterink-NibData" = {
AngleInDegrees = 180.96286;
};
}),
(578,150,o),
(483,63,o),
(369,63,cs,{
"Letterink-NibData" = {
AngleInDegrees = 270;
};
}),
(224,63,o),
(114,176,o),
(114,342,cs),
(114,497,o),
(224,620,o),
(378,620,cs,{
"Letterink-NibData" = {
AngleInDegrees = 90;
};
}),
(435,620,o),
(537,599,o),
(537,544,cs,{
"Letterink-NibData" = {
AngleInDegrees = 180;
};
}),
(537,530,o),
(530,518,o),
(516,517,cs,{
"Letterink-NibData" = {
AngleInDegrees = 264.28941;
};
}),
(506,516,o),
(496,523,o),
(490,528,c,{
"Letterink-NibData" = {
AngleInDegrees = 218.90414;
};
}),
(444,471,l,{
"Letterink-NibData" = {
AngleInDegrees = 136.54816;
};
}),
(462,452,o),
(490,442,o),
(515,442,cs,{
"Letterink-NibData" = {
AngleInDegrees = 90;
};
}),
(570,442,o),
(614,488,o),
(614,547,cs),
(614,656,o),
(460,696,o),
(377,696,cs,{
"Letterink-NibData" = {
AngleInDegrees = 270;
};
}),
(184,696,o),
(32,539,o),
(32,343,cs,{
"Letterink-NibData" = {
AngleInDegrees = 180;
};
}),
(32,141,o),
(175,-13,o),
(369,-13,cs,{
"Letterink-NibData" = {
AngleInDegrees = 90;
};
})
);
},
{
closed = 1;
nodes = (
(662,280,l),
(662,356,l,{
"Letterink-NibData" = {
AngleInDegrees = 270;
};
}),
(343,356,l,{
"Letterink-NibData" = {
AngleInDegrees = 180;
};
}),
(343,280,l,{
"Letterink-NibData" = {
AngleInDegrees = 90;
};
})
);
}
);
width = 693;
},
{
anchors = (
{
name = bottom;
pos = (372,-16);
},
{
name = top;
pos = (375,684);
}
);
associatedMasterId = m004;
layerId = "E2560365-B553-4320-8997-4873FFE2CB5E";
name = "5 Jan 22, 08:08";
shapes = (
{
attr = {
strokeHeight = 74;
strokeWidth = 80;
};
closed = 0;
nodes = (
(497,478,l,{
"Letterink-NibData" = {
AngleInDegrees = 116.56505;
};
}),
(507,473,o),
(516,471,o),
(525,471,cs,{
"Letterink-NibData" = {
AngleInDegrees = 90;
};
}),
(569,471,o),
(590,511,o),
(590,546,cs),
(590,617,o),
(501,674,o),
(373,668,cs,{
"Letterink-NibData" = {
AngleInDegrees = 267.25739;
};
}),
(206,660,o),
(72,522,o),
(72,334,cs,{
"Letterink-NibData" = {
AngleInDegrees = 180;
};
}),
(72,144,o),
(209,4,o),
(390,15,cs,{
"Letterink-NibData" = {
AngleInDegrees = 86.30861;
};
}),
(545,25,o),
(630,137,o),
(630,281,c,{
"Letterink-NibData" = {
AngleInDegrees = 358.26429;
};
}),
(629,314,l,{
"Letterink-NibData" = {
AngleInDegrees = 270.21221;
};
}),
(359,315,l,{
"Letterink-NibData" = {
AngleInDegrees = 270.21221;
};
})
);
}
);
width = 701;
}
);
metricLeft = O;
note = "Bold: 98/95.5%";
unicode = 71;
userData = {
position = 593;
width = 57;
};
},
{
glyphname = G.ss01;
kernLeft = O;
kernRight = O;
layers = (
{
anchors = (
{
name = bottom;
pos = (382,-6);
},
{
name = top;
pos = (379,691);
}
);
background = {
shapes = (
{
closed = 1;
nodes = (
(566,-25,o),
(712,126,o),
(712,326,cs),
(712,355,ls),
(712,548,o),
(560,702,o),
(370,702,cs,{
"Letterink-NibData" = {
AngleInDegrees = "270";
};
}),
(180,702,o),
(29,548,o),
(29,355,cs,{
"Letterink-NibData" = {
AngleInDegrees = "180";
};
}),
(29,326,ls,{
"Letterink-NibData" = {
AngleInDegrees = "180";
};
}),
(29,126,o),
(173,-19,o),
(374,-22,cs,{
"Letterink-NibData" = {
AngleInDegrees = 90.89517;
};
})
);
},
{
closed = 1;
nodes = (
(223,54,o),
(111,170,o),
(111,326,cs),
(111,355,ls),
(111,504,o),
(225,626,o),
(369,626,cs,{
"Letterink-NibData" = {
AngleInDegrees = "90";
};
}),
(515,626,o),
(630,504,o),
(630,355,cs,{
"Letterink-NibData" = {
AngleInDegrees = "180";
};
}),
(630,326,ls,{
"Letterink-NibData" = {
AngleInDegrees = "180";
};
}),
(630,170,o),
(518,54,o),
(371,54,cs,{
"Letterink-NibData" = {
AngleInDegrees = "270";
};
})
);
}
);
};
layerId = "0CAF3BED-C4AC-4024-B3E1-4C69D1EF7EC0";
shapes = (
{
closed = 1;
nodes = (
(572,-17,o),
(698,117,o),
(698,320,cs),
(698,358,l),
(390,358,l),
(390,282,l),
(660,282,l),
(622,320,l),
(622,162,o),
(528,59,o),
(384,59,cs),
(228,59,o),
(117,178,o),
(117,345,cs),
(117,512,o),
(230,633,o),
(386,633,cs),
(485,633,o),
(567,584,o),
(589,513,c),
(661,535,l),
(631,639,o),
(519,709,o),
(385,709,cs),
(183,709,o),
(37,556,o),
(37,344,cs),
(37,133,o),
(180,-17,o),
(382,-17,cs)
);
}
);
width = 735;
},
{
anchors = (
{
name = bottom;
pos = (381,-2);
},
{
name = top;
pos = (388,694);
}
);
background = {
shapes = (
{
closed = 1;
nodes = (
(572,-14,o),
(714,131,o),
(714,331,cs),
(714,350,ls),
(714,550,o),
(566,702,o),
(372,702,cs,{
"Letterink-NibData" = {
AngleInDegrees = "270";
};
}),
(178,702,o),
(32,551,o),
(32,350,cs,{
"Letterink-NibData" = {
AngleInDegrees = "180";
};
}),
(32,331,ls,{
"Letterink-NibData" = {
AngleInDegrees = "180";
};
}),
(32,133,o),
(179,-14,o),
(376,-14,cs,{
"Letterink-NibData" = {
AngleInDegrees = "90";
};
})
);
},
{
closed = 1;
nodes = (
(202,24,o),
(74,156,o),
(74,331,cs),
(74,350,ls),
(74,526,o),
(203,662,o),
(371,662,cs,{
"Letterink-NibData" = {
AngleInDegrees = "90";
};
}),
(540,662,o),
(672,526,o),
(672,350,cs,{
"Letterink-NibData" = {
AngleInDegrees = "180";
};
}),
(672,331,ls,{
"Letterink-NibData" = {
AngleInDegrees = "180";
};
}),
(672,156,o),
(543,24,o),
(373,24,cs,{
"Letterink-NibData" = {
AngleInDegrees = "270";
};
})
);
}
);
};
layerId = "49C16FD3-6177-408B-A733-AEB3898BB77C";
shapes = (
{
closed = 1;
nodes = (
(569,-12,o),
(690,120,o),
(690,319,cs),
(690,336,l),
(390,336,l),
(390,303,l),
(674,303,l),
(657,319,l),
(657,141,o),
(547,22,o),
(386,22,cs),
(211,22,o),
(82,152,o),
(82,339,cs),
(82,535,o),
(214,665,o),
(388,665,cs),
(517,665,o),
(599,595,o),
(621,524,c),
(653,535,l),
(624,625,o),
(525,699,o),
(388,699,cs),
(195,699,o),
(44,557,o),
(44,339,cs),
(44,132,o),
(188,-12,o),
(386,-12,cs)
);
}
);
width = 734;
},
{
anchors = (
{
name = bottom;
pos = (382,0);
},
{
name = top;
pos = (397,684);
}
);
associatedMasterId = "49C16FD3-6177-408B-A733-AEB3898BB77C";
layerId = "96951EB1-18FB-4FDF-9014-B6300BAB0AB6";
name = "3 Jan 22, 15:40";
shapes = (
{
closed = 1;
nodes = (
(538,-15,o),
(671,97,o),
(671,285,cs),
(671,343,l,{
"Letterink-NibData" = {
AngleInDegrees = 270;
};
}),
(629,343,l,{
"Letterink-NibData" = {
AngleInDegrees = 180;
};
}),
(629,273,ls,{
"Letterink-NibData" = {
AngleInDegrees = 180;
};
}),
(629,127,o),
(508,25,o),
(387,25,cs,{
"Letterink-NibData" = {
AngleInDegrees = 270;
};
}),
(205,25,o),
(100,154,o),
(100,331,cs),
(100,508,o),
(227,656,o),
(397,656,cs,{
"Letterink-NibData" = {
AngleInDegrees = 90;
};
}),
(466,656,o),
(573,625,o),
(580,557,c,{
"Letterink-NibData" = {
AngleInDegrees = 88.60282;
};
}),
(621,558,l,{
"Letterink-NibData" = {
AngleInDegrees = 356.1432;
};
}),
(615,647,o),
(503,696,o),
(399,696,cs,{
"Letterink-NibData" = {
AngleInDegrees = 270;
};
}),
(203,696,o),
(58,537,o),
(58,332,cs,{
"Letterink-NibData" = {
AngleInDegrees = 180;
};
}),
(58,131,o),
(175,-15,o),
(383,-15,cs,{
"Letterink-NibData" = {
AngleInDegrees = 90;
};
})
);
},
{
closed = 1;
nodes = (
(671,303,l),
(671,343,l,{
"Letterink-NibData" = {
AngleInDegrees = 270;
};
}),
(380,343,l,{
"Letterink-NibData" = {
AngleInDegrees = 180;
};
}),
(380,303,l,{
"Letterink-NibData" = {
AngleInDegrees = 90;
};
})
);
}
);
width = 729;
},
{
anchors = (
{
name = bottom;
pos = (383,0);
},
{
name = top;
pos = (397,684);
}
);
associatedMasterId = "0CAF3BED-C4AC-4024-B3E1-4C69D1EF7EC0";
layerId = "B969E5E4-86DE-47F2-A424-5DC87FFFE71B";
name = "5 Jan 22, 08:26";
shapes = (
{
attr = {
strokeHeight = 74;
strokeWidth = 80;
};
closed = 0;
nodes = (
(614,528,ls,{
"Letterink-NibData" = {
AngleInDegrees = 356.63354;
};
}),
(609,613,o),
(515,675,o),
(387,669,cs,{
"Letterink-NibData" = {
AngleInDegrees = 267.25739;
};
}),
(220,661,o),
(86,523,o),
(86,331,cs,{
"Letterink-NibData" = {
AngleInDegrees = 180;
};
}),
(86,145,o),
(218,15,o),
(399,15,c,{
"Letterink-NibData" = {
AngleInDegrees = 86.42367;
};
}),
(559,25,o),
(644,137,o),
(644,281,c,{
"Letterink-NibData" = {
AngleInDegrees = 358.26429;
};
}),
(643,314,l,{
"Letterink-NibData" = {
AngleInDegrees = 270.21221;
};
}),
(373,315,l,{
"Letterink-NibData" = {
AngleInDegrees = 270.21221;
};
})
);
}
);
width = 730;
},
{
anchors = (
{
name = bottom;
pos = (382,-27);
},
{
name = top;
pos = (382,721);
}
);
associatedMasterId = "49C16FD3-6177-408B-A733-AEB3898BB77C";
background = {
shapes = (
{
closed = 1;
nodes = (
(537,-15,o),
(670,97,o),
(670,285,cs),
(670,343,l),
(628,343,l),
(628,273,ls),
(628,127,o),
(507,25,o),
(386,25,cs),
(204,25,o),
(99,154,o),
(99,331,cs),
(99,508,o),
(226,656,o),
(396,656,cs),
(465,656,o),
(572,625,o),
(579,557,c),
(620,558,l),
(614,647,o),
(502,696,o),
(398,696,cs),
(202,696,o),
(57,537,o),
(57,332,cs),
(57,131,o),
(174,-15,o),
(382,-15,cs)
);
},
{
closed = 1;
nodes = (
(670,303,l),
(670,343,l),
(379,343,l),
(379,303,l)
);
}
);
};
layerId = "AFEECE5E-BFEE-4508-863A-E5AFB845FDE7";
name = "5 Jan 22, 08:33";
shapes = (
{
attr = {
strokeHeight = 38;
strokeWidth = 42;
};
closed = 0;
nodes = (
(618,537,ls,{
"Letterink-NibData" = {
AngleInDegrees = 356.78451;
};
}),
(613,626,o),
(517,691,o),
(386,684,cs,{
"Letterink-NibData" = {
AngleInDegrees = 267.30572;
};
}),
(216,676,o),
(79,532,o),
(79,330,cs,{
"Letterink-NibData" = {
AngleInDegrees = 180;
};
}),
(79,136,o),
(214,0,o),
(404,0,c,{
"Letterink-NibData" = {
AngleInDegrees = 86.37852;
};
}),
(562,10,o),
(649,127,o),
(649,278,c,{
"Letterink-NibData" = {
AngleInDegrees = 358.36342;
};
}),
(648,313,l,{
"Letterink-NibData" = {
AngleInDegrees = 270.20759;
};
}),
(372,314,l,{
"Letterink-NibData" = {
AngleInDegrees = 270.20759;
};
})
);
}
);
width = 728;
},
{
anchors = (
{
name = bottom;
pos = (372,-12);
},
{
name = top;
pos = (386,698);
}
);
background = {
shapes = (
{
closed = 1;
nodes = (
(583,-25,o),
(729,126,o),
(729,326,cs),
(729,355,ls),
(729,548,o),
(577,702,o),
(387,702,cs,{
"Letterink-NibData" = {
AngleInDegrees = "270";
};
}),
(197,702,o),
(46,548,o),
(46,355,cs,{
"Letterink-NibData" = {
AngleInDegrees = "180";
};
}),
(46,326,ls,{
"Letterink-NibData" = {
AngleInDegrees = "180";
};
}),
(46,126,o),
(190,-19,o),
(391,-22,cs,{
"Letterink-NibData" = {
AngleInDegrees = 90.89517;
};
})
);
},
{
closed = 1;
nodes = (
(240,54,o),
(128,170,o),
(128,326,cs),
(128,355,ls),
(128,504,o),
(242,626,o),
(386,626,cs,{
"Letterink-NibData" = {
AngleInDegrees = "90";
};
}),
(532,626,o),
(647,504,o),
(647,355,cs,{
"Letterink-NibData" = {
AngleInDegrees = "180";
};
}),
(647,326,ls,{
"Letterink-NibData" = {
AngleInDegrees = "180";
};
}),
(647,170,o),
(535,54,o),
(388,54,cs,{
"Letterink-NibData" = {
AngleInDegrees = "270";
};
})
);
}
);
};
layerId = m004;
shapes = (
{
closed = 1;
nodes = (
(580,-31,o),
(717,116,o),
(717,340,c),
(717,377,l),
(400,377,l),
(400,239,l),
(643,239,l),
(569,313,l),
(569,193,o),
(503,117,o),
(388,117,cs),
(271,117,o),
(191,201,o),
(191,338,cs),
(191,467,o),
(269,565,o),
(392,565,cs),
(471,565,o),
(524,522,o),
(535,485,c),
(677,527,l),
(642,648,o),
(521,713,o),
(388,713,cs),
(181,713,o),
(26,559,o),
(26,340,cs),
(26,118,o),
(177,-31,o),
(378,-31,cs)
);
}
);
width = 743;
},
{
anchors = (
{
name = bottom;
pos = (369,0);
},
{
name = top;
pos = (383,684);
}
);
associatedMasterId = m004;
layerId = "2166FA3C-D590-4885-A8B0-B32BF30CBC31";
name = "5 Jan 22, 08:26";
shapes = (
{
attr = {
strokeHeight = 74;
strokeWidth = 80;
};
closed = 0;
nodes = (
(600,528,ls,{
"Letterink-NibData" = {
AngleInDegrees = 356.63354;
};
}),
(595,613,o),
(501,675,o),
(373,669,cs,{
"Letterink-NibData" = {
AngleInDegrees = 267.25739;
};
}),
(206,661,o),
(72,523,o),
(72,331,cs,{
"Letterink-NibData" = {
AngleInDegrees = 180;
};
}),
(72,145,o),
(204,15,o),
(385,15,c,{
"Letterink-NibData" = {
AngleInDegrees = 86.42367;
};
}),
(545,25,o),
(630,137,o),
(630,281,c,{
"Letterink-NibData" = {
AngleInDegrees = 358.26429;
};
}),
(629,314,l,{
"Letterink-NibData" = {
AngleInDegrees = 270.21221;
};
}),
(359,315,l,{
"Letterink-NibData" = {
AngleInDegrees = 270.21221;
};
})
);
}
);
width = 702;
}
);
metricLeft = O;
metricRight = O;
userData = {
position = 593;
width = 57;
};
},
{
glyphname = G.swsh;
kernLeft = O;
kernRight = O;
layers = (
{
layerId = "0CAF3BED-C4AC-4024-B3E1-4C69D1EF7EC0";
shapes = (
{
closed = 1;
nodes = (
(624,-266,o),
(691,-216,o),
(691,-110,cs),
(691,342,l),
(614,342,l),
(614,-110,ls),
(614,-156,o),
(593,-190,o),
(553,-190,cs),
(533,-190,o),
(510,-177,o),
(498,-153,c),
(430,-187,l),
(454,-235,o),
(501,-266,o),
(553,-266,cs)
);
},
{
ref = G;
}
);
width = 722;
},
{
layerId = "49C16FD3-6177-408B-A733-AEB3898BB77C";
shapes = (
{
closed = 1;
nodes = (
(629,-266,o),
(688,-220,o),
(688,-125,cs),
(688,330,l),
(649,330,l),
(649,-125,ls),
(649,-186,o),
(613,-224,o),
(565,-224,cs),
(535,-224,o),
(507,-207,o),
(492,-176,c),
(454,-196,l),
(477,-239,o),
(519,-266,o),
(565,-266,cs)
);
},
{
ref = G;
}
);
width = 723;
},
{
anchors = (
{
name = bottom;
pos = (390,0);
},
{
name = top;
pos = (399,684);
}
);
associatedMasterId = "49C16FD3-6177-408B-A733-AEB3898BB77C";
layerId = "99324C05-2E3B-491C-BB33-A281431388C0";
name = "3 Jan 22, 15:43";
shapes = (
{
closed = 1;
nodes = (
(629,-275,o),
(674,-247,o),
(674,-188,cs),
(674,296,l,{
"Letterink-NibData" = {
AngleInDegrees = 270;
};
}),
(632,296,l,{
"Letterink-NibData" = {
AngleInDegrees = 180;
};
}),
(632,231,l,{
"Letterink-NibData" = {
AngleInDegrees = 189.05072;
};
}),
(614,118,o),
(521,19,o),
(386,19,cs,{
"Letterink-NibData" = {
AngleInDegrees = 270;
};
}),
(226,19,o),
(100,157,o),
(100,331,cs),
(100,504,o),
(223,661,o),
(396,661,cs,{
"Letterink-NibData" = {
AngleInDegrees = 90;
};
}),
(464,661,o),
(585,637,o),
(585,563,cs,{
"Letterink-NibData" = {
AngleInDegrees = 180;
};
}),
(585,537,o),
(568,514,o),
(545,514,cs,{
"Letterink-NibData" = {
AngleInDegrees = 270;
};
}),
(539,514,o),
(532,516,o),
(525,519,c,{
"Letterink-NibData" = {
AngleInDegrees = 218.23383;
};
}),
(499,486,l,{
"Letterink-NibData" = {
AngleInDegrees = 122.73523;
};
}),
(513,477,o),
(528,473,o),
(544,473,cs,{
"Letterink-NibData" = {
AngleInDegrees = 90;
};
}),
(592,473,o),
(626,509,o),
(626,562,cs),
(626,670,o),
(482,701,o),
(399,701,cs,{
"Letterink-NibData" = {
AngleInDegrees = 270;
};
}),
(201,701,o),
(58,530,o),
(58,333,cs,{
"Letterink-NibData" = {
AngleInDegrees = 180;
};
}),
(58,137,o),
(199,-21,o),
(382,-21,cs,{
"Letterink-NibData" = {
AngleInDegrees = 90;
};
}),
(487,-21,o),
(594,31,o),
(632,124,c,{
"Letterink-NibData" = {
AngleInDegrees = 180;
};
}),
(632,-188,l,{
"Letterink-NibData" = {
AngleInDegrees = 186.00901;
};
}),
(630,-207,o),
(616,-229,o),
(589,-229,cs,{
"Letterink-NibData" = {
AngleInDegrees = 270;
};
}),
(576,-229,o),
(566,-224,o),
(559,-217,c,{
"Letterink-NibData" = {
AngleInDegrees = 236.65929;
};
}),
(521,-242,l,{
"Letterink-NibData" = {
AngleInDegrees = 142.69605;
};
}),
(537,-263,o),
(560,-275,o),
(588,-275,cs,{
"Letterink-NibData" = {
AngleInDegrees = 90;
};
})
);
}
);
width = 731;
},
{
anchors = (
{
name = bottom;
pos = (392,-35);
},
{
name = top;
pos = (402,683);
}
);
associatedMasterId = "49C16FD3-6177-408B-A733-AEB3898BB77C";
layerId = "993784D9-67C7-4A50-9317-88BF6374F3F5";
name = "5 Jan 22, 08:42";
shapes = (
{
closed = 1;
nodes = (
(632,-188,l,{
"Letterink-NibData" = {
AngleInDegrees = 186.00901;
};
}),
(630,-207,o),
(616,-229,o),
(589,-229,cs,{
"Letterink-NibData" = {
AngleInDegrees = 270;
};
}),
(576,-229,o),
(566,-224,o),
(559,-217,c,{
"Letterink-NibData" = {
AngleInDegrees = 236.65929;
};
}),
(521,-242,l,{
"Letterink-NibData" = {
AngleInDegrees = 142.69605;
};
}),
(537,-263,o),
(560,-275,o),
(588,-275,cs,{
"Letterink-NibData" = {
AngleInDegrees = 90;
};
}),
(629,-275,o),
(674,-247,o),
(674,-188,cs),
(674,296,l,{
"Letterink-NibData" = {
AngleInDegrees = 270;
};
}),
(632,296,l,{
"Letterink-NibData" = {
AngleInDegrees = 180;
};
})
);
},
{
ref = G;
}
);
width = 759;
},
{
anchors = (
{
name = bottom;
pos = (392,-35);
},
{
name = top;
pos = (402,683);
}
);
associatedMasterId = "49C16FD3-6177-408B-A733-AEB3898BB77C";
hints = (
{
name = _corner.caps_swash;
options = 1;
origin = (0,2);
scale = (-1,1);
type = Corner;
}
);
layerId = "A1B0A753-5F1E-49B0-BC7C-F65043380999";
name = "5 Jan 22, 08:46";
shapes = (
{
closed = 1;
nodes = (
(651,330,l,{
"Letterink-NibData" = {
AngleInDegrees = 270;
};
}),
(651,-154,l),
(693,-154,l,{
"Letterink-NibData" = {
AngleInDegrees = 186.00901;
};
}),
(693,330,l,{
"Letterink-NibData" = {
AngleInDegrees = 180;
};
})
);
},
{
ref = G;
},
{
closed = 0;
nodes = (
(344,-192,l),
(363,-228,o),
(402,-253,o),
(446,-253,cs),
(509,-253,o),
(561,-202,o),
(561,-139,cs),
(561,-139,o),
(561,-139,o),
(561,-138,cs),
(561,308,l)
);
}
);
width = 759;
},
{
anchors = (
{
name = bottom;
pos = (389,-16);
},
{
name = top;
pos = (392,689);
}
);
associatedMasterId = "0CAF3BED-C4AC-4024-B3E1-4C69D1EF7EC0";
layerId = "14C1AB9A-2353-4380-971D-F4E2C0A0EA14";
name = "5 Jan 22, 08:50";
shapes = (
{
closed = 1;
nodes = (
(601,-161,l,{
"Letterink-NibData" = {
AngleInDegrees = 180;
};
}),
(601,-174,o),
(591,-183,o),
(578,-183,cs,{
"Letterink-NibData" = {
AngleInDegrees = 270;
};
}),
(565,-183,o),
(559,-178,o),
(552,-165,c,{
"Letterink-NibData" = {
AngleInDegrees = 235.68491;
};
}),
(489,-208,l,{
"Letterink-NibData" = {
AngleInDegrees = 154.88516;
};
}),
(504,-240,o),
(540,-263,o),
(577,-263,cs,{
"Letterink-NibData" = {
AngleInDegrees = 90;
};
}),
(622,-263,o),
(681,-228,o),
(681,-162,cs),
(681,317,l,{
"Letterink-NibData" = {
AngleInDegrees = 270;
};
}),
(601,317,l,{
"Letterink-NibData" = {
AngleInDegrees = 180;
};
})
);
},
{
attr = {
strokeHeight = 74;
strokeWidth = 80;
};
closed = 0;
nodes = (
(511,478,l,{
"Letterink-NibData" = {
AngleInDegrees = 116.56505;
};
}),
(521,473,o),
(530,471,o),
(539,471,cs,{
"Letterink-NibData" = {
AngleInDegrees = 90;
};
}),
(583,471,o),
(604,511,o),
(604,546,cs),
(604,617,o),
(515,674,o),
(387,668,cs,{
"Letterink-NibData" = {
AngleInDegrees = 267.25739;
};
}),
(220,660,o),
(86,522,o),
(86,334,cs,{
"Letterink-NibData" = {
AngleInDegrees = 180;
};
}),
(86,144,o),
(223,4,o),
(404,15,cs,{
"Letterink-NibData" = {
AngleInDegrees = 86.30861;
};
}),
(559,25,o),
(644,137,o),
(644,281,c,{
"Letterink-NibData" = {
AngleInDegrees = 358.26429;
};
}),
(643,314,l,{
"Letterink-NibData" = {
AngleInDegrees = 270.21221;
};
}),
(373,315,l,{
"Letterink-NibData" = {
AngleInDegrees = 270.21221;
};
})
);
}
);
width = 729;
},
{
layerId = m004;
shapes = (
{
closed = 1;
nodes = (
(608,-262,o),
(704,-196,o),
(704,-50,cs),
(704,312,l),
(544,312,l),
(544,-50,ls),
(544,-83,o),
(537,-114,o),
(508,-114,cs),
(498,-114,o),
(479,-105,o),
(470,-87,c),
(338,-153,l),
(371,-219,o),
(434,-262,o),
(508,-262,cs)
);
},
{
ref = G;
}
);
width = 732;
},
{
anchors = (
{
name = bottom;
pos = (375,-16);
},
{
name = top;
pos = (378,689);
}
);
associatedMasterId = m004;
layerId = "1BDCECD6-6FE7-4C37-9D37-AA6D55EDC2F1";
name = "5 Jan 22, 08:50";
shapes = (
{
closed = 1;
nodes = (
(587,-161,l,{
"Letterink-NibData" = {
AngleInDegrees = 180;
};
}),
(587,-174,o),
(577,-183,o),
(564,-183,cs,{
"Letterink-NibData" = {
AngleInDegrees = 270;
};
}),
(551,-183,o),
(545,-178,o),
(538,-165,c,{
"Letterink-NibData" = {
AngleInDegrees = 235.68491;
};
}),
(475,-208,l,{
"Letterink-NibData" = {
AngleInDegrees = 154.88516;
};
}),
(490,-240,o),
(526,-263,o),
(563,-263,cs,{
"Letterink-NibData" = {
AngleInDegrees = 90;
};
}),
(608,-263,o),
(667,-228,o),
(667,-162,cs),
(667,317,l,{
"Letterink-NibData" = {
AngleInDegrees = 270;
};
}),
(587,317,l,{
"Letterink-NibData" = {
AngleInDegrees = 180;
};
})
);
},
{
attr = {
strokeHeight = 74;
strokeWidth = 80;
};
closed = 0;
nodes = (
(497,478,l,{
"Letterink-NibData" = {
AngleInDegrees = 116.56505;
};
}),
(507,473,o),
(516,471,o),
(525,471,cs,{
"Letterink-NibData" = {
AngleInDegrees = 90;
};
}),
(569,471,o),
(590,511,o),
(590,546,cs),
(590,617,o),
(501,674,o),
(373,668,cs,{
"Letterink-NibData" = {
AngleInDegrees = 267.25739;
};
}),
(206,660,o),
(72,522,o),
(72,334,cs,{
"Letterink-NibData" = {
AngleInDegrees = 180;
};
}),
(72,144,o),
(209,4,o),
(390,15,cs,{
"Letterink-NibData" = {
AngleInDegrees = 86.30861;
};
}),
(545,25,o),
(630,137,o),
(630,281,c,{
"Letterink-NibData" = {
AngleInDegrees = 358.26429;
};
}),
(629,314,l,{
"Letterink-NibData" = {
AngleInDegrees = 270.21221;
};
}),
(359,315,l,{
"Letterink-NibData" = {
AngleInDegrees = 270.21221;
};
})
);
}
);
width = 701;
}
);
metricLeft = O;
metricRight = G;
userData = {
position = 593;
width = 57;
};
},
{
glyphname = H;
kernLeft = E;
layers = (
{
anchors = (
{
name = bottom;
pos = (392,0);
},
{
name = center;
pos = (392,500);
},
{
name = top;
pos = (392,675);
},
{
name = topleft;
pos = (33,684);
}
);
hints = (
{
name = _corner.caps_vert;
origin = (0,9);
type = Corner;
}
);
layerId = "0CAF3BED-C4AC-4024-B3E1-4C69D1EF7EC0";
shapes = (
{
closed = 1;
nodes = (
(209,-1,l),
(209,319,l,{
"Letterink-NibData" = {
AngleInDegrees = 90;
};
}),
(575,319,l,{
"Letterink-NibData" = {
AngleInDegrees = 180;
};
}),
(575,-1,l,{
"Letterink-NibData" = {
AngleInDegrees = 90;
};
}),
(657,-1,l),
(657,686,l,{
"Letterink-NibData" = {
AngleInDegrees = 270;
};
}),
(575,686,l,{
"Letterink-NibData" = {
AngleInDegrees = 180;
};
}),
(575,395,l,{
"Letterink-NibData" = {
AngleInDegrees = 270;
};
}),
(209,395,l),
(209,585,l,{
"Letterink-NibData" = {
AngleInDegrees = 269.30131;
};
}),
(127,584,l,{
"Letterink-NibData" = {
AngleInDegrees = 180;
};
}),
(127,-1,l,{
"Letterink-NibData" = {
AngleInDegrees = 90;
};
})
);
}
);
width = 733;
},
{
anchors = (
{
name = bottom;
pos = (390,0);
},
{
name = center;
pos = (390,489);
},
{
name = top;
pos = (390,685);
},
{
name = topleft;
pos = (63,684);
}
);
hints = (
{
name = _corner.caps_vert;
origin = (0,9);
type = Corner;
}
);
layerId = "49C16FD3-6177-408B-A733-AEB3898BB77C";
shapes = (
{
closed = 1;
nodes = (
(177,0,l),
(177,340,l,{
"Letterink-NibData" = {
AngleInDegrees = 90;
};
}),
(600,340,l,{
"Letterink-NibData" = {
AngleInDegrees = 180;
};
}),
(600,0,l,{
"Letterink-NibData" = {
AngleInDegrees = 90;
};
}),
(637,0,l),
(637,685,l,{
"Letterink-NibData" = {
AngleInDegrees = 270;
};
}),
(600,685,l,{
"Letterink-NibData" = {
AngleInDegrees = 180;
};
}),
(600,376,l,{
"Letterink-NibData" = {
AngleInDegrees = 270;
};
}),
(177,376,l),
(177,595,l,{
"Letterink-NibData" = {
AngleInDegrees = 270;
};
}),
(139,595,l,{
"Letterink-NibData" = {
AngleInDegrees = 180;
};
}),
(139,0,l,{
"Letterink-NibData" = {
AngleInDegrees = 90;
};
})
);
}
);
width = 721;
},
{
anchors = (
{
name = bottom;
pos = (437,0);
},
{
name = center;
pos = (437,500);
},
{
name = top;
pos = (436,684);
},
{
name = topleft;
pos = (114,684);
}
);
hints = (
{
name = _corner.caps_vert;
origin = (0,9);
type = Corner;
}
);
layerId = m004;
shapes = (
{
closed = 1;
nodes = (
(317,0,l),
(317,275,l,{
"Letterink-NibData" = {
AngleInDegrees = "90";
};
}),
(557,275,l,{
"Letterink-NibData" = {
AngleInDegrees = "180";
};
}),
(557,0,l,{
"Letterink-NibData" = {
AngleInDegrees = "90";
};
}),
(722,0,l),
(722,684,l,{
"Letterink-NibData" = {
AngleInDegrees = "270";
};
}),
(557,684,l,{
"Letterink-NibData" = {
AngleInDegrees = "180";
};
}),
(557,413,l,{
"Letterink-NibData" = {
AngleInDegrees = "270";
};
}),
(317,413,l),
(317,526,l,{
"Letterink-NibData" = {
AngleInDegrees = "270";
};
}),
(152,526,l,{
"Letterink-NibData" = {
AngleInDegrees = "180";
};
}),
(152,0,l,{
"Letterink-NibData" = {
AngleInDegrees = "90";
};
})
);
}
);
width = 780;
}
);
unicode = 72;
userData = {
position = 554;
width = 61;
};
},
{
glyphname = H.ss01;
layers = (
{
anchors = (
{
name = bottom;
pos = (349,0);
},
{
name = center;
pos = (349,512);
},
{
name = top;
pos = (349,684);
},
{
name = topleft;
pos = (32,684);
}
);
layerId = "0CAF3BED-C4AC-4024-B3E1-4C69D1EF7EC0";
shapes = (
{
closed = 1;
nodes = (
(158,-1,l),
(158,321,l,{
"Letterink-NibData" = {
AngleInDegrees = 90;
};
}),
(536,321,l,{
"Letterink-NibData" = {
AngleInDegrees = 180;
};
}),
(536,-1,l,{
"Letterink-NibData" = {
AngleInDegrees = 90;
};
}),
(618,-1,l),
(618,684,l,{
"Letterink-NibData" = {
AngleInDegrees = 270;
};
}),
(536,684,l,{
"Letterink-NibData" = {
AngleInDegrees = 180;
};
}),
(536,397,l,{
"Letterink-NibData" = {
AngleInDegrees = 270;
};
}),
(158,397,l),
(158,684,l,{
"Letterink-NibData" = {
AngleInDegrees = 270;
};
}),
(76,684,l,{
"Letterink-NibData" = {
AngleInDegrees = 180;
};
}),
(76,-1,l,{
"Letterink-NibData" = {
AngleInDegrees = 90;
};
})
);
}
);
width = 694;
},
{
anchors = (
{
name = bottom;
pos = (334,0);
},
{
name = center;
pos = (336,498);
},
{
name = top;
pos = (335,684);
},
{
name = topleft;
pos = (25,684);
}
);
layerId = "49C16FD3-6177-408B-A733-AEB3898BB77C";
shapes = (
{
closed = 1;
nodes = (
(122,0,l),
(122,348,l,{
"Letterink-NibData" = {
AngleInDegrees = 90;
};
}),
(550,348,l,{
"Letterink-NibData" = {
AngleInDegrees = 180;
};
}),
(550,0,l,{
"Letterink-NibData" = {
AngleInDegrees = 90;
};
}),
(588,0,l),
(588,684,l,{
"Letterink-NibData" = {
AngleInDegrees = 270;
};
}),
(550,684,l,{
"Letterink-NibData" = {
AngleInDegrees = 180;
};
}),
(550,384,l,{
"Letterink-NibData" = {
AngleInDegrees = 270;
};
}),
(122,384,l),
(122,684,l,{
"Letterink-NibData" = {
AngleInDegrees = 270;
};
}),
(84,684,l,{
"Letterink-NibData" = {
AngleInDegrees = 180;
};
}),
(84,0,l,{
"Letterink-NibData" = {
AngleInDegrees = 90;
};
})
);
}
);
width = 672;
},
{
anchors = (
{
name = bottom;
pos = (349,0);
},
{
name = center;
pos = (350,508);
},
{
name = top;
pos = (349,684);
},
{
name = topleft;
pos = (15,684);
}
);
layerId = m004;
shapes = (
{
closed = 1;
nodes = (
(223,0,l),
(223,280,l,{
"Letterink-NibData" = {
AngleInDegrees = "90";
};
}),
(474,280,l,{
"Letterink-NibData" = {
AngleInDegrees = "180";
};
}),
(474,0,l,{
"Letterink-NibData" = {
AngleInDegrees = "90";
};
}),
(639,0,l),
(639,684,l,{
"Letterink-NibData" = {
AngleInDegrees = "270";
};
}),
(474,684,l,{
"Letterink-NibData" = {
AngleInDegrees = "180";
};
}),
(474,418,l,{
"Letterink-NibData" = {
AngleInDegrees = "270";
};
}),
(223,418,l),
(223,684,l,{
"Letterink-NibData" = {
AngleInDegrees = "270";
};
}),
(58,684,l,{
"Letterink-NibData" = {
AngleInDegrees = "180";
};
}),
(58,0,l,{
"Letterink-NibData" = {
AngleInDegrees = "90";
};
})
);
}
);
width = 697;
}
);
metricLeft = "=|H";
metricRight = H;
userData = {
position = 525;
width = 61;
};
},
{
glyphname = H.swsh;
kernLeft = Swash;
layers = (
{
anchors = (
{
name = bottom;
pos = (432,0);
},
{
name = center;
pos = (432,478);
},
{
name = top;
pos = (432,675);
},
{
name = topleft;
pos = (70,684);
}
);
background = {
hints = (
{
name = _corner.caps_vert;
origin = (0,9);
type = Corner;
}
);
shapes = (
{
closed = 1;
nodes = (
(257,-1,l),
(257,319,l,{
"Letterink-NibData" = {
AngleInDegrees = "90";
};
}),
(623,319,l,{
"Letterink-NibData" = {
AngleInDegrees = "180";
};
}),
(623,-1,l,{
"Letterink-NibData" = {
AngleInDegrees = "90";
};
}),
(705,-1,l),
(705,686,l,{
"Letterink-NibData" = {
AngleInDegrees = "270";
};
}),
(623,686,l,{
"Letterink-NibData" = {
AngleInDegrees = "180";
};
}),
(623,395,l,{
"Letterink-NibData" = {
AngleInDegrees = "270";
};
}),
(257,395,l),
(257,585,l,{
"Letterink-NibData" = {
AngleInDegrees = "269.30131";
};
}),
(175,584,l,{
"Letterink-NibData" = {
AngleInDegrees = "180";
};
}),
(175,-1,l,{
"Letterink-NibData" = {
AngleInDegrees = "90";
};
})
);
}
);
};
hints = (
{
name = _corner.caps_swash_vert;
origin = (0,9);
type = Corner;
}
);
layerId = "0CAF3BED-C4AC-4024-B3E1-4C69D1EF7EC0";
shapes = (
{
closed = 1;
nodes = (
(256,-1,l),
(256,317,l,{
"Letterink-NibData" = {
AngleInDegrees = 90;
};
}),
(622,317,l,{
"Letterink-NibData" = {
AngleInDegrees = 180;
};
}),
(622,-1,l,{
"Letterink-NibData" = {
AngleInDegrees = 90;
};
}),
(704,-1,l),
(704,686,l,{
"Letterink-NibData" = {
AngleInDegrees = 270;
};
}),
(622,686,l,{
"Letterink-NibData" = {
AngleInDegrees = 180;
};
}),
(622,395,l,{
"Letterink-NibData" = {
AngleInDegrees = 270;
};
}),
(256,395,l),
(256,559,l,{
"Letterink-NibData" = {
AngleInDegrees = 270;
};
}),
(174,559,l,{
"Letterink-NibData" = {
AngleInDegrees = 180;
};
}),
(174,-1,l,{
"Letterink-NibData" = {
AngleInDegrees = 90;
};
})
);
}
);
width = 780;
},
{
anchors = (
{
name = bottom;
pos = (422,0);
},
{
name = center;
pos = (422,450);
},
{
name = top;
pos = (422,684);
},
{
name = topleft;
pos = (89,684);
}
);
background = {
hints = (
{
name = _corner.caps_vert;
origin = (0,9);
type = Corner;
}
);
shapes = (
{
closed = 1;
nodes = (
(217,0,l),
(217,340,l,{
"Letterink-NibData" = {
AngleInDegrees = "90";
};
}),
(640,340,l,{
"Letterink-NibData" = {
AngleInDegrees = "180";
};
}),
(640,0,l,{
"Letterink-NibData" = {
AngleInDegrees = "90";
};
}),
(677,0,l),
(677,685,l,{
"Letterink-NibData" = {
AngleInDegrees = "270";
};
}),
(640,685,l,{
"Letterink-NibData" = {
AngleInDegrees = "180";
};
}),
(640,376,l,{
"Letterink-NibData" = {
AngleInDegrees = "270";
};
}),
(217,376,l),
(217,595,l,{
"Letterink-NibData" = {
AngleInDegrees = "270";
};
}),
(179,595,l,{
"Letterink-NibData" = {
AngleInDegrees = "180";
};
}),
(179,0,l,{
"Letterink-NibData" = {
AngleInDegrees = "90";
};
})
);
}
);
};
hints = (
{
name = _corner.caps_swash_vert;
origin = (0,9);
type = Corner;
}
);
layerId = "49C16FD3-6177-408B-A733-AEB3898BB77C";
shapes = (
{
closed = 1;
nodes = (
(217,1,l),
(217,340,l,{
"Letterink-NibData" = {
AngleInDegrees = 90;
};
}),
(638,340,l,{
"Letterink-NibData" = {
AngleInDegrees = 180;
};
}),
(638,1,l,{
"Letterink-NibData" = {
AngleInDegrees = 90;
};
}),
(676,1,l),
(676,685,l,{
"Letterink-NibData" = {
AngleInDegrees = 270;
};
}),
(638,685,l,{
"Letterink-NibData" = {
AngleInDegrees = 180;
};
}),
(638,376,l,{
"Letterink-NibData" = {
AngleInDegrees = 270;
};
}),
(217,376,l),
(217,570,l,{
"Letterink-NibData" = {
AngleInDegrees = 270;
};
}),
(179,570,l,{
"Letterink-NibData" = {
AngleInDegrees = 180;
};
}),
(179,1,l,{
"Letterink-NibData" = {
AngleInDegrees = 90;
};
})
);
}
);
width = 760;
},
{
anchors = (
{
name = bottom;
pos = (488,0);
},
{
name = center;
pos = (488,512);
},
{
name = top;
pos = (488,684);
},
{
name = topleft;
pos = (161,684);
}
);
background = {
hints = (
{
name = _corner.caps_vert;
origin = (0,9);
type = Corner;
}
);
shapes = (
{
closed = 1;
nodes = (
(371,0,l),
(371,275,l,{
"Letterink-NibData" = {
AngleInDegrees = "90";
};
}),
(611,275,l,{
"Letterink-NibData" = {
AngleInDegrees = "180";
};
}),
(611,0,l,{
"Letterink-NibData" = {
AngleInDegrees = "90";
};
}),
(776,0,l),
(776,684,l,{
"Letterink-NibData" = {
AngleInDegrees = "270";
};
}),
(611,684,l,{
"Letterink-NibData" = {
AngleInDegrees = "180";
};
}),
(611,413,l,{
"Letterink-NibData" = {
AngleInDegrees = "270";
};
}),
(371,413,l),
(371,526,l,{
"Letterink-NibData" = {
AngleInDegrees = "270";
};
}),
(206,526,l,{
"Letterink-NibData" = {
AngleInDegrees = "180";
};
}),
(206,0,l,{
"Letterink-NibData" = {
AngleInDegrees = "90";
};
})
);
}
);
};
hints = (
{
name = _corner.caps_swash_vert;
origin = (0,9);
type = Corner;
}
);
layerId = m004;
shapes = (
{
closed = 1;
nodes = (
(371,-1,l),
(371,275,l,{
"Letterink-NibData" = {
AngleInDegrees = "90";
};
}),
(611,275,l,{
"Letterink-NibData" = {
AngleInDegrees = "180";
};
}),
(611,-1,l,{
"Letterink-NibData" = {
AngleInDegrees = "90";
};
}),
(776,-1,l),
(776,684,l,{
"Letterink-NibData" = {
AngleInDegrees = "270";
};
}),
(611,684,l,{
"Letterink-NibData" = {
AngleInDegrees = "180";
};
}),
(611,413,l,{
"Letterink-NibData" = {
AngleInDegrees = "270";
};
}),
(371,413,l),
(371,503,l,{
"Letterink-NibData" = {
AngleInDegrees = "270";
};
}),
(206,503,l,{
"Letterink-NibData" = {
AngleInDegrees = "180";
};
}),
(206,-1,l,{
"Letterink-NibData" = {
AngleInDegrees = "90";
};
})
);
}
);
width = 834;
}
);
metricLeft = "=H";
metricRight = H;
userData = {
position = 554;
width = 61;
};
},
{
glyphname = I;
layers = (
{
anchors = (
{
name = bottom;
pos = (117,0);
},
{
name = center;
pos = (116,370);
},
{
name = ogonek;
pos = (158,-1);
},
{
name = top;
pos = (115,684);
},
{
name = topleft;
pos = (10,684);
}
);
layerId = "0CAF3BED-C4AC-4024-B3E1-4C69D1EF7EC0";
shapes = (
{
closed = 1;
nodes = (
(158,-1,l),
(158,684,l,{
"Letterink-NibData" = {
AngleInDegrees = 270;
};
}),
(76,684,l,{
"Letterink-NibData" = {
AngleInDegrees = 180;
};
}),
(76,-1,l,{
"Letterink-NibData" = {
AngleInDegrees = 90;
};
})
);
}
);
width = 234;
},
{
anchors = (
{
name = bottom;
pos = (101,0);
},
{
name = center;
pos = (101,373);
},
{
name = ogonek;
pos = (122,1);
},
{
name = top;
pos = (103,685);
},
{
name = topleft;
pos = (15,684);
}
);
layerId = "49C16FD3-6177-408B-A733-AEB3898BB77C";
shapes = (
{
closed = 1;
nodes = (
(122,1,l),
(122,684,l,{
"Letterink-NibData" = {
AngleInDegrees = 270;
};
}),
(84,684,l,{
"Letterink-NibData" = {
AngleInDegrees = 180;
};
}),
(84,1,l,{
"Letterink-NibData" = {
AngleInDegrees = 90;
};
})
);
}
);
width = 206;
},
{
anchors = (
{
name = bottom;
pos = (141,-1);
},
{
name = center;
pos = (141,339);
},
{
name = ogonek;
pos = (223,0);
},
{
name = top;
pos = (140,684);
},
{
name = topleft;
pos = (-4,684);
}
);
layerId = m004;
shapes = (
{
closed = 1;
nodes = (
(223,0,l),
(223,684,l,{
"Letterink-NibData" = {
AngleInDegrees = 270;
};
}),
(58,684,l,{
"Letterink-NibData" = {
AngleInDegrees = 180;
};
}),
(58,0,l,{
"Letterink-NibData" = {
AngleInDegrees = 90;
};
})
);
}
);
width = 281;
}
);
metricLeft = "=|H";
metricRight = H;
unicode = 73;
userData = {
position = 54;
width = 61;
};
},
{
glyphname = I.swsh;
kernLeft = Swash;
layers = (
{
anchors = (
{
name = bottom;
pos = (237,0);
},
{
name = center;
pos = (236,340);
},
{
name = ogonek;
pos = (278,-1);
},
{
name = top;
pos = (237,684);
},
{
name = topleft;
pos = (130,684);
}
);
hints = (
{
name = _corner.caps_swash;
origin = (0,2);
type = Corner;
}
);
layerId = "0CAF3BED-C4AC-4024-B3E1-4C69D1EF7EC0";
shapes = (
{
closed = 1;
nodes = (
(241,608,l),
(241,684,l),
(176,684,l),
(176,608,l)
);
},
{
closed = 1;
nodes = (
(278,0,l),
(278,684,l,{
"Letterink-NibData" = {
AngleInDegrees = 270;
};
}),
(196,684,l,{
"Letterink-NibData" = {
AngleInDegrees = 180;
};
}),
(196,0,l,{
"Letterink-NibData" = {
AngleInDegrees = 90;
};
})
);
}
);
width = 354;
},
{
anchors = (
{
name = bottom;
pos = (224,0);
},
{
name = center;
pos = (223,342);
},
{
name = ogonek;
pos = (246,1);
},
{
name = top;
pos = (223,684);
},
{
name = topleft;
pos = (135,684);
}
);
hints = (
{
name = _corner.caps_swash;
origin = (0,2);
type = Corner;
}
);
layerId = "49C16FD3-6177-408B-A733-AEB3898BB77C";
shapes = (
{
closed = 1;
nodes = (
(210,648,l),
(210,684,l),
(156,684,l),
(156,648,l)
);
},
{
closed = 1;
nodes = (
(241,1,l),
(241,684,l,{
"Letterink-NibData" = {
AngleInDegrees = 270;
};
}),
(204,684,l,{
"Letterink-NibData" = {
AngleInDegrees = 180;
};
}),
(204,1,l,{
"Letterink-NibData" = {
AngleInDegrees = 90;
};
})
);
}
);
width = 325;
},
{
anchors = (
{
name = bottom;
pos = (192,0);
},
{
name = center;
pos = (191,386);
},
{
name = ogonek;
pos = (215,1);
},
{
name = top;
pos = (189,684);
},
{
name = topleft;
pos = (101,684);
}
);
associatedMasterId = "49C16FD3-6177-408B-A733-AEB3898BB77C";
hints = (
{
name = _corner.caps_swash_vert;
options = 1;
origin = (0,1);
type = Corner;
}
);
layerId = "AE169FFE-AC8B-4E8A-9035-7F809B0493BD";
name = "5 Jan 22, 09:48";
shapes = (
{
closed = 1;
nodes = (
(211,1,l),
(211,576,l,{
"Letterink-NibData" = {
AngleInDegrees = 270;
};
}),
(169,576,l,{
"Letterink-NibData" = {
AngleInDegrees = 180;
};
}),
(169,1,l,{
"Letterink-NibData" = {
AngleInDegrees = 90;
};
})
);
}
);
width = 291;
},
{
anchors = (
{
name = bottom;
pos = (313,0);
},
{
name = center;
pos = (317,341);
},
{
name = ogonek;
pos = (396,-1);
},
{
name = top;
pos = (316,684);
},
{
name = topleft;
pos = (165,684);
}
);
hints = (
{
name = _corner.caps_swash;
origin = (0,2);
type = Corner;
}
);
layerId = m004;
shapes = (
{
closed = 1;
nodes = (
(358,536,l),
(358,684,l),
(220,684,l,{
"Letterink-NibData" = {
AngleInDegrees = 180;
};
}),
(220,536,l)
);
},
{
closed = 1;
nodes = (
(396,-1,l),
(396,684,l,{
"Letterink-NibData" = {
AngleInDegrees = 270;
};
}),
(231,684,l,{
"Letterink-NibData" = {
AngleInDegrees = 180;
};
}),
(231,-1,l,{
"Letterink-NibData" = {
AngleInDegrees = 90;
};
})
);
}
);
width = 454;
}
);
metricLeft = H.swsh;
metricRight = H;
userData = {
position = 54;
width = 61;
};
},
{
glyphname = IJ;
kernRight = J;
layers = (
{
anchors = (
{
name = bottom;
pos = (318,0);
},
{
name = top;
pos = (318,684);
}
);
background = {
shapes = (
{
closed = 1;
nodes = (
(424,-7,o),
(502,70,o),
(502,193,cs),
(502,689,l,{
"Letterink-NibData" = {
AngleInDegrees = "270";
};
}),
(433,689,l,{
"Letterink-NibData" = {
AngleInDegrees = "211.6075";
};
}),
(425,676,o),
(395,663,o),
(375,663,cs,{
"Letterink-NibData" = {
AngleInDegrees = "270";
};
}),
(333,663,o),
(300,698,o),
(250,698,cs,{
"Letterink-NibData" = {
AngleInDegrees = "270";
};
}),
(214,698,o),
(182,692,o),
(125,664,c,{
"Letterink-NibData" = {
AngleInDegrees = "153.09391";
};
}),
(159,597,l,{
"Letterink-NibData" = {
AngleInDegrees = 67.52057;
};
}),
(188,609,o),
(217,620,o),
(242,620,cs,{
"Letterink-NibData" = {
AngleInDegrees = "90";
};
}),
(290,620,o),
(327,587,o),
(370,587,cs,{
"Letterink-NibData" = {
AngleInDegrees = "90";
};
}),
(392,587,o),
(407,589,o),
(420,594,c,{
"Letterink-NibData" = {
AngleInDegrees = "180";
};
}),
(420,196,ls,{
"Letterink-NibData" = {
AngleInDegrees = "180";
};
}),
(420,118,o),
(375,69,o),
(303,69,cs,{
"Letterink-NibData" = {
AngleInDegrees = "270";
};
}),
(227,69,o),
(182,115,o),
(186,188,c,{
"Letterink-NibData" = {
AngleInDegrees = "274.39871";
};
}),
(108,194,l,{
"Letterink-NibData" = {
AngleInDegrees = "181.88819";
};
}),
(104,71,o),
(178,-7,o),
(300,-7,cs,{
"Letterink-NibData" = {
AngleInDegrees = "90";
};
})
);
}
);
};
layerId = "0CAF3BED-C4AC-4024-B3E1-4C69D1EF7EC0";
shapes = (
{
closed = 1;
nodes = (
(466,-13,o),
(562,74,o),
(562,236,cs),
(562,684,l,{
"Letterink-NibData" = {
AngleInDegrees = "270";
};
}),
(487,684,l,{
"Letterink-NibData" = {
AngleInDegrees = "211.6075";
};
}),
(480,654,l),
(480,243,ls,{
"Letterink-NibData" = {
AngleInDegrees = "180";
};
}),
(480,122,o),
(417,63,o),
(318,63,cs,{
"Letterink-NibData" = {
AngleInDegrees = "270";
};
}),
(215,63,o),
(163,139,o),
(162,196,c),
(83,185,l),
(85,79,o),
(175,-13,o),
(315,-13,cs,{
"Letterink-NibData" = {
AngleInDegrees = "90";
};
})
);
},
{
pos = (0,285);
ref = I;
scale = (1,0.5845);
},
{
closed = 1;
nodes = (
(473,678,o),
(461,674,o),
(440,674,cs),
(410,674,o),
(386,699,o),
(334,699,cs),
(296,699,o),
(257,690,o),
(217,663,c),
(253,601,l),
(280,619,o),
(307,623,o),
(334,623,cs),
(364,623,o),
(388,598,o),
(440,598,cs),
(500,598,o),
(555,637,o),
(562,684,c),
(482,684,l)
);
}
);
width = 634;
},
{
anchors = (
{
name = bottom;
pos = (352,0);
},
{
name = top;
pos = (368,684);
}
);
layerId = "49C16FD3-6177-408B-A733-AEB3898BB77C";
shapes = (
{
closed = 1;
nodes = (
(454,-6,o),
(539,82,o),
(539,219,cs),
(539,684,l,{
"Letterink-NibData" = {
AngleInDegrees = "268.5679";
};
}),
(503,684,l,{
"Letterink-NibData" = {
AngleInDegrees = "184.66686";
};
}),
(501,653,l),
(501,222,ls,{
"Letterink-NibData" = {
AngleInDegrees = "180";
};
}),
(501,103,o),
(429,30,o),
(318,30,cs,{
"Letterink-NibData" = {
AngleInDegrees = "270";
};
}),
(217,30,o),
(147,85,o),
(138,177,c),
(100,172,l),
(110,64,o),
(192,-6,o),
(319,-6,cs,{
"Letterink-NibData" = {
AngleInDegrees = "90";
};
})
);
},
{
alignment = -1;
pos = (0,264);
ref = I;
scale = (1,0.6157);
},
{
closed = 1;
nodes = (
(490,673,o),
(470,669,o),
(443,669,cs),
(401,669,o),
(377,693,o),
(321,693,cs),
(286,693,o),
(246,680,o),
(221,662,c),
(240,632,l),
(258,645,o),
(293,657,o),
(321,657,cs),
(361,657,o),
(385,633,o),
(443,633,cs),
(485,633,o),
(526,649,o),
(538,684,c),
(500,684,l)
);
}
);
width = 619;
},
{
anchors = (
{
name = bottom;
pos = (384,0);
},
{
name = top;
pos = (359,684);
}
);
layerId = m004;
shapes = (
{
closed = 1;
nodes = (
(527,-27,o),
(638,77,o),
(638,244,cs),
(638,684,l,{
"Letterink-NibData" = {
AngleInDegrees = "270";
};
}),
(516,684,l,{
"Letterink-NibData" = {
AngleInDegrees = "211.6075";
};
}),
(473,632,l),
(473,247,ls,{
"Letterink-NibData" = {
AngleInDegrees = "180";
};
}),
(473,187,o),
(429,125,o),
(351,125,cs,{
"Letterink-NibData" = {
AngleInDegrees = "270";
};
}),
(284,125,o),
(227,165,o),
(221,225,c),
(69,212,l),
(76,77,o),
(182,-27,o),
(352,-27,cs,{
"Letterink-NibData" = {
AngleInDegrees = "90";
};
})
);
},
{
pos = (0,300);
ref = I;
scale = (1,0.5611);
},
{
closed = 1;
nodes = (
(498,679,o),
(487,673,o),
(472,673,cs),
(449,673,o),
(409,698,o),
(351,698,cs),
(316,698,o),
(273,688,o),
(239,666,c),
(307,538,l),
(326,548,o),
(336,550,o),
(351,550,cs),
(378,550,o),
(417,525,o),
(472,525,cs),
(549,525,o),
(637,602,o),
(638,684,c),
(500,684,l)
);
}
);
width = 693;
},
{
anchors = (
{
name = bottom;
pos = (347,0);
},
{
name = top;
pos = (363,684);
}
);
associatedMasterId = "49C16FD3-6177-408B-A733-AEB3898BB77C";
layerId = "60A306EB-A9BE-4CAC-A58E-BFF0F7C2CB4B";
name = "7 Jul 22, 13:18";
shapes = (
{
closed = 1;
nodes = (
(452,-6,o),
(539,82,o),
(539,219,cs),
(539,687,l,{
"Letterink-NibData" = {
AngleInDegrees = "268.5679";
};
}),
(503,687,l,{
"Letterink-NibData" = {
AngleInDegrees = "184.66686";
};
}),
(499,656,l),
(503,222,ls,{
"Letterink-NibData" = {
AngleInDegrees = "180";
};
}),
(504,103,o),
(427,30,o),
(313,30,cs,{
"Letterink-NibData" = {
AngleInDegrees = "270";
};
}),
(212,30,o),
(142,85,o),
(133,177,c),
(95,172,l),
(105,64,o),
(187,-6,o),
(314,-6,cs,{
"Letterink-NibData" = {
AngleInDegrees = "90";
};
})
);
},
{
alignment = -1;
pos = (0,264);
ref = I;
scale = (1,0.6157);
},
{
attr = {
identifier = ID0x7f962dd1a620;
lineCapEnd = 4;
strokeHeight = 36;
strokeWidth = 34;
};
closed = 0;
nodes = (
(232,648,l),
(253,665,o),
(290,678,o),
(321,678,cs),
(369,678,o),
(393,648,o),
(443,648,cs),
(478,648,o),
(509,663,o),
(520,687,c)
);
}
);
width = 615;
},
{
anchors = (
{
name = bottom;
pos = (313,0);
},
{
name = top;
pos = (313,684);
}
);
associatedMasterId = "0CAF3BED-C4AC-4024-B3E1-4C69D1EF7EC0";
background = {
shapes = (
{
closed = 1;
nodes = (
(424,-7,o),
(502,70,o),
(502,193,cs),
(502,689,l,{
"Letterink-NibData" = {
AngleInDegrees = "270";
};
}),
(433,689,l,{
"Letterink-NibData" = {
AngleInDegrees = "211.6075";
};
}),
(425,676,o),
(395,663,o),
(375,663,cs,{
"Letterink-NibData" = {
AngleInDegrees = "270";
};
}),
(333,663,o),
(300,698,o),
(250,698,cs,{
"Letterink-NibData" = {
AngleInDegrees = "270";
};
}),
(214,698,o),
(182,692,o),
(125,664,c,{
"Letterink-NibData" = {
AngleInDegrees = "153.09391";
};
}),
(159,597,l,{
"Letterink-NibData" = {
AngleInDegrees = 67.52057;
};
}),
(188,609,o),
(217,620,o),
(242,620,cs,{
"Letterink-NibData" = {
AngleInDegrees = "90";
};
}),
(290,620,o),
(327,587,o),
(370,587,cs,{
"Letterink-NibData" = {
AngleInDegrees = "90";
};
}),
(392,587,o),
(407,589,o),
(420,594,c,{
"Letterink-NibData" = {
AngleInDegrees = "180";
};
}),
(420,196,ls,{
"Letterink-NibData" = {
AngleInDegrees = "180";
};
}),
(420,118,o),
(375,69,o),
(303,69,cs,{
"Letterink-NibData" = {
AngleInDegrees = "270";
};
}),
(227,69,o),
(182,115,o),
(186,188,c,{
"Letterink-NibData" = {
AngleInDegrees = "274.39871";
};
}),
(108,194,l,{
"Letterink-NibData" = {
AngleInDegrees = "181.88819";
};
}),
(104,71,o),
(178,-7,o),
(300,-7,cs,{
"Letterink-NibData" = {
AngleInDegrees = "90";
};
})
);
}
);
};
layerId = "3FE10B5F-3F42-4C74-9893-12DD354C702F";
name = "7 Jul 22, 13:18";
shapes = (
{
closed = 1;
nodes = (
(464,-13,o),
(562,74,o),
(562,236,cs),
(562,684,l,{
"Letterink-NibData" = {
AngleInDegrees = "270";
};
}),
(487,684,l,{
"Letterink-NibData" = {
AngleInDegrees = "211.6075";
};
}),
(481,654,l),
(480,243,ls,{
"Letterink-NibData" = {
AngleInDegrees = "180";
};
}),
(480,122,o),
(415,63,o),
(313,63,cs,{
"Letterink-NibData" = {
AngleInDegrees = "270";
};
}),
(210,63,o),
(158,139,o),
(157,196,c),
(78,185,l),
(80,79,o),
(170,-13,o),
(310,-13,cs,{
"Letterink-NibData" = {
AngleInDegrees = "90";
};
})
);
},
{
pos = (0,285);
ref = I;
scale = (1,0.5845);
},
{
attr = {
identifier = ID0x7f962dd1a620;
lineCapEnd = "4";
strokeHeight = 76;
strokeWidth = 74;
};
closed = 0;
nodes = (
(234,632,l),
(267,656,o),
(297,664,o),
(329,664,cs),
(372,664,o),
(392,633,o),
(435,633,cs),
(477,633,o),
(516,656,o),
(524,684,c)
);
}
);
width = 627;
},
{
anchors = (
{
name = bottom;
pos = (384,0);
},
{
name = top;
pos = (359,684);
}
);
associatedMasterId = m004;
layerId = "E0D82B3F-63AD-4562-96C8-18F73390CCF6";
name = "7 Jul 22, 13:19";
shapes = (
{
closed = 1;
nodes = (
(531,-27,o),
(644,77,o),
(644,244,cs),
(644,684,l,{
"Letterink-NibData" = {
AngleInDegrees = "270";
};
}),
(522,684,l,{
"Letterink-NibData" = {
AngleInDegrees = "211.6075";
};
}),
(479,632,l),
(479,247,ls,{
"Letterink-NibData" = {
AngleInDegrees = "180";
};
}),
(479,187,o),
(433,125,o),
(351,125,cs,{
"Letterink-NibData" = {
AngleInDegrees = "270";
};
}),
(284,125,o),
(223,165,o),
(223,225,c),
(69,212,l),
(76,77,o),
(182,-27,o),
(352,-27,cs,{
"Letterink-NibData" = {
AngleInDegrees = "90";
};
})
);
},
{
pos = (0,300);
ref = I;
scale = (1,0.5611);
},
{
attr = {
identifier = ID0x7f962dd1a620;
lineCapEnd = "4";
strokeHeight = 148;
strokeWidth = 138;
};
closed = 0;
nodes = (
(267,598,l),
(296,619,o),
(325,629,o),
(351,629,cs),
(400,629,o),
(434,594,o),
(478,594,cs),
(519,594,o),
(574,642,o),
(575,684,c)
);
}
);
width = 693;
}
);
metricLeft = I;
metricRight = J;
unicode = 306;
userData = {
position = 507;
width = 53;
};
},
{
glyphname = IJ.ss01;
kernRight = J;
layers = (
{
layerId = "0CAF3BED-C4AC-4024-B3E1-4C69D1EF7EC0";
shapes = (
{
closed = 1;
nodes = (
(437,-13,o),
(527,74,o),
(527,212,cs),
(527,684,l,{
"Letterink-NibData" = {
AngleInDegrees = "270";
};
}),
(446,684,l,{
"Letterink-NibData" = {
AngleInDegrees = "211.6075";
};
}),
(445,215,ls,{
"Letterink-NibData" = {
AngleInDegrees = "180";
};
}),
(445,122,o),
(388,63,o),
(298,63,cs,{
"Letterink-NibData" = {
AngleInDegrees = "270";
};
}),
(208,63,o),
(163,123,o),
(162,176,c),
(83,165,l),
(85,69,o),
(167,-13,o),
(295,-13,cs,{
"Letterink-NibData" = {
AngleInDegrees = "90";
};
})
);
},
{
pos = (0,241);
ref = I;
scale = (1,0.6481);
}
);
width = 599;
},
{
layerId = "49C16FD3-6177-408B-A733-AEB3898BB77C";
shapes = (
{
closed = 1;
nodes = (
(427,-6,o),
(510,80,o),
(510,214,cs),
(510,685,l,{
"Letterink-NibData" = {
AngleInDegrees = 268.5679;
};
}),
(472,684,l,{
"Letterink-NibData" = {
AngleInDegrees = 184.66686;
};
}),
(472,217,ls,{
"Letterink-NibData" = {
AngleInDegrees = 180;
};
}),
(472,101,o),
(402,30,o),
(294,30,cs,{
"Letterink-NibData" = {
AngleInDegrees = 270;
};
}),
(204,30,o),
(136,88,o),
(127,167,c),
(89,162,l),
(98,71,o),
(174,-6,o),
(295,-6,cs,{
"Letterink-NibData" = {
AngleInDegrees = 90;
};
})
);
},
{
alignment = -1;
pos = (0,234);
ref = I;
scale = (1,0.6583);
}
);
width = 590;
},
{
layerId = m004;
shapes = (
{
closed = 1;
nodes = (
(483,-22,o),
(579,78,o),
(579,239,cs),
(579,684,l,{
"Letterink-NibData" = {
AngleInDegrees = "270";
};
}),
(414,684,l,{
"Letterink-NibData" = {
AngleInDegrees = "211.6075";
};
}),
(414,242,ls,{
"Letterink-NibData" = {
AngleInDegrees = "180";
};
}),
(414,187,o),
(384,130,o),
(316,130,cs,{
"Letterink-NibData" = {
AngleInDegrees = "270";
};
}),
(249,130,o),
(218,170,o),
(213,216,c),
(59,203,l),
(56,82,o),
(147,-22,o),
(317,-22,cs,{
"Letterink-NibData" = {
AngleInDegrees = "90";
};
})
);
},
{
pos = (0,275);
ref = I;
scale = (1,0.5969);
}
);
width = 634;
}
);
metricLeft = I;
metricRight = J;
userData = {
position = 507;
width = 53;
};
},
